<svg width="25" height="25" viewBox="0 0 25 25" fill="none" xmlns="http://www.w3.org/2000/svg">
<path d="M12.5 1.5625C10.2216 1.56519 8.03733 2.47146 6.42628 4.08252C4.81522 5.69358 3.90894 7.87787 3.90626 10.1562C3.90416 12.018 4.51228 13.8292 5.63751 15.3125C5.63751 15.3125 5.87188 15.6211 5.91016 15.6656L12.5 23.4375L19.093 15.6617C19.1273 15.6203 19.3625 15.3125 19.3625 15.3125L19.3633 15.3102C20.4878 13.8274 21.0956 12.0171 21.0938 10.1562C21.0911 7.87787 20.1848 5.69358 18.5737 4.08252C16.9627 2.47146 14.7784 1.56519 12.5 1.5625ZM12.5 13.2812C11.8819 13.2812 11.2778 13.098 10.7638 12.7546C10.2499 12.4112 9.84941 11.9232 9.61288 11.3521C9.37636 10.7811 9.31447 10.1528 9.43505 9.54659C9.55563 8.9404 9.85326 8.38358 10.2903 7.94654C10.7273 7.5095 11.2842 7.21187 11.8903 7.0913C12.4965 6.97072 13.1249 7.0326 13.6959 7.26913C14.2669 7.50565 14.755 7.90619 15.0983 8.42009C15.4417 8.934 15.625 9.53818 15.625 10.1562C15.624 10.9847 15.2944 11.779 14.7086 12.3648C14.1227 12.9506 13.3285 13.2802 12.5 13.2812Z" fill="#003C53"/>
</svg>
