<svg width="23" height="23" viewBox="0 0 23 23" fill="none" xmlns="http://www.w3.org/2000/svg">
<path d="M17.5649 21.5625C16.688 21.5625 15.4563 21.2453 13.6118 20.2148C11.3688 18.957 9.63397 17.7958 7.40315 15.5708C5.25229 13.4213 4.20561 12.0296 2.74071 9.36391C1.08578 6.35415 1.36789 4.77649 1.68324 4.10222C2.05879 3.29632 2.61313 2.81431 3.32963 2.33589C3.7366 2.06925 4.16728 1.84068 4.61619 1.65307C4.66112 1.63376 4.70289 1.61534 4.74018 1.59872C4.96254 1.49854 5.29946 1.34716 5.72621 1.50888C6.01102 1.61579 6.26528 1.83456 6.66328 2.22763C7.47952 3.03263 8.59492 4.82546 9.00641 5.70593C9.28268 6.29934 9.46551 6.69106 9.46596 7.1304C9.46596 7.64475 9.20721 8.04141 8.89321 8.46952C8.83436 8.54993 8.77596 8.62675 8.71936 8.70132C8.3775 9.15054 8.30248 9.28036 8.3519 9.51216C8.45207 9.978 9.19912 11.3647 10.4268 12.5898C11.6546 13.8148 13.0013 14.5147 13.4689 14.6144C13.7106 14.666 13.8431 14.5879 14.3067 14.2339C14.3732 14.1831 14.4415 14.1306 14.5129 14.078C14.9918 13.7218 15.37 13.4698 15.8723 13.4698H15.875C16.3121 13.4698 16.6863 13.6593 17.3062 13.972C18.1148 14.3799 19.9615 15.4809 20.7714 16.2981C21.1654 16.6952 21.3851 16.9485 21.4924 17.2329C21.6542 17.661 21.5019 17.9966 21.4026 18.2212C21.386 18.2584 21.3676 18.2993 21.3482 18.3447C21.1592 18.7928 20.9292 19.2226 20.6614 19.6286C20.1839 20.3428 19.7001 20.8958 18.8924 21.2718C18.4776 21.468 18.0237 21.5674 17.5649 21.5625Z" fill="#003C53"/>
</svg>
