<svg width="71" height="71" viewBox="0 0 71 71" fill="none" xmlns="http://www.w3.org/2000/svg">
<g clip-path="url(#clip0_0_10)">
<path d="M35.4867 70.9734C55.0854 70.9734 70.9734 55.0854 70.9734 35.4867C70.9734 15.8879 55.0854 0 35.4867 0C15.8879 0 0 15.8879 0 35.4867C0 55.0854 15.8879 70.9734 35.4867 70.9734Z" fill="white"/>
<path fill-rule="evenodd" clip-rule="evenodd" d="M46.7212 47.0938C46.242 46.4815 45.683 45.7361 45.0441 44.8842C43.3669 42.5947 43.8993 40.9176 44.059 40.5715L46.7478 30.7747C47.0673 29.5767 48.4516 29.4969 49.5964 29.417C49.7561 29.3904 49.9158 29.417 50.0489 29.4436C50.608 29.5235 51.0872 29.8429 51.4066 30.3221C51.6728 30.7481 51.7793 31.2273 51.6462 31.7065L50.3418 37.2438C50.2885 37.51 50.4483 37.8028 50.7411 37.8827C51.0339 37.9359 51.3268 37.7762 51.38 37.4834L52.6845 31.9461C52.8708 31.174 52.7111 30.402 52.2851 29.7365C51.8326 29.0177 51.0872 28.5385 50.2619 28.3787C50.1022 28.3521 49.9424 28.3521 49.8093 28.3521C49.3568 28.3255 48.7445 28.4054 48.1055 28.5651L44.9376 23.9862C44.485 23.3206 44.2986 22.522 44.4584 21.7233C44.5915 20.9247 45.0441 20.2325 45.7096 19.7533C46.3485 19.3008 47.1738 19.141 47.9724 19.2741C48.7711 19.4072 49.4632 19.8598 49.9158 20.5254L56.0654 29.3904C56.3583 29.6832 57.5562 31.0143 56.9972 33.5966C56.5712 35.54 55.4797 39.2404 54.9739 41.024C54.6545 41.1039 54.3616 41.237 54.0954 41.4234L46.8809 46.9607C46.8277 47.0139 46.7745 47.0672 46.7212 47.0938Z" fill="#003C53"/>
<path fill-rule="evenodd" clip-rule="evenodd" d="M48.931 51.7526C48.7712 51.7526 48.6115 51.6993 48.505 51.5662L47.1473 49.7826C46.6415 49.117 46.748 48.1853 47.4135 47.6795L54.628 42.1421C55.2936 41.6363 56.2519 41.7694 56.7311 42.4084L58.1154 44.192C58.2752 44.4316 58.2486 44.7511 58.009 44.9374C56.6779 45.949 49.3303 51.5928 49.2504 51.6461C49.1439 51.7259 49.0375 51.7526 48.931 51.7526Z" fill="#003C53"/>
<path fill-rule="evenodd" clip-rule="evenodd" d="M16.0264 41.0241C15.5206 39.2404 14.4291 35.54 14.0032 33.5967C13.4441 31.041 14.6421 29.6833 14.9349 29.3904L21.0845 20.5254C21.5371 19.8599 22.2293 19.4339 23.0279 19.2742C23.8266 19.1411 24.6252 19.3008 25.2908 19.78C25.9563 20.2326 26.4089 20.9247 26.542 21.7234C26.7017 22.522 26.5154 23.3207 26.0628 23.9862L22.9214 28.5385C22.4689 28.4587 22.0429 28.4321 21.7235 28.3788C21.404 28.3256 21.0845 28.3256 20.7385 28.3788C19.9132 28.5385 19.1678 29.0177 18.7152 29.7365C18.2626 30.4021 18.1295 31.2007 18.3159 31.9461L19.6203 37.4834C19.6736 37.7763 19.9664 37.936 20.2593 37.8827C20.5521 37.8029 20.7118 37.51 20.6586 37.2438L19.3541 31.7065C19.2476 31.2273 19.3275 30.7481 19.5937 30.3222C19.9132 29.8696 20.3924 29.5235 20.9248 29.4437C21.1378 29.3904 21.3241 29.3904 21.5105 29.4171C22.8682 29.6034 23.8532 29.3106 24.2525 30.7748L26.9413 40.5715C27.101 40.9176 27.6335 42.5948 25.9563 44.8842C25.3174 45.7361 24.7317 46.4815 24.2791 47.0938C24.2259 47.0406 24.1727 47.014 24.1194 46.9607L16.9049 41.4234C16.6387 41.2371 16.3459 41.104 16.0264 41.0241Z" fill="#003C53"/>
<path fill-rule="evenodd" clip-rule="evenodd" d="M22.0695 51.7526C21.963 51.7526 21.8565 51.7259 21.75 51.6461C19.1145 49.6495 13.7635 45.5231 12.9915 44.9374C12.7519 44.7511 12.6987 44.4316 12.885 44.192L14.2427 42.4084C14.7485 41.7694 15.7069 41.6363 16.3724 42.1421L23.5869 47.6795C24.2258 48.1853 24.3589 49.117 23.8531 49.7826L22.4954 51.5662C22.3889 51.6993 22.2292 51.7526 22.0695 51.7526Z" fill="#003C53"/>
<path fill-rule="evenodd" clip-rule="evenodd" d="M35.4868 41.7695C35.3537 41.7695 35.2206 41.7162 35.1141 41.6364L29.8696 36.3653C29.843 36.3653 29.843 36.3387 29.8164 36.3387C28.2989 34.6881 28.3522 32.0526 29.9495 30.4553C31.4403 28.9645 33.8363 28.8313 35.4868 30.0559C37.1373 28.8313 39.5333 28.9645 41.0507 30.4553C42.648 32.0526 42.6747 34.6881 41.1572 36.3387C41.1306 36.3387 41.1306 36.3653 41.1306 36.3653L35.8595 41.6364C35.7796 41.7162 35.6465 41.7695 35.4868 41.7695Z" fill="#003C53"/>
</g>
<defs>
<clipPath id="clip0_0_10">
<rect width="71" height="71" fill="white"/>
</clipPath>
</defs>
</svg>
