<svg width="73" height="73" viewBox="0 0 73 73" fill="none" xmlns="http://www.w3.org/2000/svg">
<g clip-path="url(#clip0_506_283)">
<path fill-rule="evenodd" clip-rule="evenodd" d="M5.53913 39.8395L1.54889 37.5753C0.899066 37.2364 0.899066 36.3795 1.54889 36.0446L5.53913 33.7804C5.94582 33.5492 6.456 33.6927 6.68719 34.0953C6.91838 34.5018 6.77494 35.0122 6.37219 35.2433L5.09658 35.9649H12.7422C13.2085 35.9649 13.5872 36.3436 13.5872 36.8101C13.5872 37.2765 13.2085 37.6511 12.7422 37.6511H5.09658L6.37219 38.3766C6.7748 38.6039 6.91838 39.118 6.68719 39.5206C6.456 39.9271 5.94582 40.0666 5.53913 39.8395ZM19.2398 12.3466C19.7061 12.3427 20.0809 11.964 20.0769 11.5015L20.0689 10.0266L23.8958 16.6557C24.1269 17.0542 24.6371 17.1938 25.0397 16.9627C25.4423 16.7315 25.5818 16.2172 25.3507 15.8146L21.524 9.18553L22.7916 9.93099C23.1942 10.1661 23.7084 10.0346 23.9436 9.63202C24.1787 9.23335 24.0433 8.71922 23.6446 8.48396L19.6305 6.12413C19.0725 5.79732 18.3589 6.19992 18.3629 6.85369L18.3987 11.5096C18.3987 11.972 18.7774 12.3466 19.2398 12.3466ZM16.3498 24.2016L9.72075 20.3749L11.1917 20.3869C11.658 20.3908 12.0367 20.0162 12.0367 19.5497C12.0406 19.0874 11.6619 18.7087 11.1996 18.7046L6.5955 18.6727C5.88605 18.6488 5.46741 19.3782 5.84218 19.9802L8.17416 23.9505C8.40943 24.3531 8.92355 24.4845 9.32616 24.2494C9.72469 24.0182 9.86025 23.5 9.62513 23.1014L8.87968 21.8338L15.5048 25.6606C15.9074 25.8918 16.4217 25.7562 16.6568 25.3536C16.888 24.951 16.7526 24.4367 16.3498 24.2016ZM57.4916 25.6606L64.1246 21.8298L63.3792 23.1015C63.1441 23.5002 63.2755 24.0184 63.6781 24.2496C64.0767 24.4847 64.5909 24.3532 64.8262 23.9506L67.186 19.9365C67.513 19.3824 67.1102 18.6689 66.4565 18.6728L61.8007 18.7047C61.3383 18.7088 60.9635 19.0874 60.9635 19.5499C60.9675 20.0163 61.3422 20.391 61.8085 20.387L63.2834 20.3751L56.6543 24.2018C56.2557 24.4329 56.1162 24.9472 56.3474 25.3498C56.5785 25.7524 57.0928 25.8919 57.4913 25.6607L57.4916 25.6606ZM47.9566 16.9627C48.3592 17.1978 48.8734 17.0583 49.1086 16.6557L52.9354 10.0306L52.9234 11.5015C52.9193 11.9639 53.2941 12.3426 53.7606 12.3466C54.2229 12.3466 54.6016 11.9719 54.6016 11.5095L54.6375 6.90544C54.6614 6.19585 53.9318 5.77327 53.33 6.14803L49.3597 8.48396C48.9571 8.71908 48.8255 9.23335 49.0568 9.63202C49.2919 10.0346 49.8101 10.1661 50.2088 9.93099L51.4764 9.18961L47.6497 15.8147C47.4185 16.2173 47.5539 16.7316 47.9567 16.9628L47.9566 16.9627ZM33.7896 6.99713C34.1922 7.22438 34.7064 7.08488 34.9336 6.67819L35.6551 5.40652V13.0522C35.6551 13.5185 36.0338 13.8973 36.5001 13.8973C36.9664 13.8973 37.3451 13.5186 37.3451 13.0522V5.40652L38.0667 6.67819C38.2939 7.08474 38.808 7.22424 39.2147 6.99713C39.6173 6.76594 39.7609 6.25167 39.5297 5.84907L37.2655 1.85883C36.9268 1.209 36.0736 1.209 35.7348 1.85883L33.4706 5.84907C33.2434 6.25167 33.3829 6.76594 33.7896 6.99713ZM15.5087 47.9595L8.87968 51.7863L9.62513 50.5187C9.86025 50.1161 9.72469 49.6019 9.32616 49.3667C8.92355 49.1316 8.40929 49.2672 8.17416 49.6657L5.81841 53.6798C5.4916 54.238 5.89013 54.9514 6.54389 54.9474L11.1997 54.9116C11.6621 54.9116 12.0408 54.5329 12.0368 54.0664C12.0368 53.604 11.6581 53.2293 11.1918 53.2293L9.71696 53.2412L16.346 49.4145C16.7486 49.1834 16.8881 48.6732 16.6569 48.2706C16.4258 47.868 15.9115 47.7285 15.5089 47.9596L15.5087 47.9595ZM64.8262 49.6656C64.5911 49.267 64.0768 49.1315 63.6781 49.3666C63.2755 49.6017 63.1441 50.116 63.3792 50.5186L64.1205 51.7823L57.4954 47.9594C57.0928 47.7282 56.5785 47.8637 56.3474 48.2663C56.1121 48.669 56.2516 49.1832 56.6543 49.4144L63.2795 53.2411L61.8085 53.2291C61.3422 53.2291 60.9675 53.6039 60.9635 54.0663C60.9635 54.5327 61.3383 54.9114 61.8007 54.9114L66.4047 54.9473C67.1142 54.9712 67.5368 54.2418 67.1621 53.6398L64.8262 49.6656ZM53.7606 61.2735C53.2943 61.2735 52.9195 61.6522 52.9234 62.1186L52.9354 63.5935L49.1086 56.9644C48.8774 56.5618 48.3631 56.4223 47.9605 56.6535C47.5579 56.8847 47.4184 57.399 47.6496 57.8016L51.4763 64.4306L50.2087 63.6852C49.8101 63.4501 49.2918 63.5855 49.0567 63.9841C48.8253 64.3868 48.957 64.901 49.3596 65.1361L53.3737 67.492C53.9278 67.8188 54.6413 67.4162 54.6374 66.7665L54.6015 62.1106C54.6015 61.6441 54.2228 61.2695 53.7604 61.2735H53.7606ZM71.4513 36.0446L67.4611 33.7804C67.0585 33.5492 66.5442 33.6927 66.313 34.0953C66.0858 34.5018 66.2253 35.0122 66.632 35.2433L67.9035 35.9649H60.2579C59.7915 35.9649 59.4128 36.3436 59.4128 36.8101C59.4128 37.2765 59.7915 37.6511 60.2579 37.6511H67.9035L66.632 38.3766C66.2253 38.6039 66.0858 39.118 66.313 39.5206C66.5442 39.9271 67.0585 40.0666 67.4611 39.8395L71.4513 37.5753C72.1012 37.2364 72.1012 36.3795 71.4513 36.0446ZM39.2147 66.623C38.8082 66.3918 38.2939 66.5352 38.0667 66.9378L37.3451 68.2134V60.5679C37.3451 60.1015 36.9664 59.7228 36.5001 59.7228C36.0338 59.7228 35.6551 60.1015 35.6551 60.5679V68.2134L34.9336 66.9378C34.7063 66.5352 34.1922 66.3918 33.7896 66.623C33.3829 66.8542 33.2434 67.3643 33.4706 67.771L35.7348 71.7613C36.0736 72.4111 36.9268 72.4111 37.2655 71.7613L39.5297 67.771C39.7609 67.3645 39.6175 66.8542 39.2147 66.623ZM25.0438 56.6534C24.6412 56.4222 24.1269 56.5577 23.8958 56.9603L20.0689 63.5894L20.0809 62.1185C20.0809 61.652 19.7061 61.2733 19.2398 61.2733C18.7774 61.2694 18.3987 61.644 18.3987 62.1105L18.3629 66.7145C18.339 67.4241 19.0685 67.8426 19.6704 67.468L23.6446 65.136C24.0433 64.9009 24.1787 64.3866 23.9436 63.984C23.7084 63.5853 23.1942 63.4499 22.7916 63.685L21.5279 64.4305L25.3507 57.8054C25.5818 57.4028 25.4463 56.8885 25.0437 56.6534H25.0438ZM43.4682 43.8257C43.8348 40.4733 46.4699 38.9227 49.5591 38.6993C49.7066 38.6913 49.8661 38.6635 49.9737 38.5518C50.3205 38.197 50.4321 37.1726 50.468 36.7061C50.5477 35.6578 50.46 34.4699 50.6553 33.4533C51.0938 31.1693 52.752 30.1727 54.6894 30.5473C54.3984 29.7062 54.0517 28.8811 53.645 28.0838C53.0551 29.7342 51.3609 30.2922 49.6667 29.5946C48.5664 29.1402 47.53 28.2473 46.697 27.4141C46.5694 27.2865 46.3103 27.0353 46.0552 26.8202C45.7164 28.319 45.8081 30.36 45.1145 31.7949C44.2535 33.5768 41.9256 34.7527 40.2673 35.6696C39.3226 36.1917 38.2582 36.423 37.2338 35.9686C36.1376 35.4823 35.5755 34.4378 35.0932 33.4054C34.8739 32.9389 33.969 30.9778 33.5027 30.4835C33.0721 30.5991 32.0956 31.1453 31.8125 31.2967C29.8592 32.3451 27.5831 32.3531 25.897 30.7985C23.8122 28.8851 23.6767 25.3414 26.3276 23.9222C26.8857 23.6193 28.9027 22.531 29.7837 21.8175C29.138 21.0203 28.7832 20.1951 28.823 19.1706C24.3465 21.1159 20.7469 24.7354 18.8255 29.2198L19.001 29.3076C20.2607 29.9573 21.7635 31.4801 22.6604 32.5682C23.9399 34.1309 25.4069 36.4907 24.5618 38.5635C24.4142 39.4245 24.9485 40.4968 25.7218 41.342C25.6062 40.5448 25.7537 39.7594 26.4911 39.1974C27.6711 38.3045 29.126 39.038 30.1943 39.7117C32.0599 40.8837 33.5189 43.1996 34.6389 45.0652C35.2927 46.1535 37.1663 49.6214 38.1588 50.2472C38.8126 50.6618 39.2988 51.2597 39.4264 52.041C39.6975 53.6554 38.3183 54.7397 37.9595 55.9834C41.1324 55.7442 44.2577 54.7198 47.0201 52.914C43.9946 51.8018 43.1695 46.6118 43.4685 43.8254L43.4682 43.8257ZM27.1246 25.4093C24.4658 26.8324 26.9174 32.0105 31.0112 29.81C34.1245 28.1357 34.4594 28.092 36.6199 32.6881C37.2696 34.0753 37.8636 35.0718 39.4501 34.1948C44.4966 31.4005 43.6357 31.4005 44.2934 27.0754C44.7836 23.8266 46.2187 24.5522 47.8889 26.2224C51.7953 30.1249 52.8717 27.49 51.7236 25.0504C51.2293 24.4127 50.6872 23.7948 50.1012 23.2088C44.8395 17.947 37.2855 16.3725 30.6524 18.4851C29.5084 21.9411 35.679 20.8211 27.1246 25.4093ZM36.2252 56.0394C36.5361 53.851 38.7604 52.6232 37.2577 51.6744C34.8859 50.1796 32.4981 43.1559 29.2932 41.1388C27.9259 40.2777 26.6981 39.8751 27.7864 42.3147C28.2568 43.367 28.7192 44.4872 28.0296 44.4473C25.3628 44.2958 22.2655 40.756 22.9471 38.0374C24.0313 35.857 19.7462 31.5917 18.2274 30.8065C16.043 37.4794 17.5976 45.1051 22.9032 50.4067C26.5865 54.094 31.3939 55.9674 36.2252 56.0393V56.0394ZM52.3135 33.7724C51.9748 35.5223 52.8437 40.1544 49.6786 40.3856C48.3632 40.4773 45.4811 40.9477 45.1463 44.0051C44.7596 47.5847 46.5973 53.9109 50.1012 50.4069C54.9564 45.5517 56.6705 38.7432 55.2474 32.5048C53.7047 31.7554 52.6204 32.1779 52.3135 33.7724Z" fill="white"/>
</g>
<defs>
<clipPath id="clip0_506_283">
<rect width="72" height="72" fill="white" transform="translate(0.5 0.810059)"/>
</clipPath>
</defs>
</svg>
