<svg width="170" height="72" viewBox="0 0 170 72" fill="none" xmlns="http://www.w3.org/2000/svg">
<g clip-path="url(#clip0_0_151)">
<path fill-rule="evenodd" clip-rule="evenodd" d="M5.03913 39.0295L1.04889 36.7653C0.399066 36.4264 0.399066 35.5694 1.04889 35.2346L5.03913 32.9704C5.44582 32.7392 5.956 32.8826 6.18719 33.2852C6.41838 33.6918 6.27494 34.2021 5.87219 34.4333L4.59658 35.1548H12.2422C12.7085 35.1548 13.0872 35.5335 13.0872 36C13.0872 36.4664 12.7085 36.8411 12.2422 36.8411H4.59658L5.87219 37.5666C6.2748 37.7938 6.41838 38.3079 6.18719 38.7105C5.956 39.1171 5.44582 39.2566 5.03913 39.0295ZM18.7398 11.5366C19.2061 11.5326 19.5809 11.1539 19.5769 10.6914L19.5689 9.21655L23.3958 15.8456C23.6269 16.2441 24.1371 16.3838 24.5397 16.1526C24.9423 15.9214 25.0818 15.4071 24.8507 15.0045L21.024 8.37548L22.2916 9.12093C22.6942 9.35605 23.2084 9.22457 23.4436 8.82196C23.6787 8.42329 23.5433 7.90916 23.1446 7.6739L19.1305 5.31407C18.5725 4.98726 17.8589 5.38987 17.8629 6.04363L17.8987 10.6996C17.8987 11.162 18.2774 11.5366 18.7398 11.5366ZM15.8498 23.3916L9.22075 19.5649L10.6917 19.5768C11.158 19.5808 11.5367 19.2061 11.5367 18.7397C11.5406 18.2773 11.1619 17.8986 10.6996 17.8945L6.0955 17.8626C5.38605 17.8387 4.96741 18.5681 5.34218 19.1701L7.67416 23.1404C7.90943 23.543 8.42355 23.6745 8.82616 23.4394C9.22469 23.2082 9.36025 22.69 9.12513 22.2913L8.37968 21.0237L15.0048 24.8505C15.4074 25.0817 15.9217 24.9462 16.1568 24.5436C16.388 24.1409 16.2526 23.6267 15.8498 23.3916ZM56.9916 24.8505L63.6246 21.0198L62.8792 22.2914C62.6441 22.6901 62.7755 23.2083 63.1781 23.4395C63.5767 23.6746 64.0909 23.5431 64.3262 23.1405L66.686 19.1264C67.013 18.5723 66.6102 17.8588 65.9565 17.8627L61.3007 17.8947C60.8383 17.8987 60.4635 18.2773 60.4635 18.7398C60.4675 19.2063 60.8422 19.5809 61.3085 19.577L62.7834 19.565L56.1543 23.3917C55.7557 23.6229 55.6162 24.1371 55.8474 24.5398C56.0785 24.9424 56.5928 25.0819 56.9913 24.8507L56.9916 24.8505ZM47.4566 16.1526C47.8592 16.3877 48.3734 16.2482 48.6086 15.8456L52.4354 9.22049L52.4234 10.6914C52.4193 11.1538 52.7941 11.5325 53.2606 11.5366C53.7229 11.5366 54.1016 11.1618 54.1016 10.6994L54.1375 6.09538C54.1614 5.38579 53.4318 4.96321 52.83 5.33798L48.8597 7.6739C48.4571 7.90902 48.3255 8.42329 48.5568 8.82196C48.7919 9.22457 49.3101 9.35605 49.7088 9.12093L50.9764 8.37955L47.1497 15.0047C46.9185 15.4073 47.0539 15.9216 47.4567 16.1527L47.4566 16.1526ZM33.2896 6.18707C33.6922 6.41432 34.2064 6.27482 34.4336 5.86813L35.1551 4.59646V12.2421C35.1551 12.7084 35.5338 13.0873 36.0001 13.0873C36.4664 13.0873 36.8451 12.7086 36.8451 12.2421V4.59646L37.5667 5.86813C37.7939 6.27468 38.308 6.41418 38.7147 6.18707C39.1173 5.95588 39.2609 5.44162 39.0297 5.03901L36.7655 1.04877C36.4268 0.398944 35.5736 0.398944 35.2348 1.04877L32.9706 5.03901C32.7434 5.44162 32.8829 5.95588 33.2896 6.18707ZM15.0087 47.1494L8.37968 50.9763L9.12513 49.7087C9.36025 49.3061 9.22469 48.7918 8.82616 48.5567C8.42355 48.3216 7.90929 48.4571 7.67416 48.8556L5.31841 52.8698C4.9916 53.4279 5.39013 54.1413 6.04389 54.1374L10.6997 54.1015C11.1621 54.1015 11.5408 53.7228 11.5368 53.2564C11.5368 52.794 11.1581 52.4192 10.6918 52.4192L9.21696 52.4312L15.846 48.6045C16.2486 48.3733 16.3881 47.8631 16.1569 47.4605C15.9258 47.0579 15.4115 46.9184 15.0089 47.1496L15.0087 47.1494ZM64.3262 48.8555C64.0911 48.457 63.5768 48.3214 63.1781 48.5565C62.7755 48.7917 62.6441 49.3059 62.8792 49.7085L63.6205 50.9722L56.9954 47.1493C56.5928 46.9181 56.0785 47.0537 55.8474 47.4563C55.6121 47.8589 55.7516 48.3732 56.1543 48.6044L62.7795 52.431L61.3085 52.4191C60.8422 52.4191 60.4675 52.7938 60.4635 53.2562C60.4635 53.7227 60.8383 54.1014 61.3007 54.1014L65.9047 54.1372C66.6142 54.1611 67.0368 53.4317 66.6621 52.8297L64.3262 48.8555ZM53.2606 60.4634C52.7943 60.4634 52.4195 60.8421 52.4234 61.3086L52.4354 62.7834L48.6086 56.1544C48.3774 55.7518 47.8631 55.6123 47.4605 55.8434C47.0579 56.0746 46.9184 56.5889 47.1496 56.9915L50.9763 63.6206L49.7087 62.8751C49.3101 62.64 48.7918 62.7754 48.5567 63.1741C48.3253 63.5767 48.457 64.091 48.8596 64.3261L52.8737 66.682C53.4278 67.0088 54.1413 66.6062 54.1374 65.9565L54.1015 61.3005C54.1015 60.8341 53.7228 60.4595 53.2604 60.4634H53.2606ZM70.9513 35.2346L66.9611 32.9704C66.5585 32.7392 66.0442 32.8826 65.813 33.2852C65.5858 33.6918 65.7253 34.2021 66.132 34.4333L67.4035 35.1548H59.7579C59.2915 35.1548 58.9128 35.5335 58.9128 36C58.9128 36.4664 59.2915 36.8411 59.7579 36.8411H67.4035L66.132 37.5666C65.7253 37.7938 65.5858 38.3079 65.813 38.7105C66.0442 39.1171 66.5585 39.2566 66.9611 39.0295L70.9513 36.7653C71.6012 36.4264 71.6012 35.5694 70.9513 35.2346ZM38.7147 65.8129C38.3082 65.5817 37.7939 65.7252 37.5667 66.1278L36.8451 67.4034V59.7579C36.8451 59.2914 36.4664 58.9127 36.0001 58.9127C35.5338 58.9127 35.1551 59.2914 35.1551 59.7579V67.4034L34.4336 66.1278C34.2063 65.7252 33.6922 65.5817 33.2896 65.8129C32.8829 66.0441 32.7434 66.5543 32.9706 66.961L35.2348 70.9512C35.5736 71.601 36.4268 71.601 36.7655 70.9512L39.0297 66.961C39.2609 66.5544 39.1175 66.0441 38.7147 65.8129ZM24.5438 55.8433C24.1412 55.6121 23.6269 55.7477 23.3958 56.1503L19.5689 62.7794L19.5809 61.3084C19.5809 60.842 19.2061 60.4633 18.7398 60.4633C18.2774 60.4593 17.8987 60.8339 17.8987 61.3004L17.8629 65.9045C17.839 66.6141 18.5685 67.0326 19.1704 66.6579L23.1446 64.3259C23.5433 64.0908 23.6787 63.5766 23.4436 63.1739C23.2084 62.7753 22.6942 62.6399 22.2916 62.875L21.0279 63.6204L24.8507 56.9953C25.0818 56.5927 24.9463 56.0784 24.5437 55.8433H24.5438ZM42.9682 43.0156C43.3348 39.6633 45.9699 38.1126 49.0591 37.8893C49.2066 37.8813 49.3661 37.8534 49.4737 37.7418C49.8205 37.387 49.9321 36.3625 49.968 35.8961C50.0477 34.8477 49.96 33.6599 50.1553 32.6433C50.5938 30.3592 52.252 29.3626 54.1894 29.7373C53.8984 28.8962 53.5517 28.071 53.145 27.2738C52.5551 28.9242 50.8609 29.4822 49.1667 28.7845C48.0664 28.3302 47.03 27.4372 46.197 26.604C46.0694 26.4764 45.8103 26.2253 45.5552 26.0101C45.2164 27.5089 45.3081 29.5499 44.6145 30.9849C43.7535 32.7667 41.4256 33.9426 39.7673 34.8595C38.8226 35.3817 37.7582 35.613 36.7338 35.1585C35.6376 34.6722 35.0755 33.6278 34.5932 32.5953C34.3739 32.1289 33.469 30.1677 33.0027 29.6734C32.5721 29.789 31.5956 30.3352 31.3125 30.4866C29.3592 31.535 27.0831 31.543 25.397 29.9884C23.3122 28.0751 23.1767 24.5313 25.8276 23.1121C26.3857 22.8092 28.4027 21.7209 29.2837 21.0074C28.638 20.2102 28.2832 19.385 28.323 18.3606C23.8465 20.3058 20.2469 23.9254 18.3255 28.4098L18.501 28.4975C19.7607 29.1472 21.2635 30.67 22.1604 31.7582C23.4399 33.3208 24.9069 35.6806 24.0618 37.7534C23.9142 38.6145 24.4485 39.6868 25.2218 40.5319C25.1062 39.7347 25.2537 38.9493 25.9911 38.3874C27.1711 37.4944 28.626 38.2279 29.6943 38.9016C31.5599 40.0736 33.0189 42.3896 34.1389 44.2551C34.7927 45.3434 36.6663 48.8114 37.6588 49.4371C38.3126 49.8517 38.7988 50.4496 38.9264 51.2309C39.1975 52.8453 37.8183 53.9297 37.4595 55.1734C40.6324 54.9342 43.7577 53.9097 46.5201 52.1039C43.4946 50.9917 42.6695 45.8017 42.9685 43.0154L42.9682 43.0156ZM26.6246 24.5992C23.9658 26.0224 26.4174 31.2005 30.5112 29C33.6245 27.3257 33.9594 27.2819 36.1199 31.878C36.7696 33.2653 37.3636 34.2617 38.9501 33.3848C43.9966 30.5904 43.1357 30.5904 43.7934 26.2654C44.2836 23.0165 45.7187 23.7421 47.3889 25.4123C51.2953 29.3148 52.3717 26.6799 51.2236 24.2404C50.7293 23.6026 50.1872 22.9847 49.6012 22.3987C44.3395 17.137 36.7855 15.5624 30.1524 17.675C29.0084 21.131 35.179 20.0111 26.6246 24.5992ZM35.7252 55.2293C36.0361 53.0409 38.2604 51.8131 36.7577 50.8643C34.3859 49.3695 31.9981 42.3458 28.7932 40.3287C27.4259 39.4677 26.1981 39.0651 27.2864 41.5046C27.7568 42.5569 28.2192 43.6771 27.5296 43.6372C24.8628 43.4857 21.7655 39.9459 22.4471 37.2274C23.5313 35.047 19.2462 30.7817 17.7274 29.9964C15.543 36.6694 17.0976 44.295 22.4032 49.5966C26.0865 53.2839 30.8939 55.1573 35.7252 55.2292V55.2293ZM51.8135 32.9624C51.4748 34.7123 52.3437 39.3443 49.1786 39.5755C47.8632 39.6672 44.9811 40.1376 44.6463 43.1951C44.2596 46.7747 46.0973 53.1008 49.6012 49.5969C54.4564 44.7417 56.1705 37.9332 54.7474 31.6948C53.2047 30.9454 52.1204 31.3678 51.8135 32.9624Z" fill="white"/>
</g>
<defs>
<clipPath id="clip0_0_151">
<rect width="72" height="72" fill="white"/>
</clipPath>
</defs>
</svg>
