<svg width="436" height="94" viewBox="0 0 436 94" fill="none" xmlns="http://www.w3.org/2000/svg">
<path d="M10.4747 35.7487L-0.000105281 4.03607H7.54366L15.0394 29.8867H15.664L23.2078 4.03607H30.6555L20.1326 35.7487H10.4747ZM42.9528 36.4214C40.4221 36.4214 38.1959 35.9249 36.2739 34.9319C34.3519 33.9068 32.8463 32.4173 31.7572 30.4633C30.6681 28.4772 30.1235 26.0107 30.1235 23.0637C30.1235 20.1166 30.6681 17.6661 31.7572 15.7121C32.8784 13.7581 34.3999 12.3006 36.3219 11.3396C38.2759 10.3466 40.4862 9.85006 42.9528 9.85006C45.4834 9.85006 47.7097 10.3466 49.6316 11.3396C51.5856 12.3326 53.1072 13.8221 54.1963 15.8082C55.3175 17.7622 55.8781 20.2127 55.8781 23.1598C55.8781 26.1388 55.3015 28.6214 54.1483 30.6074C53.0271 32.5614 51.4895 34.0189 49.5355 34.9799C47.6136 35.9409 45.4193 36.4214 42.9528 36.4214ZM43.193 31.2801C44.4423 31.2801 45.4834 30.9918 46.3162 30.4152C47.1811 29.8386 47.8218 28.9737 48.2382 27.8206C48.6867 26.6353 48.9109 25.2099 48.9109 23.5442C48.9109 21.7823 48.6706 20.2928 48.1901 19.0756C47.7417 17.8263 47.069 16.8813 46.1721 16.2406C45.2751 15.5679 44.138 15.2316 42.7606 15.2316C41.5753 15.2316 40.5503 15.5199 39.6854 16.0965C38.8205 16.641 38.1638 17.5059 37.7154 18.6912C37.2669 19.8443 37.0427 21.2698 37.0427 22.9676C37.0427 25.6904 37.5872 27.7565 38.6763 29.1659C39.7655 30.5754 41.271 31.2801 43.193 31.2801ZM59.8361 35.7487V10.5227H66.7553V35.7487H59.8361ZM63.3438 6.72684C61.9984 6.72684 60.9573 6.45456 60.2205 5.91C59.5158 5.3334 59.1634 4.50055 59.1634 3.41143C59.1634 2.29027 59.5158 1.4414 60.2205 0.864804C60.9573 0.28821 61.9984 -8.68738e-05 63.3438 -8.68738e-05C64.7212 -8.68738e-05 65.7622 0.28821 66.467 0.864804C67.2037 1.4414 67.5721 2.29027 67.5721 3.41143C67.5721 4.46851 67.2037 5.28535 66.467 5.86195C65.7622 6.43854 64.7212 6.72684 63.3438 6.72684ZM83.8774 36.4214C81.6992 36.4214 79.7932 36.1011 78.1595 35.4604C76.5258 34.8198 75.1644 33.9228 74.0753 32.7697C72.9862 31.6165 72.1693 30.2551 71.6248 28.6855C71.0802 27.0838 70.8079 25.338 70.8079 23.4481C70.8079 21.462 71.0802 19.6522 71.6248 18.0185C72.2014 16.3528 73.0342 14.9113 74.1234 13.694C75.2125 12.4768 76.5579 11.5318 78.1595 10.8591C79.7612 10.1864 81.587 9.85006 83.6371 9.85006C85.6873 9.85006 87.4651 10.1864 88.9706 10.8591C90.5082 11.5318 91.7415 12.4768 92.6705 13.694C93.6314 14.8792 94.2881 16.2887 94.6405 17.9224L88.2499 19.9885C88.1538 18.9955 87.8815 18.1466 87.4331 17.4419C87.0166 16.7051 86.44 16.1606 85.7033 15.8082C84.9986 15.4238 84.1977 15.2316 83.3008 15.2316C82.3718 15.2316 81.571 15.4238 80.8983 15.8082C80.2256 16.1606 79.649 16.6891 79.1685 17.3938C78.7201 18.0665 78.3677 18.8994 78.1115 19.8924C77.8872 20.8534 77.7751 21.9425 77.7751 23.1598C77.7751 24.8895 77.9993 26.3631 78.4478 27.5803C78.9283 28.7655 79.617 29.6785 80.5139 30.3191C81.4429 30.9278 82.5801 31.2321 83.9254 31.2321C85.2068 31.2321 86.2318 30.9918 87.0006 30.5113C87.7694 29.9988 88.33 29.3581 88.6823 28.5894C89.0667 27.7885 89.307 26.9717 89.4031 26.1388L95.4573 27.4842C95.2972 28.7335 94.9448 29.9027 94.4002 30.9918C93.8877 32.0809 93.1509 33.0259 92.19 33.8267C91.229 34.6276 90.0598 35.2682 88.6823 35.7487C87.337 36.1972 85.7353 36.4214 83.8774 36.4214ZM98.4559 35.7487V10.5227H105.375V35.7487H98.4559ZM101.964 6.72684C100.618 6.72684 99.5771 6.45456 98.8403 5.91C98.1356 5.3334 97.7832 4.50055 97.7832 3.41143C97.7832 2.29027 98.1356 1.4414 98.8403 0.864804C99.5771 0.28821 100.618 -8.68738e-05 101.964 -8.68738e-05C103.341 -8.68738e-05 104.382 0.28821 105.087 0.864804C105.823 1.4414 106.192 2.29027 106.192 3.41143C106.192 4.46851 105.823 5.28535 105.087 5.86195C104.382 6.43854 103.341 6.72684 101.964 6.72684ZM120.934 35.7487V20.469V10.5227H126.604L126.556 18.0665H127.517C127.933 16.2406 128.526 14.7191 129.295 13.5018C130.063 12.2846 131.024 11.3716 132.178 10.763C133.363 10.1544 134.756 9.85006 136.358 9.85006C139.273 9.85006 141.483 10.8751 142.989 12.9252C144.526 14.9753 145.295 18.1946 145.295 22.5832V35.7487H138.328V23.352C138.328 20.6612 137.928 18.7072 137.127 17.4899C136.358 16.2406 135.221 15.616 133.715 15.616C132.434 15.616 131.361 16.0164 130.496 16.8172C129.631 17.6181 128.974 18.6751 128.526 19.9885C128.109 21.2698 127.885 22.7113 127.853 24.313V35.7487H120.934ZM161.721 36.4214C159.191 36.4214 156.964 35.9249 155.042 34.9319C153.12 33.9068 151.615 32.4173 150.526 30.4633C149.437 28.4772 148.892 26.0107 148.892 23.0637C148.892 20.1166 149.437 17.6661 150.526 15.7121C151.647 13.7581 153.168 12.3006 155.09 11.3396C157.044 10.3466 159.255 9.85006 161.721 9.85006C164.252 9.85006 166.478 10.3466 168.4 11.3396C170.354 12.3326 171.876 13.8221 172.965 15.8082C174.086 17.7622 174.647 20.2127 174.647 23.1598C174.647 26.1388 174.07 28.6214 172.917 30.6074C171.796 32.5614 170.258 34.0189 168.304 34.9799C166.382 35.9409 164.188 36.4214 161.721 36.4214ZM161.962 31.2801C163.211 31.2801 164.252 30.9918 165.085 30.4152C165.95 29.8386 166.59 28.9737 167.007 27.8206C167.455 26.6353 167.679 25.2099 167.679 23.5442C167.679 21.7823 167.439 20.2928 166.959 19.0756C166.51 17.8263 165.838 16.8813 164.941 16.2406C164.044 15.5679 162.907 15.2316 161.529 15.2316C160.344 15.2316 159.319 15.5199 158.454 16.0965C157.589 16.641 156.932 17.5059 156.484 18.6912C156.035 19.8443 155.811 21.2698 155.811 22.9676C155.811 25.6904 156.356 27.7565 157.445 29.1659C158.534 30.5754 160.04 31.2801 161.962 31.2801ZM188.93 36.4214C187.232 36.4214 185.694 36.2613 184.317 35.9409C182.94 35.6206 181.754 35.1561 180.761 34.5475C179.768 33.9389 178.967 33.2181 178.359 32.3853C177.75 31.5204 177.35 30.5594 177.158 29.5023L182.443 27.3401C182.571 28.0448 182.924 28.7015 183.5 29.3101C184.077 29.9187 184.845 30.4152 185.806 30.7996C186.8 31.152 187.985 31.3282 189.362 31.3282C190.836 31.3282 191.973 31.12 192.774 30.7035C193.574 30.2551 193.975 29.6304 193.975 28.8296C193.975 28.221 193.751 27.7405 193.302 27.3881C192.854 27.0358 192.197 26.7314 191.332 26.4752C190.467 26.2189 189.426 25.9787 188.209 25.7544C187.024 25.4661 185.806 25.1618 184.557 24.8415C183.34 24.5212 182.203 24.0727 181.146 23.4961C180.121 22.9195 179.272 22.1667 178.599 21.2378C177.958 20.2768 177.638 19.0595 177.638 17.586C177.638 16.0484 178.055 14.7031 178.887 13.5499C179.72 12.3967 180.937 11.4998 182.539 10.8591C184.141 10.1864 186.095 9.85006 188.401 9.85006C190.483 9.85006 192.309 10.1384 193.879 10.7149C195.448 11.2595 196.73 12.0603 197.723 13.1174C198.748 14.1425 199.437 15.3757 199.789 16.8172L194.167 18.6912C194.039 17.9224 193.719 17.2497 193.206 16.6731C192.726 16.0965 192.069 15.664 191.236 15.3757C190.435 15.0874 189.49 14.9433 188.401 14.9433C187.024 14.9433 185.951 15.1675 185.182 15.616C184.445 16.0645 184.077 16.6571 184.077 17.3938C184.077 18.0025 184.317 18.499 184.797 18.8834C185.31 19.2678 186.015 19.5881 186.912 19.8443C187.809 20.0686 188.866 20.3088 190.083 20.5651C191.364 20.8214 192.613 21.1257 193.831 21.478C195.048 21.7984 196.137 22.2308 197.098 22.7754C198.091 23.3199 198.876 24.0407 199.453 24.9376C200.029 25.8345 200.317 26.9877 200.317 28.3972C200.317 30.0629 199.869 31.5044 198.972 32.7216C198.075 33.9068 196.778 34.8198 195.08 35.4604C193.382 36.1011 191.332 36.4214 188.93 36.4214ZM223.305 36.4214C221.191 36.4214 219.333 35.8769 217.731 34.7877C216.162 33.6986 214.944 32.161 214.079 30.175C213.215 28.1889 212.782 25.8345 212.782 23.1117C212.782 20.5491 213.167 18.2747 213.935 16.2887C214.704 14.3026 215.841 12.749 217.347 11.6279C218.852 10.5067 220.726 9.94616 222.969 9.94616C224.602 9.94616 225.98 10.2505 227.101 10.8591C228.222 11.4677 229.135 12.3646 229.84 13.5499C230.576 14.7031 231.153 16.0965 231.569 17.7302H232.675C232.45 16.7051 232.242 15.7121 232.05 14.7511C231.89 13.7581 231.762 12.8131 231.666 11.9162C231.569 11.0193 231.521 10.2345 231.521 9.56176V1.39335H238.441V23.352V35.7487H232.675V28.4452H231.714C231.361 30.2391 230.817 31.7286 230.08 32.9138C229.343 34.099 228.398 34.9799 227.245 35.5565C226.124 36.1331 224.811 36.4214 223.305 36.4214ZM225.611 30.7516C226.668 30.7516 227.565 30.5273 228.302 30.0789C229.039 29.6304 229.647 29.0538 230.128 28.3491C230.608 27.6123 230.961 26.8275 231.185 25.9947C231.409 25.1298 231.521 24.329 231.521 23.5922V22.6793C231.521 22.0706 231.425 21.446 231.233 20.8053C231.073 20.1326 230.833 19.476 230.512 18.8353C230.192 18.1946 229.792 17.6341 229.311 17.1536C228.831 16.641 228.27 16.2406 227.629 15.9523C226.989 15.664 226.284 15.5199 225.515 15.5199C224.362 15.5199 223.385 15.8402 222.584 16.4809C221.783 17.1215 221.159 18.0185 220.71 19.1717C220.262 20.2928 220.038 21.6062 220.038 23.1117C220.038 24.6493 220.262 25.9947 220.71 27.1479C221.191 28.3011 221.847 29.198 222.68 29.8386C223.513 30.4473 224.49 30.7516 225.611 30.7516ZM243.854 35.7487V10.5227H250.774V35.7487H243.854ZM247.362 6.72684C246.017 6.72684 244.976 6.45456 244.239 5.91C243.534 5.3334 243.182 4.50055 243.182 3.41143C243.182 2.29027 243.534 1.4414 244.239 0.864804C244.976 0.28821 246.017 -8.68738e-05 247.362 -8.68738e-05C248.739 -8.68738e-05 249.78 0.28821 250.485 0.864804C251.222 1.4414 251.59 2.29027 251.59 3.41143C251.59 4.46851 251.222 5.28535 250.485 5.86195C249.78 6.43854 248.739 6.72684 247.362 6.72684ZM258.142 35.7487V19.6041H254.153V14.5109L260.88 14.7992V13.8862C259.759 13.6299 258.83 13.2295 258.094 12.685C257.389 12.1084 256.876 11.4197 256.556 10.6188C256.236 9.81802 256.075 8.96915 256.075 8.07222C256.075 6.69481 256.428 5.50959 257.133 4.51656C257.837 3.49151 258.83 2.7067 260.112 2.16214C261.393 1.58555 262.898 1.29725 264.628 1.29725C266.102 1.29725 267.431 1.48945 268.616 1.87384C269.834 2.22621 270.811 2.67467 271.547 3.21923L271.115 9.46566C270.346 8.9211 269.481 8.47264 268.52 8.12027C267.559 7.76791 266.646 7.59173 265.781 7.59173C264.82 7.59173 264.02 7.84799 263.379 8.36052C262.77 8.87305 262.466 9.70591 262.466 10.8591C262.466 11.6599 262.626 12.3006 262.947 12.7811C263.299 13.2295 263.715 13.5659 264.196 13.7901C264.708 13.9823 265.205 14.1104 265.685 14.1745H271.451V19.6041H264.869V35.7487H258.142ZM277.123 35.7487V19.6041H273.135V14.5109L279.862 14.7992V13.8862C278.741 13.6299 277.812 13.2295 277.075 12.685C276.37 12.1084 275.858 11.4197 275.537 10.6188C275.217 9.81802 275.057 8.96915 275.057 8.07222C275.057 6.69481 275.409 5.50959 276.114 4.51656C276.819 3.49151 277.812 2.7067 279.093 2.16214C280.374 1.58555 281.88 1.29725 283.61 1.29725C285.083 1.29725 286.413 1.48945 287.598 1.87384C288.815 2.22621 289.792 2.67467 290.529 3.21923L290.096 9.46566C289.328 8.9211 288.463 8.47264 287.502 8.12027C286.541 7.76791 285.628 7.59173 284.763 7.59173C283.802 7.59173 283.001 7.84799 282.36 8.36052C281.752 8.87305 281.447 9.70591 281.447 10.8591C281.447 11.6599 281.608 12.3006 281.928 12.7811C282.28 13.2295 282.697 13.5659 283.177 13.7901C283.69 13.9823 284.186 14.1104 284.667 14.1745H290.433V19.6041H283.85V35.7487H277.123ZM305.156 36.4214C303.074 36.4214 301.216 36.1331 299.582 35.5565C297.98 34.9799 296.619 34.1471 295.498 33.058C294.377 31.9688 293.512 30.6234 292.903 29.0218C292.327 27.4201 292.038 25.6103 292.038 23.5922C292.038 21.6062 292.311 19.7803 292.855 18.1146C293.432 16.4168 294.265 14.9593 295.354 13.7421C296.443 12.4928 297.772 11.5318 299.342 10.8591C300.911 10.1864 302.689 9.85006 304.675 9.85006C306.597 9.85006 308.311 10.1704 309.817 10.811C311.322 11.4197 312.571 12.3486 313.564 13.5979C314.589 14.8472 315.326 16.3848 315.775 18.2107C316.255 20.0045 316.431 22.0706 316.303 24.409L296.507 24.6012V20.8053L312.315 20.6612L309.865 22.5832C310.089 20.8854 309.977 19.492 309.528 18.4029C309.08 17.3137 308.423 16.5129 307.558 16.0004C306.725 15.4879 305.796 15.2316 304.771 15.2316C303.554 15.2316 302.481 15.5519 301.552 16.1926C300.623 16.8332 299.902 17.7782 299.39 19.0275C298.877 20.2448 298.621 21.7183 298.621 23.4481C298.621 26.1709 299.214 28.1729 300.399 29.4542C301.616 30.7356 303.202 31.3762 305.156 31.3762C306.053 31.3762 306.805 31.2641 307.414 31.0399C308.055 30.7836 308.567 30.4633 308.952 30.0789C309.368 29.6945 309.688 29.262 309.913 28.7816C310.169 28.3011 310.377 27.8206 310.537 27.3401L316.543 28.6374C316.255 29.8226 315.823 30.8957 315.246 31.8567C314.702 32.7857 313.965 33.6025 313.036 34.3072C312.107 34.9799 310.986 35.4925 309.672 35.8448C308.391 36.2292 306.886 36.4214 305.156 36.4214ZM320.39 35.7487V23.5442V10.5227H326.108L326.156 19.1236H327.069C327.325 16.9774 327.758 15.2316 328.366 13.8862C329.007 12.5408 329.888 11.5478 331.009 10.9071C332.13 10.2665 333.524 9.94616 335.189 9.94616C335.478 9.94616 335.782 9.96217 336.102 9.99421C336.455 9.99421 336.855 10.0423 337.303 10.1384L337.015 17.4899C336.535 17.2657 336.006 17.1055 335.43 17.0094C334.853 16.9133 334.34 16.8653 333.892 16.8653C332.643 16.8653 331.57 17.1536 330.673 17.7302C329.776 18.3068 329.039 19.1396 328.462 20.2287C327.918 21.2858 327.549 22.5832 327.357 24.1208V35.7487H320.39ZM351.893 36.4214C349.811 36.4214 347.953 36.1331 346.32 35.5565C344.718 34.9799 343.356 34.1471 342.235 33.058C341.114 31.9688 340.249 30.6234 339.641 29.0218C339.064 27.4201 338.776 25.6103 338.776 23.5922C338.776 21.6062 339.048 19.7803 339.593 18.1146C340.169 16.4168 341.002 14.9593 342.091 13.7421C343.18 12.4928 344.51 11.5318 346.079 10.8591C347.649 10.1864 349.427 9.85006 351.413 9.85006C353.335 9.85006 355.049 10.1704 356.554 10.811C358.06 11.4197 359.309 12.3486 360.302 13.5979C361.327 14.8472 362.064 16.3848 362.512 18.2107C362.993 20.0045 363.169 22.0706 363.041 24.409L343.244 24.6012V20.8053L359.053 20.6612L356.602 22.5832C356.826 20.8854 356.714 19.492 356.266 18.4029C355.817 17.3137 355.161 16.5129 354.296 16.0004C353.463 15.4879 352.534 15.2316 351.509 15.2316C350.292 15.2316 349.219 15.5519 348.29 16.1926C347.361 16.8332 346.64 17.7782 346.127 19.0275C345.615 20.2448 345.359 21.7183 345.359 23.4481C345.359 26.1709 345.951 28.1729 347.136 29.4542C348.354 30.7356 349.939 31.3762 351.893 31.3762C352.79 31.3762 353.543 31.2641 354.152 31.0399C354.792 30.7836 355.305 30.4633 355.689 30.0789C356.106 29.6945 356.426 29.262 356.65 28.7816C356.906 28.3011 357.115 27.8206 357.275 27.3401L363.281 28.6374C362.993 29.8226 362.56 30.8957 361.984 31.8567C361.439 32.7857 360.702 33.6025 359.773 34.3072C358.844 34.9799 357.723 35.4925 356.41 35.8448C355.129 36.2292 353.623 36.4214 351.893 36.4214ZM367.128 35.7487V20.469V10.5227H372.797L372.749 18.0665H373.71C374.127 16.2406 374.719 14.7191 375.488 13.5018C376.257 12.2846 377.218 11.3716 378.371 10.763C379.556 10.1544 380.95 9.85006 382.551 9.85006C385.466 9.85006 387.677 10.8751 389.182 12.9252C390.72 14.9753 391.489 18.1946 391.489 22.5832V35.7487H384.521V23.352C384.521 20.6612 384.121 18.7072 383.32 17.4899C382.551 16.2406 381.414 15.616 379.909 15.616C378.627 15.616 377.554 16.0164 376.689 16.8172C375.825 17.6181 375.168 18.6751 374.719 19.9885C374.303 21.2698 374.079 22.7113 374.047 24.313V35.7487H367.128ZM405.755 36.3253C402.936 36.3253 400.854 35.5886 399.508 34.115C398.195 32.6095 397.538 30.223 397.538 26.9557V15.9523H393.887L393.983 10.5227H396.529C397.522 10.5227 398.259 10.3786 398.74 10.0903C399.22 9.80201 399.508 9.27346 399.605 8.50467L400.229 4.90096H404.169V10.5227H410.56V16.1445H404.169V26.6674C404.169 27.8206 404.441 28.6534 404.986 29.1659C405.531 29.6785 406.363 29.9347 407.485 29.9347C408.093 29.9347 408.67 29.8707 409.214 29.7425C409.791 29.6144 410.288 29.4062 410.704 29.1179V35.5565C409.711 35.8769 408.798 36.0851 407.965 36.1812C407.132 36.2773 406.396 36.3253 405.755 36.3253ZM424.612 36.4214C422.915 36.4214 421.377 36.2613 420 35.9409C418.622 35.6206 417.437 35.1561 416.444 34.5475C415.451 33.9389 414.65 33.2181 414.042 32.3853C413.433 31.5204 413.032 30.5594 412.84 29.5023L418.126 27.3401C418.254 28.0448 418.606 28.7015 419.183 29.3101C419.759 29.9187 420.528 30.4152 421.489 30.7996C422.482 31.152 423.667 31.3282 425.045 31.3282C426.518 31.3282 427.656 31.12 428.456 30.7035C429.257 30.2551 429.658 29.6304 429.658 28.8296C429.658 28.221 429.433 27.7405 428.985 27.3881C428.536 27.0358 427.88 26.7314 427.015 26.4752C426.15 26.2189 425.109 25.9787 423.892 25.7544C422.706 25.4661 421.489 25.1618 420.24 24.8415C419.023 24.5212 417.885 24.0727 416.828 23.4961C415.803 22.9195 414.954 22.1667 414.282 21.2378C413.641 20.2768 413.321 19.0595 413.321 17.586C413.321 16.0484 413.737 14.7031 414.57 13.5499C415.403 12.3967 416.62 11.4998 418.222 10.8591C419.823 10.1864 421.777 9.85006 424.084 9.85006C426.166 9.85006 427.992 10.1384 429.561 10.7149C431.131 11.2595 432.412 12.0603 433.405 13.1174C434.431 14.1425 435.119 15.3757 435.472 16.8172L429.85 18.6912C429.722 17.9224 429.401 17.2497 428.889 16.6731C428.408 16.0965 427.752 15.664 426.919 15.3757C426.118 15.0874 425.173 14.9433 424.084 14.9433C422.706 14.9433 421.633 15.1675 420.865 15.616C420.128 16.0645 419.759 16.6571 419.759 17.3938C419.759 18.0025 420 18.499 420.48 18.8834C420.993 19.2678 421.697 19.5881 422.594 19.8443C423.491 20.0686 424.548 20.3088 425.766 20.5651C427.047 20.8214 428.296 21.1257 429.513 21.478C430.731 21.7984 431.82 22.2308 432.781 22.7754C433.774 23.3199 434.559 24.0407 435.135 24.9376C435.712 25.8345 436 26.9877 436 28.3972C436 30.0629 435.552 31.5044 434.655 32.7216C433.758 33.9068 432.46 34.8198 430.763 35.4604C429.065 36.1011 427.015 36.4214 424.612 36.4214Z" fill="black"/>
<path d="M136.016 92.8075V61.0948H142.935V92.8075H136.016ZM139.331 80.9393V75.2694H157.83V80.9393H139.331ZM139.331 67.0049V61.0948H159.608V67.0049H139.331ZM163.248 92.8075V67.5815H170.167V92.8075H163.248ZM166.755 63.7856C165.41 63.7856 164.369 63.5133 163.632 62.9688C162.927 62.3922 162.575 61.5593 162.575 60.4702C162.575 59.349 162.927 58.5002 163.632 57.9236C164.369 57.347 165.41 57.0587 166.755 57.0587C168.133 57.0587 169.174 57.347 169.878 57.9236C170.615 58.5002 170.984 59.349 170.984 60.4702C170.984 61.5273 170.615 62.3441 169.878 62.9207C169.174 63.4973 168.133 63.7856 166.755 63.7856ZM175.613 92.8075V58.4521H182.436V92.8075H175.613ZM187.837 92.8075V58.4521H194.66V92.8075H187.837ZM205.972 93.4802C204.562 93.4802 203.313 93.2079 202.224 92.6633C201.135 92.0867 200.286 91.2699 199.677 90.2128C199.069 89.1557 198.764 87.8424 198.764 86.2728C198.764 84.8953 199.021 83.7421 199.533 82.8132C200.078 81.8842 200.863 81.1315 201.888 80.5549C202.913 79.9783 204.178 79.4978 205.684 79.1134C207.189 78.729 208.903 78.3926 210.825 78.1043C211.85 77.9442 212.683 77.8 213.323 77.6719C213.996 77.5117 214.493 77.2715 214.813 76.9512C215.133 76.5988 215.293 76.1023 215.293 75.4616C215.293 74.5647 214.973 73.7959 214.332 73.1552C213.692 72.5146 212.683 72.1943 211.305 72.1943C210.376 72.1943 209.512 72.3544 208.711 72.6748C207.942 72.9951 207.269 73.4756 206.693 74.1162C206.148 74.7569 205.748 75.5737 205.491 76.5668L199.389 74.6928C199.773 73.3795 200.318 72.2423 201.023 71.2813C201.76 70.3203 202.64 69.5195 203.666 68.8788C204.691 68.2061 205.86 67.7096 207.173 67.3893C208.486 67.069 209.912 66.9088 211.45 66.9088C213.916 66.9088 215.918 67.3092 217.456 68.1101C219.025 68.8788 220.195 70.0961 220.963 71.7618C221.732 73.3955 222.117 75.5097 222.117 78.1043V82.4288C222.117 83.5499 222.133 84.6871 222.165 85.8403C222.229 86.9935 222.293 88.1627 222.357 89.3479C222.453 90.5011 222.549 91.6543 222.645 92.8075H216.543C216.415 92.0067 216.286 91.0937 216.158 90.0687C216.062 89.0116 215.982 87.9545 215.918 86.8974H215.053C214.605 88.1147 213.964 89.2198 213.131 90.2128C212.298 91.2058 211.273 92.0067 210.056 92.6153C208.871 93.1919 207.509 93.4802 205.972 93.4802ZM208.903 88.483C209.512 88.483 210.12 88.3709 210.729 88.1467C211.369 87.9225 211.978 87.6181 212.555 87.2337C213.163 86.8173 213.708 86.3048 214.188 85.6962C214.701 85.0875 215.117 84.3988 215.438 83.63L215.342 79.5939L216.447 79.8341C215.87 80.2506 215.197 80.5869 214.429 80.8432C213.66 81.0674 212.859 81.2436 212.026 81.3717C211.225 81.4998 210.424 81.644 209.624 81.8042C208.823 81.9643 208.102 82.1725 207.461 82.4288C206.853 82.6851 206.356 83.0374 205.972 83.4859C205.62 83.9023 205.443 84.4949 205.443 85.2637C205.443 86.2567 205.764 87.0415 206.404 87.6181C207.045 88.1947 207.878 88.483 208.903 88.483ZM227.208 92.8075V67.5815H234.127V92.8075H227.208ZM230.715 63.7856C229.37 63.7856 228.329 63.5133 227.592 62.9688C226.888 62.3922 226.535 61.5593 226.535 60.4702C226.535 59.349 226.888 58.5002 227.592 57.9236C228.329 57.347 229.37 57.0587 230.715 57.0587C232.093 57.0587 233.134 57.347 233.839 57.9236C234.575 58.5002 234.944 59.349 234.944 60.4702C234.944 61.5273 234.575 62.3441 233.839 62.9207C233.134 63.4973 232.093 63.7856 230.715 63.7856ZM239.573 92.8075V58.4521H246.396V92.8075H239.573ZM251.798 92.8075V58.4521H258.621V92.8075H251.798ZM275.746 93.4802C273.664 93.4802 271.806 93.1919 270.172 92.6153C268.571 92.0387 267.209 91.2058 266.088 90.1167C264.967 89.0276 264.102 87.6822 263.493 86.0806C262.917 84.4789 262.629 82.669 262.629 80.651C262.629 78.6649 262.901 76.839 263.445 75.1733C264.022 73.4756 264.855 72.0181 265.944 70.8008C267.033 69.5515 268.363 68.5905 269.932 67.9179C271.502 67.2452 273.28 66.9088 275.266 66.9088C277.188 66.9088 278.901 67.2291 280.407 67.8698C281.912 68.4784 283.162 69.4074 284.155 70.6567C285.18 71.906 285.917 73.4435 286.365 75.2694C286.846 77.0633 287.022 79.1294 286.894 81.4678L267.097 81.66V77.8641L282.905 77.7199L280.455 79.6419C280.679 77.9442 280.567 76.5507 280.119 75.4616C279.67 74.3725 279.013 73.5717 278.149 73.0591C277.316 72.5466 276.387 72.2904 275.362 72.2904C274.144 72.2904 273.071 72.6107 272.142 73.2513C271.213 73.892 270.493 74.837 269.98 76.0863C269.468 77.3035 269.211 78.777 269.211 80.5068C269.211 83.2296 269.804 85.2317 270.989 86.513C272.206 87.7943 273.792 88.435 275.746 88.435C276.643 88.435 277.396 88.3229 278.004 88.0986C278.645 87.8424 279.158 87.522 279.542 87.1376C279.958 86.7532 280.279 86.3208 280.503 85.8403C280.759 85.3598 280.967 84.8793 281.128 84.3988L287.134 85.6962C286.846 86.8814 286.413 87.9545 285.836 88.9155C285.292 89.8444 284.555 90.6613 283.626 91.366C282.697 92.0387 281.576 92.5512 280.263 92.9036C278.981 93.288 277.476 93.4802 275.746 93.4802ZM301.352 93.4802C299.655 93.4802 298.117 93.32 296.74 92.9997C295.362 92.6794 294.177 92.2149 293.184 91.6062C292.191 90.9976 291.39 90.2769 290.781 89.444C290.173 88.5791 289.772 87.6181 289.58 86.5611L294.866 84.3988C294.994 85.1035 295.346 85.7602 295.923 86.3689C296.499 86.9775 297.268 87.474 298.229 87.8584C299.222 88.2107 300.407 88.3869 301.785 88.3869C303.258 88.3869 304.395 88.1787 305.196 87.7623C305.997 87.3138 306.398 86.6892 306.398 85.8884C306.398 85.2797 306.173 84.7992 305.725 84.4469C305.276 84.0945 304.62 83.7902 303.755 83.5339C302.89 83.2777 301.849 83.0374 300.632 82.8132C299.446 82.5249 298.229 82.2206 296.98 81.9003C295.763 81.5799 294.625 81.1315 293.568 80.5549C292.543 79.9783 291.694 79.2255 291.022 78.2965C290.381 77.3356 290.061 76.1183 290.061 74.6448C290.061 73.1072 290.477 71.7618 291.31 70.6086C292.143 69.4554 293.36 68.5585 294.962 67.9179C296.563 67.2452 298.517 66.9088 300.824 66.9088C302.906 66.9088 304.732 67.1971 306.301 67.7737C307.871 68.3183 309.152 69.1191 310.145 70.1762C311.17 71.2012 311.859 72.4345 312.212 73.876L306.59 75.7499C306.462 74.9811 306.141 74.3084 305.629 73.7318C305.148 73.1552 304.492 72.7228 303.659 72.4345C302.858 72.1462 301.913 72.0021 300.824 72.0021C299.446 72.0021 298.373 72.2263 297.604 72.6748C296.868 73.1232 296.499 73.7158 296.499 74.4526C296.499 75.0612 296.74 75.5577 297.22 75.9421C297.733 76.3265 298.437 76.6468 299.334 76.9031C300.231 77.1273 301.288 77.3676 302.506 77.6238C303.787 77.8801 305.036 78.1844 306.253 78.5368C307.471 78.8571 308.56 79.2896 309.521 79.8341C310.514 80.3787 311.299 81.0994 311.875 81.9964C312.452 82.8933 312.74 84.0465 312.74 85.4559C312.74 87.1216 312.292 88.5631 311.395 89.7804C310.498 90.9656 309.2 91.8785 307.503 92.5192C305.805 93.1598 303.755 93.4802 301.352 93.4802Z" fill="url(#paint0_linear_324_1614)"/>
<defs>
<linearGradient id="paint0_linear_324_1614" x1="131.482" y1="105.821" x2="442.461" y2="129.851" gradientUnits="userSpaceOnUse">
<stop stop-color="#00ACEE"/>
<stop offset="1" stop-color="#011B26"/>
</linearGradient>
</defs>
</svg>
