<svg width="551" height="79" viewBox="0 0 551 79" fill="none" xmlns="http://www.w3.org/2000/svg">
<path d="M0.259375 28.3715V3.92608H7.22261L18.2971 21.2231H18.7045L18.3712 3.92608H23.5566V28.3715H17.26L5.55588 10.2597H5.14846L5.4818 28.3715H0.259375ZM37.5346 28.89C35.5839 28.89 33.8678 28.5073 32.3862 27.7418C30.9047 26.9517 29.7441 25.8035 28.9046 24.2973C28.0651 22.7663 27.6453 20.865 27.6453 18.5933C27.6453 16.3216 28.0651 14.4327 28.9046 12.9264C29.7688 11.4202 30.9417 10.2967 32.4233 9.55594C33.9295 8.79047 35.6333 8.40774 37.5346 8.40774C39.4853 8.40774 41.2014 8.79047 42.6829 9.55594C44.1892 10.3214 45.362 11.4696 46.2016 13.0005C47.0658 14.5067 47.4979 16.3957 47.4979 18.6674C47.4979 20.9638 47.0535 22.8774 46.1645 24.4084C45.3003 25.9146 44.1151 27.0381 42.6089 27.7789C41.1273 28.5196 39.4359 28.89 37.5346 28.89ZM37.7198 24.9269C38.6828 24.9269 39.4853 24.7047 40.1273 24.2602C40.794 23.8158 41.2878 23.1491 41.6088 22.2601C41.9545 21.3465 42.1274 20.2477 42.1274 18.9637C42.1274 17.6056 41.9422 16.4574 41.5718 15.5191C41.2261 14.5561 40.7075 13.8277 40.0162 13.3339C39.3248 12.8153 38.4482 12.5561 37.3864 12.5561C36.4728 12.5561 35.6827 12.7783 35.016 13.2227C34.3493 13.6425 33.8431 14.3092 33.4974 15.2228C33.1517 16.1118 32.9788 17.2106 32.9788 18.5193C32.9788 20.6181 33.3986 22.2108 34.2381 23.2972C35.0777 24.3837 36.2382 24.9269 37.7198 24.9269ZM59.2487 28.89C57.94 28.89 56.7548 28.7666 55.693 28.5196C54.6312 28.2727 53.7176 27.9147 52.9521 27.4455C52.1867 26.9764 51.5694 26.4208 51.1002 25.7788C50.6311 25.1121 50.3224 24.3713 50.1743 23.5565L54.2485 21.8898C54.3473 22.433 54.6189 22.9392 55.0633 23.4083C55.5078 23.8775 56.1004 24.2602 56.8412 24.5565C57.6066 24.8281 58.5203 24.964 59.582 24.964C60.7179 24.964 61.5945 24.8035 62.2118 24.4825C62.8291 24.1368 63.1377 23.6553 63.1377 23.038C63.1377 22.5688 62.9649 22.1984 62.6192 21.9268C62.2735 21.6552 61.7673 21.4206 61.1006 21.2231C60.4339 21.0255 59.6314 20.8403 58.6931 20.6675C57.7795 20.4453 56.8412 20.2107 55.8782 19.9638C54.9399 19.7168 54.0633 19.3711 53.2484 18.9267C52.4583 18.4822 51.8039 17.9019 51.2854 17.1859C50.7916 16.4451 50.5446 15.5068 50.5446 14.3709C50.5446 13.1857 50.8656 12.1486 51.5076 11.2597C52.1496 10.3708 53.0879 9.6794 54.3226 9.18555C55.5572 8.66701 57.0634 8.40774 58.8413 8.40774C60.4463 8.40774 61.8537 8.62997 63.0637 9.07443C64.2736 9.4942 65.2613 10.1115 66.0267 10.9264C66.8169 11.7165 67.3478 12.6672 67.6194 13.7783L63.2859 15.2228C63.1871 14.6302 62.9402 14.1117 62.5451 13.6672C62.1747 13.2227 61.6685 12.8894 61.0265 12.6672C60.4092 12.4449 59.6808 12.3338 58.8413 12.3338C57.7795 12.3338 56.9523 12.5067 56.3597 12.8524C55.7918 13.1981 55.5078 13.6549 55.5078 14.2228C55.5078 14.6919 55.693 15.0747 56.0634 15.371C56.4585 15.6673 57.0017 15.9142 57.6931 16.1117C58.3845 16.2846 59.1993 16.4698 60.1376 16.6673C61.1253 16.8649 62.0883 17.0994 63.0266 17.3711C63.9649 17.618 64.8045 17.9513 65.5452 18.3711C66.3107 18.7909 66.9157 19.3464 67.3601 20.0378C67.8046 20.7292 68.0268 21.6181 68.0268 22.7046C68.0268 23.9886 67.6811 25.0998 66.9897 26.0381C66.2983 26.9517 65.2983 27.6554 63.9896 28.1493C62.6809 28.6431 61.1006 28.89 59.2487 28.89ZM87.9318 28.89C86.6231 28.89 85.4379 28.7666 84.3761 28.5196C83.3144 28.2727 82.4007 27.9147 81.6353 27.4455C80.8698 26.9764 80.2525 26.4208 79.7834 25.7788C79.3142 25.1121 79.0055 24.3713 78.8574 23.5565L82.9316 21.8898C83.0304 22.433 83.302 22.9392 83.7465 23.4083C84.1909 23.8775 84.7835 24.2602 85.5243 24.5565C86.2898 24.8281 87.2034 24.964 88.2652 24.964C89.401 24.964 90.2776 24.8035 90.8949 24.4825C91.5122 24.1368 91.8209 23.6553 91.8209 23.038C91.8209 22.5688 91.648 22.1984 91.3023 21.9268C90.9566 21.6552 90.4504 21.4206 89.7837 21.2231C89.1171 21.0255 88.3146 20.8403 87.3762 20.6675C86.4626 20.4453 85.5243 20.2107 84.5613 19.9638C83.623 19.7168 82.7464 19.3711 81.9316 18.9267C81.1414 18.4822 80.4871 17.9019 79.9685 17.1859C79.4747 16.4451 79.2278 15.5068 79.2278 14.3709C79.2278 13.1857 79.5488 12.1486 80.1908 11.2597C80.8328 10.3708 81.7711 9.6794 83.0057 9.18555C84.2403 8.66701 85.7466 8.40774 87.5244 8.40774C89.1294 8.40774 90.5369 8.62997 91.7468 9.07443C92.9567 9.4942 93.9444 10.1115 94.7099 10.9264C95.5 11.7165 96.0309 12.6672 96.3025 13.7783L91.969 15.2228C91.8702 14.6302 91.6233 14.1117 91.2282 13.6672C90.8579 13.2227 90.3517 12.8894 89.7097 12.6672C89.0924 12.4449 88.3639 12.3338 87.5244 12.3338C86.4626 12.3338 85.6354 12.5067 85.0428 12.8524C84.4749 13.1981 84.1909 13.6549 84.1909 14.2228C84.1909 14.6919 84.3761 15.0747 84.7465 15.371C85.1416 15.6673 85.6848 15.9142 86.3762 16.1117C87.0676 16.2846 87.8824 16.4698 88.8207 16.6673C89.8084 16.8649 90.7714 17.0994 91.7097 17.3711C92.6481 17.618 93.4876 17.9513 94.2284 18.3711C94.9938 18.7909 95.5988 19.3464 96.0433 20.0378C96.4877 20.7292 96.7099 21.6181 96.7099 22.7046C96.7099 23.9886 96.3643 25.0998 95.6729 26.0381C94.9815 26.9517 93.9814 27.6554 92.6728 28.1493C91.3641 28.6431 89.7837 28.89 87.9318 28.89ZM109.369 28.89C107.418 28.89 105.702 28.5073 104.221 27.7418C102.739 26.9517 101.579 25.8035 100.739 24.2973C99.8995 22.7663 99.4797 20.865 99.4797 18.5933C99.4797 16.3216 99.8995 14.4327 100.739 12.9264C101.603 11.4202 102.776 10.2967 104.258 9.55594C105.764 8.79047 107.468 8.40774 109.369 8.40774C111.32 8.40774 113.036 8.79047 114.517 9.55594C116.024 10.3214 117.196 11.4696 118.036 13.0005C118.9 14.5067 119.332 16.3957 119.332 18.6674C119.332 20.9638 118.888 22.8774 117.999 24.4084C117.135 25.9146 115.95 27.0381 114.443 27.7789C112.962 28.5196 111.27 28.89 109.369 28.89ZM109.554 24.9269C110.517 24.9269 111.32 24.7047 111.962 24.2602C112.628 23.8158 113.122 23.1491 113.443 22.2601C113.789 21.3465 113.962 20.2477 113.962 18.9637C113.962 17.6056 113.777 16.4574 113.406 15.5191C113.061 14.5561 112.542 13.8277 111.851 13.3339C111.159 12.8153 110.283 12.5561 109.221 12.5561C108.307 12.5561 107.517 12.7783 106.85 13.2227C106.184 13.6425 105.678 14.3092 105.332 15.2228C104.986 16.1118 104.813 17.2106 104.813 18.5193C104.813 20.6181 105.233 22.2108 106.073 23.2972C106.912 24.3837 108.073 24.9269 109.554 24.9269ZM123.124 28.3715V1.88897H128.384V28.3715H123.124ZM139.881 28.89C137.609 28.89 135.893 28.1246 134.733 26.5936C133.597 25.038 133.029 22.6799 133.029 19.5193V8.92628H138.362V18.8526C138.362 20.7539 138.646 22.1737 139.214 23.112C139.782 24.0256 140.646 24.4825 141.807 24.4825C142.498 24.4825 143.103 24.3096 143.622 23.9639C144.14 23.6182 144.585 23.1367 144.955 22.5194C145.326 21.9021 145.597 21.1737 145.77 20.3341C145.968 19.4946 146.079 18.5933 146.103 17.6303V8.92628H151.437V20.4453V28.3715H147.14L147.103 22.2972H146.437C146.066 23.8281 145.597 25.0874 145.029 26.0751C144.486 27.0381 143.782 27.7542 142.918 28.2233C142.079 28.6678 141.066 28.89 139.881 28.89ZM163.551 28.816C161.378 28.816 159.773 28.248 158.736 27.1122C157.724 25.9516 157.218 24.1121 157.218 21.5934V13.1116H154.403L154.477 8.92628H156.44C157.205 8.92628 157.773 8.81516 158.144 8.59293C158.514 8.3707 158.736 7.96328 158.81 7.37066L159.292 4.59278H162.329V8.92628H167.255V13.2598H162.329V21.3712C162.329 22.2601 162.539 22.9021 162.959 23.2972C163.378 23.6923 164.02 23.8898 164.885 23.8898C165.354 23.8898 165.798 23.8405 166.218 23.7417C166.662 23.6429 167.045 23.4824 167.366 23.2602V28.2233C166.601 28.4703 165.897 28.6308 165.255 28.7048C164.613 28.7789 164.045 28.816 163.551 28.816ZM171.05 28.3715V8.92628H176.384V28.3715H171.05ZM173.754 6.00024C172.717 6.00024 171.914 5.79035 171.346 5.37058C170.803 4.92612 170.531 4.28412 170.531 3.44458C170.531 2.58035 170.803 1.926 171.346 1.48154C171.914 1.03708 172.717 0.814849 173.754 0.814849C174.816 0.814849 175.618 1.03708 176.161 1.48154C176.729 1.926 177.013 2.58035 177.013 3.44458C177.013 4.25943 176.729 4.88908 176.161 5.33355C175.618 5.77801 174.816 6.00024 173.754 6.00024ZM190.138 28.89C188.187 28.89 186.471 28.5073 184.989 27.7418C183.508 26.9517 182.347 25.8035 181.508 24.2973C180.668 22.7663 180.248 20.865 180.248 18.5933C180.248 16.3216 180.668 14.4327 181.508 12.9264C182.372 11.4202 183.545 10.2967 185.026 9.55594C186.532 8.79047 188.236 8.40774 190.138 8.40774C192.088 8.40774 193.804 8.79047 195.286 9.55594C196.792 10.3214 197.965 11.4696 198.805 13.0005C199.669 14.5067 200.101 16.3957 200.101 18.6674C200.101 20.9638 199.656 22.8774 198.768 24.4084C197.903 25.9146 196.718 27.0381 195.212 27.7789C193.73 28.5196 192.039 28.89 190.138 28.89ZM190.323 24.9269C191.286 24.9269 192.088 24.7047 192.73 24.2602C193.397 23.8158 193.891 23.1491 194.212 22.2601C194.557 21.3465 194.73 20.2477 194.73 18.9637C194.73 17.6056 194.545 16.4574 194.175 15.5191C193.829 14.5561 193.311 13.8277 192.619 13.3339C191.928 12.8153 191.051 12.5561 189.989 12.5561C189.076 12.5561 188.286 12.7783 187.619 13.2227C186.952 13.6425 186.446 14.3092 186.1 15.2228C185.755 16.1118 185.582 17.2106 185.582 18.5193C185.582 20.6181 186.002 22.2108 186.841 23.2972C187.681 24.3837 188.841 24.9269 190.323 24.9269ZM203.893 28.3715V16.5933V8.92628H208.263L208.226 14.7413H208.967C209.288 13.3339 209.745 12.161 210.337 11.2227C210.93 10.2844 211.671 9.58063 212.56 9.11147C213.473 8.64232 214.547 8.40774 215.782 8.40774C218.029 8.40774 219.733 9.1979 220.893 10.7782C222.079 12.3585 222.671 14.8401 222.671 18.2229V28.3715H217.301V18.8156C217.301 16.7414 216.992 15.2352 216.375 14.2969C215.782 13.3339 214.905 12.8524 213.745 12.8524C212.757 12.8524 211.93 13.161 211.263 13.7783C210.597 14.3956 210.09 15.2105 209.745 16.2229C209.424 17.2106 209.251 18.3217 209.226 19.5563V28.3715H203.893ZM235.037 28.89C233.728 28.89 232.543 28.7666 231.481 28.5196C230.419 28.2727 229.506 27.9147 228.74 27.4455C227.975 26.9764 227.358 26.4208 226.888 25.7788C226.419 25.1121 226.111 24.3713 225.962 23.5565L230.037 21.8898C230.135 22.433 230.407 22.9392 230.852 23.4083C231.296 23.8775 231.889 24.2602 232.629 24.5565C233.395 24.8281 234.308 24.964 235.37 24.964C236.506 24.964 237.383 24.8035 238 24.4825C238.617 24.1368 238.926 23.6553 238.926 23.038C238.926 22.5688 238.753 22.1984 238.407 21.9268C238.062 21.6552 237.556 21.4206 236.889 21.2231C236.222 21.0255 235.42 20.8403 234.481 20.6675C233.568 20.4453 232.629 20.2107 231.666 19.9638C230.728 19.7168 229.851 19.3711 229.037 18.9267C228.246 18.4822 227.592 17.9019 227.074 17.1859C226.58 16.4451 226.333 15.5068 226.333 14.3709C226.333 13.1857 226.654 12.1486 227.296 11.2597C227.938 10.3708 228.876 9.6794 230.111 9.18555C231.345 8.66701 232.852 8.40774 234.629 8.40774C236.234 8.40774 237.642 8.62997 238.852 9.07443C240.062 9.4942 241.049 10.1115 241.815 10.9264C242.605 11.7165 243.136 12.6672 243.408 13.7783L239.074 15.2228C238.975 14.6302 238.728 14.1117 238.333 13.6672C237.963 13.2227 237.457 12.8894 236.815 12.6672C236.197 12.4449 235.469 12.3338 234.629 12.3338C233.568 12.3338 232.74 12.5067 232.148 12.8524C231.58 13.1981 231.296 13.6549 231.296 14.2228C231.296 14.6919 231.481 15.0747 231.852 15.371C232.247 15.6673 232.79 15.9142 233.481 16.1117C234.173 16.2846 234.987 16.4698 235.926 16.6673C236.914 16.8649 237.877 17.0994 238.815 17.3711C239.753 17.618 240.593 17.9513 241.333 18.3711C242.099 18.7909 242.704 19.3464 243.148 20.0378C243.593 20.7292 243.815 21.6181 243.815 22.7046C243.815 23.9886 243.469 25.0998 242.778 26.0381C242.087 26.9517 241.087 27.6554 239.778 28.1493C238.469 28.6431 236.889 28.89 235.037 28.89ZM257.423 28.3715V15.9266H254.349V12.0005L259.535 12.2227V11.519C258.67 11.3214 257.954 11.0128 257.386 10.593C256.843 10.1486 256.448 9.61767 256.201 9.00036C255.954 8.38305 255.831 7.7287 255.831 7.03732C255.831 5.97555 256.102 5.06193 256.646 4.29647C257.189 3.50631 257.954 2.90135 258.942 2.48158C259.93 2.03712 261.09 1.81489 262.424 1.81489C263.56 1.81489 264.584 1.96304 265.498 2.25935C266.436 2.53097 267.189 2.87666 267.757 3.29643L267.424 8.11143C266.831 7.69166 266.165 7.34597 265.424 7.07435C264.683 6.80274 263.979 6.66693 263.313 6.66693C262.572 6.66693 261.955 6.86447 261.461 7.25955C260.992 7.65463 260.757 8.29663 260.757 9.18555C260.757 9.80286 260.88 10.2967 261.127 10.6671C261.399 11.0128 261.72 11.2721 262.09 11.4449C262.485 11.5931 262.868 11.6918 263.239 11.7412H267.683V15.9266H262.609V28.3715H257.423ZM270.772 28.3715V8.92628H276.105V28.3715H270.772ZM273.476 6.00024C272.439 6.00024 271.636 5.79035 271.068 5.37058C270.525 4.92612 270.253 4.28412 270.253 3.44458C270.253 2.58035 270.525 1.926 271.068 1.48154C271.636 1.03708 272.439 0.814849 273.476 0.814849C274.537 0.814849 275.34 1.03708 275.883 1.48154C276.451 1.926 276.735 2.58035 276.735 3.44458C276.735 4.25943 276.451 4.88908 275.883 5.33355C275.34 5.77801 274.537 6.00024 273.476 6.00024ZM281.044 28.3715V16.5933V8.92628H285.415L285.378 14.7413H286.118C286.439 13.3339 286.896 12.161 287.489 11.2227C288.082 10.2844 288.822 9.58063 289.711 9.11147C290.625 8.64232 291.699 8.40774 292.934 8.40774C295.181 8.40774 296.884 9.1979 298.045 10.7782C299.23 12.3585 299.823 14.8401 299.823 18.2229V28.3715H294.452V18.8156C294.452 16.7414 294.143 15.2352 293.526 14.2969C292.934 13.3339 292.057 12.8524 290.896 12.8524C289.909 12.8524 289.082 13.161 288.415 13.7783C287.748 14.3956 287.242 15.2105 286.896 16.2229C286.575 17.2106 286.402 18.3217 286.378 19.5563V28.3715H281.044ZM308.966 28.89C307.88 28.89 306.917 28.6801 306.077 28.2604C305.237 27.8159 304.583 27.1863 304.114 26.3714C303.645 25.5566 303.41 24.5442 303.41 23.3343C303.41 22.2725 303.608 21.3836 304.003 20.6675C304.423 19.9514 305.028 19.3711 305.818 18.9267C306.608 18.4822 307.583 18.1118 308.744 17.8155C309.904 17.5192 311.225 17.2599 312.707 17.0377C313.497 16.9143 314.139 16.8031 314.633 16.7044C315.151 16.5809 315.534 16.3957 315.781 16.1488C316.028 15.8772 316.151 15.4944 316.151 15.0006C316.151 14.3092 315.905 13.7166 315.411 13.2227C314.917 12.7289 314.139 12.482 313.077 12.482C312.361 12.482 311.695 12.6054 311.077 12.8524C310.485 13.0993 309.966 13.4697 309.522 13.9635C309.102 14.4574 308.793 15.087 308.596 15.8525L303.892 14.408C304.188 13.3956 304.608 12.519 305.151 11.7782C305.719 11.0375 306.398 10.4202 307.188 9.92632C307.978 9.40778 308.88 9.02505 309.892 8.77813C310.904 8.5312 312.003 8.40774 313.188 8.40774C315.09 8.40774 316.633 8.7164 317.818 9.33371C319.028 9.92632 319.929 10.8646 320.522 12.1486C321.115 13.4079 321.411 15.0376 321.411 17.0377V20.3712C321.411 21.2354 321.423 22.112 321.448 23.0009C321.497 23.8898 321.547 24.7911 321.596 25.7047C321.67 26.5936 321.744 27.4826 321.818 28.3715H317.114C317.016 27.7542 316.917 27.0505 316.818 26.2603C316.744 25.4455 316.682 24.6306 316.633 23.8158H315.966C315.621 24.7541 315.127 25.606 314.485 26.3714C313.843 27.1369 313.053 27.7542 312.114 28.2233C311.201 28.6678 310.151 28.89 308.966 28.89ZM311.225 25.038C311.695 25.038 312.164 24.9516 312.633 24.7788C313.127 24.6059 313.596 24.3713 314.04 24.075C314.509 23.754 314.929 23.359 315.3 22.8898C315.695 22.4206 316.016 21.8898 316.263 21.2971L316.189 18.1859L317.04 18.3711C316.596 18.6921 316.077 18.9514 315.485 19.1489C314.892 19.3218 314.275 19.4576 313.633 19.5563C313.016 19.6551 312.398 19.7662 311.781 19.8897C311.164 20.0131 310.608 20.1736 310.114 20.3712C309.645 20.5687 309.262 20.8403 308.966 21.186C308.694 21.507 308.559 21.9638 308.559 22.5564C308.559 23.3219 308.806 23.9269 309.299 24.3713C309.793 24.8158 310.435 25.038 311.225 25.038ZM326.076 28.3715V16.5933V8.92628H330.447L330.41 14.7413H331.151C331.472 13.3339 331.928 12.161 332.521 11.2227C333.114 10.2844 333.854 9.58063 334.743 9.11147C335.657 8.64232 336.731 8.40774 337.966 8.40774C340.213 8.40774 341.916 9.1979 343.077 10.7782C344.262 12.3585 344.855 14.8401 344.855 18.2229V28.3715H339.484V18.8156C339.484 16.7414 339.176 15.2352 338.558 14.2969C337.966 13.3339 337.089 12.8524 335.929 12.8524C334.941 12.8524 334.114 13.161 333.447 13.7783C332.78 14.3956 332.274 15.2105 331.928 16.2229C331.607 17.2106 331.435 18.3217 331.41 19.5563V28.3715H326.076ZM358.443 28.89C356.764 28.89 355.295 28.6431 354.035 28.1493C352.776 27.6554 351.726 26.964 350.887 26.0751C350.047 25.1862 349.418 24.1368 348.998 22.9268C348.578 21.6922 348.368 20.3465 348.368 18.8896C348.368 17.3587 348.578 15.9636 348.998 14.7043C349.442 13.4203 350.084 12.3091 350.924 11.3708C351.764 10.4325 352.801 9.70409 354.035 9.18555C355.27 8.66701 356.677 8.40774 358.258 8.40774C359.838 8.40774 361.208 8.66701 362.369 9.18555C363.554 9.70409 364.505 10.4325 365.221 11.3708C365.962 12.2844 366.468 13.3709 366.739 14.6302L361.813 16.2229C361.739 15.4574 361.529 14.8031 361.184 14.2598C360.863 13.6919 360.418 13.2721 359.85 13.0005C359.307 12.7042 358.69 12.5561 357.998 12.5561C357.282 12.5561 356.665 12.7042 356.146 13.0005C355.628 13.2721 355.183 13.6796 354.813 14.2228C354.467 14.7413 354.196 15.3833 353.998 16.1488C353.825 16.8896 353.739 17.7291 353.739 18.6674C353.739 20.0008 353.912 21.1366 354.257 22.0749C354.628 22.9886 355.159 23.6923 355.85 24.1861C356.566 24.6553 357.443 24.8899 358.48 24.8899C359.468 24.8899 360.258 24.7047 360.85 24.3343C361.443 23.9392 361.875 23.4454 362.147 22.8528C362.443 22.2354 362.628 21.6058 362.702 20.9638L367.369 22.0009C367.246 22.9639 366.974 23.8651 366.554 24.7047C366.159 25.5442 365.591 26.2726 364.85 26.89C364.11 27.5073 363.208 28.0011 362.147 28.3715C361.11 28.7172 359.875 28.89 358.443 28.89ZM370.421 28.3715V8.92628H375.755V28.3715H370.421ZM373.125 6.00024C372.088 6.00024 371.286 5.79035 370.718 5.37058C370.174 4.92612 369.903 4.28412 369.903 3.44458C369.903 2.58035 370.174 1.926 370.718 1.48154C371.286 1.03708 372.088 0.814849 373.125 0.814849C374.187 0.814849 374.989 1.03708 375.533 1.48154C376.101 1.926 376.384 2.58035 376.384 3.44458C376.384 4.25943 376.101 4.88908 375.533 5.33355C374.989 5.77801 374.187 6.00024 373.125 6.00024ZM389.731 28.89C388.126 28.89 386.694 28.6678 385.435 28.2233C384.2 27.7789 383.151 27.1369 382.286 26.2973C381.422 25.4578 380.755 24.4207 380.286 23.1861C379.842 21.9515 379.62 20.5564 379.62 19.0008C379.62 17.4698 379.829 16.0624 380.249 14.7784C380.694 13.4697 381.336 12.3462 382.175 11.4079C383.015 10.4449 384.039 9.70409 385.249 9.18555C386.459 8.66701 387.83 8.40774 389.361 8.40774C390.842 8.40774 392.163 8.65466 393.324 9.14851C394.484 9.61767 395.447 10.3337 396.213 11.2967C397.003 12.2597 397.571 13.445 397.917 14.8524C398.287 16.2352 398.423 17.8279 398.324 19.6304L383.064 19.7786V16.8525L395.25 16.7414L393.361 18.2229C393.534 16.9143 393.447 15.8401 393.102 15.0006C392.756 14.1611 392.25 13.5437 391.583 13.1487C390.941 12.7536 390.225 12.5561 389.435 12.5561C388.496 12.5561 387.669 12.803 386.953 13.2968C386.237 13.7907 385.682 14.5191 385.286 15.4821C384.891 16.4204 384.694 17.5563 384.694 18.8896C384.694 20.9885 385.151 22.5318 386.064 23.5195C387.003 24.5071 388.225 25.001 389.731 25.001C390.422 25.001 391.003 24.9146 391.472 24.7417C391.966 24.5442 392.361 24.2973 392.657 24.001C392.978 23.7046 393.225 23.3713 393.398 23.0009C393.595 22.6305 393.756 22.2601 393.879 21.8898L398.509 22.8898C398.287 23.8034 397.954 24.6306 397.509 25.3714C397.089 26.0875 396.521 26.7171 395.805 27.2603C395.089 27.7789 394.225 28.174 393.213 28.4456C392.225 28.7419 391.064 28.89 389.731 28.89ZM387.546 6.25951L383.546 1.67067e-06H388.842L391.583 6.25951H387.546ZM402.215 28.3715V18.9637V8.92628H406.623L406.66 15.5562H407.363C407.561 13.9018 407.894 12.5561 408.363 11.519C408.857 10.4819 409.536 9.71644 410.401 9.22259C411.265 8.72874 412.339 8.48182 413.623 8.48182C413.845 8.48182 414.08 8.49417 414.327 8.51886C414.598 8.51886 414.907 8.5559 415.253 8.62997L415.03 14.2969C414.66 14.124 414.253 14.0006 413.808 13.9265C413.364 13.8524 412.969 13.8154 412.623 13.8154C411.66 13.8154 410.833 14.0376 410.141 14.4821C409.45 14.9265 408.882 15.5685 408.438 16.4081C408.018 17.2229 407.734 18.2229 407.586 19.4082V28.3715H402.215ZM427.24 28.89C425.635 28.89 424.203 28.6678 422.943 28.2233C421.709 27.7789 420.659 27.1369 419.795 26.2973C418.931 25.4578 418.264 24.4207 417.795 23.1861C417.351 21.9515 417.128 20.5564 417.128 19.0008C417.128 17.4698 417.338 16.0624 417.758 14.7784C418.202 13.4697 418.844 12.3462 419.684 11.4079C420.523 10.4449 421.548 9.70409 422.758 9.18555C423.968 8.66701 425.338 8.40774 426.869 8.40774C428.351 8.40774 429.672 8.65466 430.833 9.14851C431.993 9.61767 432.956 10.3337 433.722 11.2967C434.512 12.2597 435.08 13.445 435.425 14.8524C435.796 16.2352 435.931 17.8279 435.833 19.6304L420.573 19.7786V16.8525L432.759 16.7414L430.87 18.2229C431.042 16.9143 430.956 15.8401 430.61 15.0006C430.265 14.1611 429.758 13.5437 429.092 13.1487C428.45 12.7536 427.734 12.5561 426.943 12.5561C426.005 12.5561 425.178 12.803 424.462 13.2968C423.746 13.7907 423.19 14.5191 422.795 15.4821C422.4 16.4204 422.203 17.5563 422.203 18.8896C422.203 20.9885 422.659 22.5318 423.573 23.5195C424.511 24.5071 425.734 25.001 427.24 25.001C427.931 25.001 428.511 24.9146 428.981 24.7417C429.474 24.5442 429.87 24.2973 430.166 24.001C430.487 23.7046 430.734 23.3713 430.907 23.0009C431.104 22.6305 431.265 22.2601 431.388 21.8898L436.018 22.8898C435.796 23.8034 435.462 24.6306 435.018 25.3714C434.598 26.0875 434.03 26.7171 433.314 27.2603C432.598 27.7789 431.734 28.174 430.721 28.4456C429.734 28.7419 428.573 28.89 427.24 28.89ZM447.719 28.89C446.41 28.89 445.225 28.7666 444.163 28.5196C443.101 28.2727 442.188 27.9147 441.422 27.4455C440.657 26.9764 440.04 26.4208 439.57 25.7788C439.101 25.1121 438.793 24.3713 438.644 23.5565L442.719 21.8898C442.817 22.433 443.089 22.9392 443.534 23.4083C443.978 23.8775 444.571 24.2602 445.311 24.5565C446.077 24.8281 446.99 24.964 448.052 24.964C449.188 24.964 450.065 24.8035 450.682 24.4825C451.299 24.1368 451.608 23.6553 451.608 23.038C451.608 22.5688 451.435 22.1984 451.089 21.9268C450.744 21.6552 450.238 21.4206 449.571 21.2231C448.904 21.0255 448.102 20.8403 447.163 20.6675C446.25 20.4453 445.311 20.2107 444.348 19.9638C443.41 19.7168 442.534 19.3711 441.719 18.9267C440.929 18.4822 440.274 17.9019 439.756 17.1859C439.262 16.4451 439.015 15.5068 439.015 14.3709C439.015 13.1857 439.336 12.1486 439.978 11.2597C440.62 10.3708 441.558 9.6794 442.793 9.18555C444.027 8.66701 445.534 8.40774 447.311 8.40774C448.916 8.40774 450.324 8.62997 451.534 9.07443C452.744 9.4942 453.731 10.1115 454.497 10.9264C455.287 11.7165 455.818 12.6672 456.09 13.7783L451.756 15.2228C451.657 14.6302 451.41 14.1117 451.015 13.6672C450.645 13.2227 450.139 12.8894 449.497 12.6672C448.879 12.4449 448.151 12.3338 447.311 12.3338C446.25 12.3338 445.423 12.5067 444.83 12.8524C444.262 13.1981 443.978 13.6549 443.978 14.2228C443.978 14.6919 444.163 15.0747 444.534 15.371C444.929 15.6673 445.472 15.9142 446.163 16.1117C446.855 16.2846 447.67 16.4698 448.608 16.6673C449.596 16.8649 450.559 17.0994 451.497 17.3711C452.435 17.618 453.275 17.9513 454.015 18.3711C454.781 18.7909 455.386 19.3464 455.83 20.0378C456.275 20.7292 456.497 21.6181 456.497 22.7046C456.497 23.9886 456.151 25.0998 455.46 26.0381C454.769 26.9517 453.769 27.6554 452.46 28.1493C451.151 28.6431 449.571 28.89 447.719 28.89ZM468.624 34.594V18.8156V8.92628H473.032L473.069 14.3339L473.735 14.3709C473.957 13.0622 474.34 11.9634 474.883 11.0745C475.451 10.1856 476.18 9.5189 477.069 9.07443C477.958 8.62997 478.982 8.40774 480.143 8.40774C481.871 8.40774 483.353 8.83986 484.588 9.70409C485.822 10.5436 486.76 11.7412 487.402 13.2968C488.069 14.8277 488.403 16.6426 488.403 18.7415C488.403 20.6922 488.106 22.433 487.514 23.9639C486.921 25.4701 486.032 26.6677 484.847 27.5566C483.686 28.4456 482.229 28.89 480.476 28.89C479.242 28.89 478.192 28.6555 477.328 28.1863C476.488 27.7171 475.785 27.0628 475.217 26.2233C474.674 25.359 474.217 24.3343 473.846 23.1491H473.143C473.291 23.8158 473.427 24.4948 473.55 25.1862C473.674 25.8776 473.772 26.5566 473.846 27.2233C473.92 27.8653 473.957 28.495 473.957 29.1123V34.594H468.624ZM478.624 24.6306C479.513 24.6306 480.266 24.3837 480.884 23.8898C481.501 23.396 481.97 22.7046 482.291 21.8157C482.637 20.9268 482.81 19.9144 482.81 18.7785C482.81 17.5439 482.637 16.4945 482.291 15.6302C481.945 14.7413 481.452 14.0499 480.81 13.5561C480.168 13.0622 479.402 12.8153 478.513 12.8153C477.723 12.8153 477.044 12.9882 476.476 13.3339C475.908 13.6796 475.427 14.1364 475.032 14.7043C474.661 15.2722 474.39 15.8895 474.217 16.5562C474.044 17.1982 473.957 17.8155 473.957 18.4081V19.1119C473.957 19.581 474.019 20.0749 474.143 20.5934C474.266 21.0873 474.464 21.5811 474.735 22.0749C475.007 22.5441 475.328 22.9762 475.698 23.3713C476.069 23.7417 476.501 24.0503 476.995 24.2973C477.488 24.5195 478.032 24.6306 478.624 24.6306ZM501.167 28.89C499.216 28.89 497.5 28.5073 496.019 27.7418C494.537 26.9517 493.376 25.8035 492.537 24.2973C491.697 22.7663 491.278 20.865 491.278 18.5933C491.278 16.3216 491.697 14.4327 492.537 12.9264C493.401 11.4202 494.574 10.2967 496.056 9.55594C497.562 8.79047 499.266 8.40774 501.167 8.40774C503.118 8.40774 504.834 8.79047 506.315 9.55594C507.821 10.3214 508.994 11.4696 509.834 13.0005C510.698 14.5067 511.13 16.3957 511.13 18.6674C511.13 20.9638 510.686 22.8774 509.797 24.4084C508.933 25.9146 507.747 27.0381 506.241 27.7789C504.76 28.5196 503.068 28.89 501.167 28.89ZM501.352 24.9269C502.315 24.9269 503.118 24.7047 503.76 24.2602C504.426 23.8158 504.92 23.1491 505.241 22.2601C505.587 21.3465 505.76 20.2477 505.76 18.9637C505.76 17.6056 505.574 16.4574 505.204 15.5191C504.858 14.5561 504.34 13.8277 503.648 13.3339C502.957 12.8153 502.081 12.5561 501.019 12.5561C500.105 12.5561 499.315 12.7783 498.648 13.2227C497.982 13.6425 497.475 14.3092 497.13 15.2228C496.784 16.1118 496.611 17.2106 496.611 18.5193C496.611 20.6181 497.031 22.2108 497.87 23.2972C498.71 24.3837 499.871 24.9269 501.352 24.9269ZM521.515 28.89C519.243 28.89 517.527 28.1246 516.367 26.5936C515.231 25.038 514.663 22.6799 514.663 19.5193V8.92628H519.996V18.8526C519.996 20.7539 520.28 22.1737 520.848 23.112C521.416 24.0256 522.28 24.4825 523.441 24.4825C524.132 24.4825 524.737 24.3096 525.256 23.9639C525.774 23.6182 526.219 23.1367 526.589 22.5194C526.96 21.9021 527.231 21.1737 527.404 20.3341C527.602 19.4946 527.713 18.5933 527.737 17.6303V8.92628H533.071V20.4453V28.3715H528.774L528.737 22.2972H528.071C527.7 23.8281 527.231 25.0874 526.663 26.0751C526.12 27.0381 525.416 27.7542 524.552 28.2233C523.713 28.6678 522.7 28.89 521.515 28.89ZM537.963 28.3715V18.9637V8.92628H542.37L542.407 15.5562H543.111C543.309 13.9018 543.642 12.5561 544.111 11.519C544.605 10.4819 545.284 9.71644 546.148 9.22259C547.012 8.72874 548.086 8.48182 549.37 8.48182C549.593 8.48182 549.827 8.49417 550.074 8.51886C550.346 8.51886 550.654 8.5559 551 8.62997L550.778 14.2969C550.408 14.124 550 14.0006 549.556 13.9265C549.111 13.8524 548.716 13.8154 548.37 13.8154C547.407 13.8154 546.58 14.0376 545.889 14.4821C545.197 14.9265 544.63 15.5685 544.185 16.4081C543.765 17.2229 543.481 18.2229 543.333 19.4082V28.3715H537.963Z" fill="black"/>
<path d="M0.000105565 78.6397V62.8613V52.9721H4.40769L4.44473 58.3797L5.11142 58.4167C5.33365 57.108 5.71638 56.0092 6.25961 55.1203C6.82754 54.2314 7.55596 53.5647 8.44488 53.1202C9.33381 52.6758 10.3585 52.4535 11.5191 52.4535C13.2475 52.4535 14.7291 52.8856 15.9637 53.7499C17.1983 54.5894 18.1366 55.787 18.7786 57.3426C19.4453 58.8735 19.7787 60.6884 19.7787 62.7873C19.7787 64.738 19.4824 66.4788 18.8897 68.0097C18.2971 69.5159 17.4082 70.7135 16.223 71.6024C15.0624 72.4914 13.6056 72.9358 11.8524 72.9358C10.6178 72.9358 9.56839 72.7012 8.70415 72.2321C7.86461 71.7629 7.16088 71.1086 6.59296 70.269C6.04973 69.4048 5.59292 68.3801 5.22253 67.1949H4.5188C4.66696 67.8615 4.80276 68.5406 4.92623 69.232C5.04969 69.9234 5.14846 70.6024 5.22253 71.2691C5.29661 71.9111 5.33365 72.5407 5.33365 73.158V78.6397H0.000105565ZM10.0005 68.6764C10.8894 68.6764 11.6425 68.4295 12.2598 67.9356C12.8772 67.4418 13.3463 66.7504 13.6673 65.8615C14.013 64.9725 14.1859 63.9602 14.1859 62.8243C14.1859 61.5897 14.013 60.5403 13.6673 59.676C13.3216 58.7871 12.8278 58.0957 12.1858 57.6019C11.5438 57.108 10.7783 56.8611 9.88939 56.8611C9.09923 56.8611 8.42019 57.034 7.85227 57.3796C7.28435 57.7253 6.80284 58.1821 6.40777 58.7501C6.03738 59.318 5.76577 59.9353 5.59292 60.602C5.42007 61.244 5.33365 61.8613 5.33365 62.4539V63.1577C5.33365 63.6268 5.39538 64.1207 5.51884 64.6392C5.6423 65.133 5.83984 65.6269 6.11146 66.1207C6.38307 66.5899 6.70407 67.022 7.07446 67.4171C7.44484 67.7875 7.87696 68.0961 8.37081 68.343C8.86465 68.5653 9.40789 68.6764 10.0005 68.6764ZM28.1751 72.9358C27.0887 72.9358 26.1257 72.7259 25.2861 72.3062C24.4466 71.8617 23.7922 71.232 23.3231 70.4172C22.8539 69.6024 22.6193 68.59 22.6193 67.38C22.6193 66.3183 22.8169 65.4293 23.212 64.7133C23.6317 63.9972 24.2367 63.4169 25.0268 62.9725C25.817 62.528 26.7923 62.1576 27.9529 61.8613C29.1134 61.565 30.4345 61.3057 31.916 61.0835C32.7062 60.96 33.3482 60.8489 33.842 60.7502C34.3605 60.6267 34.7433 60.4415 34.9902 60.1946C35.2371 59.923 35.3606 59.5402 35.3606 59.0464C35.3606 58.355 35.1137 57.7624 34.6198 57.2685C34.126 56.7747 33.3482 56.5278 32.2864 56.5278C31.5703 56.5278 30.9036 56.6512 30.2863 56.8981C29.6937 57.1451 29.1752 57.5155 28.7307 58.0093C28.3109 58.5031 28.0023 59.1328 27.8047 59.8983L23.1008 58.4538C23.3972 57.4414 23.8169 56.5648 24.3602 55.824C24.9281 55.0833 25.6071 54.466 26.3973 53.9721C27.1874 53.4536 28.0887 53.0708 29.1011 52.8239C30.1135 52.577 31.2123 52.4535 32.3975 52.4535C34.2988 52.4535 35.8421 52.7622 37.0273 53.3795C38.2372 53.9721 39.1385 54.9104 39.7311 56.1944C40.3237 57.4537 40.6201 59.0834 40.6201 61.0835V64.417C40.6201 65.2812 40.6324 66.1578 40.6571 67.0467C40.7065 67.9356 40.7559 68.8369 40.8052 69.7505C40.8793 70.6394 40.9534 71.5284 41.0275 72.4173H36.3236C36.2248 71.8 36.1261 71.0962 36.0273 70.3061C35.9532 69.4912 35.8915 68.6764 35.8421 67.8615H35.1754C34.8297 68.7999 34.3359 69.6517 33.6939 70.4172C33.0519 71.1827 32.2617 71.8 31.3234 72.2691C30.4098 72.7136 29.3604 72.9358 28.1751 72.9358ZM30.4345 69.0838C30.9036 69.0838 31.3728 68.9974 31.8419 68.8245C32.3358 68.6517 32.8049 68.4171 33.2494 68.1208C33.7185 67.7998 34.1383 67.4047 34.5087 66.9356C34.9038 66.4664 35.2248 65.9355 35.4717 65.3429L35.3976 62.2317L36.2495 62.4169C35.8051 62.7379 35.2865 62.9972 34.6939 63.1947C34.1013 63.3675 33.484 63.5033 32.842 63.6021C32.2247 63.7009 31.6074 63.812 30.99 63.9355C30.3727 64.0589 29.8172 64.2194 29.3233 64.417C28.8542 64.6145 28.4714 64.8861 28.1751 65.2318C27.9035 65.5528 27.7677 66.0096 27.7677 66.6022C27.7677 67.3677 28.0146 67.9727 28.5085 68.4171C29.0023 68.8616 29.6443 69.0838 30.4345 69.0838ZM45.2855 72.4173V63.0095V52.9721H49.693L49.7301 59.602H50.4338C50.6314 57.9476 50.9647 56.6018 51.4339 55.5648C51.9277 54.5277 52.6067 53.7622 53.471 53.2684C54.3352 52.7745 55.4093 52.5276 56.6933 52.5276C56.9155 52.5276 57.1501 52.54 57.3971 52.5646C57.6687 52.5646 57.9773 52.6017 58.323 52.6758L58.1008 58.3426C57.7304 58.1698 57.323 58.0463 56.8785 57.9723C56.434 57.8982 56.039 57.8611 55.6933 57.8611C54.7303 57.8611 53.9031 58.0834 53.2117 58.5278C52.5203 58.9723 51.9524 59.6143 51.5079 60.4538C51.0882 61.2687 50.8042 62.2687 50.656 63.454V72.4173H45.2855ZM69.2549 72.8617C67.0819 72.8617 65.4769 72.2938 64.4399 71.158C63.4275 69.9974 62.9213 68.1579 62.9213 65.6392V57.1574H60.1064L60.1804 52.9721H62.1435C62.9089 52.9721 63.4769 52.8609 63.8472 52.6387C64.2176 52.4165 64.4399 52.0091 64.5139 51.4164L64.9954 48.6386H68.0326V52.9721H72.9587V57.3056H68.0326V65.417C68.0326 66.3059 68.2425 66.9479 68.6623 67.343C69.082 67.7381 69.724 67.9356 70.5883 67.9356C71.0574 67.9356 71.5019 67.8862 71.9216 67.7875C72.3661 67.6887 72.7488 67.5282 73.0698 67.306V72.2691C72.3044 72.516 71.6006 72.6765 70.9586 72.7506C70.3166 72.8247 69.7487 72.8617 69.2549 72.8617ZM76.7537 72.4173V52.9721H82.0873V72.4173H76.7537ZM79.4575 50.046C78.4205 50.046 77.6179 49.8361 77.05 49.4164C76.5068 48.9719 76.2352 48.3299 76.2352 47.4904C76.2352 46.6261 76.5068 45.9718 77.05 45.5273C77.6179 45.0829 78.4205 44.8606 79.4575 44.8606C80.5193 44.8606 81.3218 45.0829 81.865 45.5273C82.433 45.9718 82.7169 46.6261 82.7169 47.4904C82.7169 48.3052 82.433 48.9349 81.865 49.3793C81.3218 49.8238 80.5193 50.046 79.4575 50.046ZM96.0265 72.9358C94.3474 72.9358 92.8782 72.6889 91.6189 72.195C90.3596 71.7012 89.3102 71.0098 88.4706 70.1209C87.6311 69.232 87.0014 68.1825 86.5817 66.9726C86.1619 65.738 85.952 64.3923 85.952 62.9354C85.952 61.4045 86.1619 60.0094 86.5817 58.7501C87.0261 57.4661 87.6681 56.3549 88.5077 55.4166C89.3472 54.4783 90.3843 53.7499 91.6189 53.2313C92.8535 52.7128 94.261 52.4535 95.8413 52.4535C97.4216 52.4535 98.792 52.7128 99.9526 53.2313C101.138 53.7499 102.088 54.4783 102.805 55.4166C103.545 56.3302 104.051 57.4167 104.323 58.676L99.397 60.2687C99.3229 59.5032 99.113 58.8488 98.7673 58.3056C98.4463 57.7377 98.0019 57.3179 97.4339 57.0463C96.8907 56.75 96.2734 56.6018 95.582 56.6018C94.8659 56.6018 94.2486 56.75 93.7301 57.0463C93.2115 57.3179 92.7671 57.7253 92.3967 58.2686C92.051 58.7871 91.7794 59.4291 91.5819 60.1946C91.409 60.9353 91.3226 61.7749 91.3226 62.7132C91.3226 64.0466 91.4954 65.1824 91.8411 66.1207C92.2115 67.0344 92.7424 67.7381 93.4338 68.2319C94.1499 68.7011 95.0264 68.9357 96.0635 68.9357C97.0512 68.9357 97.8414 68.7505 98.434 68.3801C99.0266 67.985 99.4587 67.4912 99.7303 66.8985C100.027 66.2812 100.212 65.6516 100.286 65.0096L104.953 66.0467C104.829 67.0097 104.558 67.9109 104.138 68.7505C103.743 69.59 103.175 70.3184 102.434 70.9357C101.693 71.553 100.792 72.0469 99.7303 72.4173C98.6932 72.763 97.4586 72.9358 96.0265 72.9358ZM114.598 72.9358C112.326 72.9358 110.61 72.1704 109.449 70.6394C108.314 69.0838 107.746 66.7257 107.746 63.5651V52.9721H113.079V62.8984C113.079 64.7997 113.363 66.2195 113.931 67.1578C114.499 68.0714 115.363 68.5282 116.524 68.5282C117.215 68.5282 117.82 68.3554 118.339 68.0097C118.857 67.664 119.302 67.1825 119.672 66.5652C120.042 65.9479 120.314 65.2195 120.487 64.3799C120.684 63.5404 120.796 62.6391 120.82 61.6761V52.9721H126.154V64.491V72.4173H121.857L121.82 66.343H121.154C120.783 67.8739 120.314 69.1332 119.746 70.1209C119.203 71.0839 118.499 71.8 117.635 72.2691C116.795 72.7136 115.783 72.9358 114.598 72.9358ZM131.046 72.4173V45.9347H136.305V72.4173H131.046ZM141.209 72.4173V52.9721H146.543V72.4173H141.209ZM143.913 50.046C142.876 50.046 142.074 49.8361 141.506 49.4164C140.962 48.9719 140.691 48.3299 140.691 47.4904C140.691 46.6261 140.962 45.9718 141.506 45.5273C142.074 45.0829 142.876 44.8606 143.913 44.8606C144.975 44.8606 145.777 45.0829 146.321 45.5273C146.889 45.9718 147.173 46.6261 147.173 47.4904C147.173 48.3052 146.889 48.9349 146.321 49.3793C145.777 49.8238 144.975 50.046 143.913 50.046ZM160.519 72.9358C158.914 72.9358 157.482 72.7136 156.223 72.2691C154.988 71.8247 153.939 71.1827 153.074 70.3431C152.21 69.5036 151.544 68.4665 151.074 67.2319C150.63 65.9973 150.408 64.6022 150.408 63.0465C150.408 61.5156 150.618 60.1081 151.037 58.8241C151.482 57.5155 152.124 56.392 152.963 55.4536C153.803 54.4906 154.828 53.7499 156.038 53.2313C157.247 52.7128 158.618 52.4535 160.149 52.4535C161.63 52.4535 162.951 52.7004 164.112 53.1943C165.272 53.6635 166.235 54.3795 167.001 55.3425C167.791 56.3055 168.359 57.4908 168.705 58.8982C169.075 60.281 169.211 61.8737 169.112 63.6762L153.852 63.8243V60.8983L166.038 60.7872L164.149 62.2687C164.322 60.96 164.235 59.8859 163.89 59.0464C163.544 58.2068 163.038 57.5895 162.371 57.1945C161.729 56.7994 161.013 56.6018 160.223 56.6018C159.285 56.6018 158.457 56.8488 157.741 57.3426C157.025 57.8365 156.47 58.5649 156.075 59.5279C155.679 60.4662 155.482 61.602 155.482 62.9354C155.482 65.0343 155.939 66.5775 156.852 67.5652C157.791 68.5529 159.013 69.0468 160.519 69.0468C161.211 69.0468 161.791 68.9604 162.26 68.7875C162.754 68.59 163.149 68.343 163.445 68.0467C163.766 67.7504 164.013 67.4171 164.186 67.0467C164.384 66.6763 164.544 66.3059 164.667 65.9355L169.297 66.9356C169.075 67.8492 168.742 68.6764 168.297 69.4172C167.877 70.1332 167.31 70.7629 166.593 71.3061C165.877 71.8247 165.013 72.2197 164.001 72.4914C163.013 72.7877 161.853 72.9358 160.519 72.9358ZM173.003 72.4173V63.0095V52.9721H177.411L177.448 59.602H178.152C178.349 57.9476 178.682 56.6018 179.152 55.5648C179.645 54.5277 180.324 53.7622 181.189 53.2684C182.053 52.7745 183.127 52.5276 184.411 52.5276C184.633 52.5276 184.868 52.54 185.115 52.5646C185.386 52.5646 185.695 52.6017 186.041 52.6758L185.819 58.3426C185.448 58.1698 185.041 58.0463 184.596 57.9723C184.152 57.8982 183.757 57.8611 183.411 57.8611C182.448 57.8611 181.621 58.0834 180.929 58.5278C180.238 58.9723 179.67 59.6143 179.226 60.4538C178.806 61.2687 178.522 62.2687 178.374 63.454V72.4173H173.003ZM196.805 72.9358C195.496 72.9358 194.311 72.8124 193.249 72.5654C192.187 72.3185 191.274 71.9605 190.508 71.4913C189.743 71.0222 189.125 70.4666 188.656 69.8246C188.187 69.1579 187.878 68.4171 187.73 67.6023L191.805 65.9355C191.903 66.4788 192.175 66.985 192.619 67.4541C193.064 67.9233 193.656 68.306 194.397 68.6023C195.163 68.8739 196.076 69.0097 197.138 69.0097C198.274 69.0097 199.151 68.8492 199.768 68.5282C200.385 68.1825 200.694 67.701 200.694 67.0837C200.694 66.6146 200.521 66.2442 200.175 65.9726C199.83 65.701 199.323 65.4664 198.657 65.2688C197.99 65.0713 197.187 64.8861 196.249 64.7133C195.336 64.491 194.397 64.2565 193.434 64.0095C192.496 63.7626 191.619 63.4169 190.805 62.9725C190.014 62.528 189.36 61.9477 188.841 61.2317C188.348 60.4909 188.101 59.5526 188.101 58.4167C188.101 57.2315 188.422 56.1944 189.064 55.3055C189.706 54.4166 190.644 53.7252 191.879 53.2313C193.113 52.7128 194.619 52.4535 196.397 52.4535C198.002 52.4535 199.41 52.6758 200.62 53.1202C201.83 53.54 202.817 54.1573 203.583 54.9721C204.373 55.7623 204.904 56.713 205.175 57.8241L200.842 59.2686C200.743 58.676 200.496 58.1575 200.101 57.713C199.731 57.2685 199.225 56.9352 198.583 56.713C197.965 56.4907 197.237 56.3796 196.397 56.3796C195.336 56.3796 194.508 56.5525 193.916 56.8981C193.348 57.2438 193.064 57.7006 193.064 58.2686C193.064 58.7377 193.249 59.1205 193.619 59.4168C194.015 59.7131 194.558 59.96 195.249 60.1575C195.941 60.3304 196.755 60.5156 197.694 60.7131C198.681 60.9107 199.644 61.1452 200.583 61.4168C201.521 61.6638 202.361 61.9971 203.101 62.4169C203.867 62.8367 204.472 63.3922 204.916 64.0836C205.361 64.775 205.583 65.6639 205.583 66.7504C205.583 68.0344 205.237 69.1455 204.546 70.0839C203.854 70.9975 202.854 71.7012 201.546 72.195C200.237 72.6889 198.657 72.9358 196.805 72.9358ZM226.747 72.9358C225.142 72.9358 223.71 72.7136 222.451 72.2691C221.216 71.8247 220.167 71.1827 219.302 70.3431C218.438 69.5036 217.772 68.4665 217.302 67.2319C216.858 65.9973 216.636 64.6022 216.636 63.0465C216.636 61.5156 216.846 60.1081 217.265 58.8241C217.71 57.5155 218.352 56.392 219.191 55.4536C220.031 54.4906 221.056 53.7499 222.266 53.2313C223.475 52.7128 224.846 52.4535 226.377 52.4535C227.858 52.4535 229.179 52.7004 230.34 53.1943C231.5 53.6635 232.463 54.3795 233.229 55.3425C234.019 56.3055 234.587 57.4908 234.933 58.8982C235.303 60.281 235.439 61.8737 235.34 63.6762L220.08 63.8243V60.8983L232.266 60.7872L230.377 62.2687C230.55 60.96 230.463 59.8859 230.118 59.0464C229.772 58.2068 229.266 57.5895 228.599 57.1945C227.957 56.7994 227.241 56.6018 226.451 56.6018C225.513 56.6018 224.685 56.8488 223.969 57.3426C223.253 57.8365 222.698 58.5649 222.303 59.5279C221.908 60.4662 221.71 61.602 221.71 62.9354C221.71 65.0343 222.167 66.5775 223.08 67.5652C224.019 68.5529 225.241 69.0468 226.747 69.0468C227.439 69.0468 228.019 68.9604 228.488 68.7875C228.982 68.59 229.377 68.343 229.673 68.0467C229.994 67.7504 230.241 67.4171 230.414 67.0467C230.612 66.6763 230.772 66.3059 230.896 65.9355L235.525 66.9356C235.303 67.8492 234.97 68.6764 234.525 69.4172C234.106 70.1332 233.538 70.7629 232.822 71.3061C232.105 71.8247 231.241 72.2197 230.229 72.4914C229.241 72.7877 228.081 72.9358 226.747 72.9358ZM246.454 72.8617C244.281 72.8617 242.676 72.2938 241.639 71.158C240.626 69.9974 240.12 68.1579 240.12 65.6392V57.1574H237.305L237.379 52.9721H239.342C240.108 52.9721 240.676 52.8609 241.046 52.6387C241.416 52.4165 241.639 52.0091 241.713 51.4164L242.194 48.6386H245.231V52.9721H250.158V57.3056H245.231V65.417C245.231 66.3059 245.441 66.9479 245.861 67.343C246.281 67.7381 246.923 67.9356 247.787 67.9356C248.256 67.9356 248.701 67.8862 249.12 67.7875C249.565 67.6887 249.948 67.5282 250.269 67.306V72.2691C249.503 72.516 248.799 72.6765 248.157 72.7506C247.515 72.8247 246.948 72.8617 246.454 72.8617ZM271.526 72.9358C269.921 72.9358 268.489 72.7136 267.23 72.2691C265.995 71.8247 264.946 71.1827 264.081 70.3431C263.217 69.5036 262.551 68.4665 262.081 67.2319C261.637 65.9973 261.415 64.6022 261.415 63.0465C261.415 61.5156 261.625 60.1081 262.044 58.8241C262.489 57.5155 263.131 56.392 263.97 55.4536C264.81 54.4906 265.835 53.7499 267.045 53.2313C268.254 52.7128 269.625 52.4535 271.156 52.4535C272.637 52.4535 273.958 52.7004 275.119 53.1943C276.279 53.6635 277.242 54.3795 278.008 55.3425C278.798 56.3055 279.366 57.4908 279.712 58.8982C280.082 60.281 280.218 61.8737 280.119 63.6762L264.859 63.8243V60.8983L277.045 60.7872L275.156 62.2687C275.329 60.96 275.242 59.8859 274.897 59.0464C274.551 58.2068 274.045 57.5895 273.378 57.1945C272.736 56.7994 272.02 56.6018 271.23 56.6018C270.292 56.6018 269.464 56.8488 268.748 57.3426C268.032 57.8365 267.477 58.5649 267.082 59.5279C266.686 60.4662 266.489 61.602 266.489 62.9354C266.489 65.0343 266.946 66.5775 267.859 67.5652C268.798 68.5529 270.02 69.0468 271.526 69.0468C272.218 69.0468 272.798 68.9604 273.267 68.7875C273.761 68.59 274.156 68.343 274.452 68.0467C274.773 67.7504 275.02 67.4171 275.193 67.0467C275.391 66.6763 275.551 66.3059 275.674 65.9355L280.304 66.9356C280.082 67.8492 279.749 68.6764 279.304 69.4172C278.884 70.1332 278.317 70.7629 277.6 71.3061C276.884 71.8247 276.02 72.2197 275.008 72.4914C274.02 72.7877 272.86 72.9358 271.526 72.9358ZM284.01 72.4173V60.639V52.9721H288.381L288.344 58.7871H289.084C289.405 57.3796 289.862 56.2068 290.455 55.2685C291.047 54.3301 291.788 53.6264 292.677 53.1573C293.591 52.6881 294.665 52.4535 295.9 52.4535C298.147 52.4535 299.85 53.2437 301.011 54.824C302.196 56.4043 302.789 58.8859 302.789 62.2687V72.4173H297.418V62.8613C297.418 60.7872 297.109 59.281 296.492 58.3426C295.9 57.3796 295.023 56.8981 293.862 56.8981C292.875 56.8981 292.048 57.2068 291.381 57.8241C290.714 58.4414 290.208 59.2563 289.862 60.2687C289.541 61.2563 289.368 62.3675 289.344 63.6021V72.4173H284.01ZM314.526 72.8617C312.353 72.8617 310.748 72.2938 309.711 71.158C308.699 69.9974 308.193 68.1579 308.193 65.6392V57.1574H305.378L305.452 52.9721H307.415C308.18 52.9721 308.748 52.8609 309.119 52.6387C309.489 52.4165 309.711 52.0091 309.785 51.4164L310.267 48.6386H313.304V52.9721H318.23V57.3056H313.304V65.417C313.304 66.3059 313.514 66.9479 313.934 67.343C314.354 67.7381 314.996 67.9356 315.86 67.9356C316.329 67.9356 316.773 67.8862 317.193 67.7875C317.638 67.6887 318.02 67.5282 318.341 67.306V72.2691C317.576 72.516 316.872 72.6765 316.23 72.7506C315.588 72.8247 315.02 72.8617 314.526 72.8617ZM322.025 72.4173V63.0095V52.9721H326.433L326.47 59.602H327.174C327.371 57.9476 327.705 56.6018 328.174 55.5648C328.668 54.5277 329.347 53.7622 330.211 53.2684C331.075 52.7745 332.149 52.5276 333.433 52.5276C333.655 52.5276 333.89 52.54 334.137 52.5646C334.408 52.5646 334.717 52.6017 335.063 52.6758L334.841 58.3426C334.47 58.1698 334.063 58.0463 333.618 57.9723C333.174 57.8982 332.779 57.8611 332.433 57.8611C331.47 57.8611 330.643 58.0834 329.952 58.5278C329.26 58.9723 328.692 59.6143 328.248 60.4538C327.828 61.2687 327.544 62.2687 327.396 63.454V72.4173H322.025ZM347.05 72.9358C345.445 72.9358 344.013 72.7136 342.754 72.2691C341.519 71.8247 340.469 71.1827 339.605 70.3431C338.741 69.5036 338.074 68.4665 337.605 67.2319C337.161 65.9973 336.938 64.6022 336.938 63.0465C336.938 61.5156 337.148 60.1081 337.568 58.8241C338.013 57.5155 338.655 56.392 339.494 55.4536C340.334 54.4906 341.358 53.7499 342.568 53.2313C343.778 52.7128 345.149 52.4535 346.68 52.4535C348.161 52.4535 349.482 52.7004 350.643 53.1943C351.803 53.6635 352.766 54.3795 353.532 55.3425C354.322 56.3055 354.89 57.4908 355.235 58.8982C355.606 60.281 355.742 61.8737 355.643 63.6762L340.383 63.8243V60.8983L352.569 60.7872L350.68 62.2687C350.853 60.96 350.766 59.8859 350.42 59.0464C350.075 58.2068 349.569 57.5895 348.902 57.1945C348.26 56.7994 347.544 56.6018 346.754 56.6018C345.815 56.6018 344.988 56.8488 344.272 57.3426C343.556 57.8365 343 58.5649 342.605 59.5279C342.21 60.4662 342.013 61.602 342.013 62.9354C342.013 65.0343 342.47 66.5775 343.383 67.5652C344.321 68.5529 345.544 69.0468 347.05 69.0468C347.741 69.0468 348.322 68.9604 348.791 68.7875C349.285 68.59 349.68 68.343 349.976 68.0467C350.297 67.7504 350.544 67.4171 350.717 67.0467C350.914 66.6763 351.075 66.3059 351.198 65.9355L355.828 66.9356C355.606 67.8492 355.273 68.6764 354.828 69.4172C354.408 70.1332 353.84 70.7629 353.124 71.3061C352.408 71.8247 351.544 72.2197 350.532 72.4914C349.544 72.7877 348.383 72.9358 347.05 72.9358ZM359.534 78.6397V62.8613V52.9721H363.942L363.979 58.3797L364.645 58.4167C364.868 57.108 365.25 56.0092 365.793 55.1203C366.361 54.2314 367.09 53.5647 367.979 53.1202C368.868 52.6758 369.892 52.4535 371.053 52.4535C372.781 52.4535 374.263 52.8856 375.498 53.7499C376.732 54.5894 377.671 55.787 378.313 57.3426C378.979 58.8735 379.313 60.6884 379.313 62.7873C379.313 64.738 379.016 66.4788 378.424 68.0097C377.831 69.5159 376.942 70.7135 375.757 71.6024C374.596 72.4914 373.139 72.9358 371.386 72.9358C370.152 72.9358 369.102 72.7012 368.238 72.2321C367.398 71.7629 366.695 71.1086 366.127 70.269C365.584 69.4048 365.127 68.3801 364.756 67.1949H364.053C364.201 67.8615 364.337 68.5406 364.46 69.232C364.584 69.9234 364.682 70.6024 364.756 71.2691C364.83 71.9111 364.868 72.5407 364.868 73.158V78.6397H359.534ZM369.534 68.6764C370.423 68.6764 371.176 68.4295 371.794 67.9356C372.411 67.4418 372.88 66.7504 373.201 65.8615C373.547 64.9725 373.72 63.9602 373.72 62.8243C373.72 61.5897 373.547 60.5403 373.201 59.676C372.856 58.7871 372.362 58.0957 371.72 57.6019C371.078 57.108 370.312 56.8611 369.423 56.8611C368.633 56.8611 367.954 57.034 367.386 57.3796C366.818 57.7253 366.337 58.1821 365.942 58.7501C365.571 59.318 365.3 59.9353 365.127 60.602C364.954 61.244 364.868 61.8613 364.868 62.4539V63.1577C364.868 63.6268 364.929 64.1207 365.053 64.6392C365.176 65.133 365.374 65.6269 365.645 66.1207C365.917 66.5899 366.238 67.022 366.608 67.4171C366.979 67.7875 367.411 68.0961 367.905 68.343C368.399 68.5653 368.942 68.6764 369.534 68.6764ZM383.153 72.4173V63.0095V52.9721H387.561L387.598 59.602H388.302C388.499 57.9476 388.833 56.6018 389.302 55.5648C389.796 54.5277 390.475 53.7622 391.339 53.2684C392.203 52.7745 393.277 52.5276 394.561 52.5276C394.783 52.5276 395.018 52.54 395.265 52.5646C395.536 52.5646 395.845 52.6017 396.191 52.6758L395.969 58.3426C395.598 58.1698 395.191 58.0463 394.746 57.9723C394.302 57.8982 393.907 57.8611 393.561 57.8611C392.598 57.8611 391.771 58.0834 391.08 58.5278C390.388 58.9723 389.82 59.6143 389.376 60.4538C388.956 61.2687 388.672 62.2687 388.524 63.454V72.4173H383.153ZM399.213 72.4173V52.9721H404.546V72.4173H399.213ZM401.917 50.046C400.88 50.046 400.077 49.8361 399.509 49.4164C398.966 48.9719 398.694 48.3299 398.694 47.4904C398.694 46.6261 398.966 45.9718 399.509 45.5273C400.077 45.0829 400.88 44.8606 401.917 44.8606C402.979 44.8606 403.781 45.0829 404.324 45.5273C404.892 45.9718 405.176 46.6261 405.176 47.4904C405.176 48.3052 404.892 48.9349 404.324 49.3793C403.781 49.8238 402.979 50.046 401.917 50.046ZM417.263 72.9358C415.955 72.9358 414.769 72.8124 413.708 72.5654C412.646 72.3185 411.732 71.9605 410.967 71.4913C410.201 71.0222 409.584 70.4666 409.115 69.8246C408.646 69.1579 408.337 68.4171 408.189 67.6023L412.263 65.9355C412.362 66.4788 412.634 66.985 413.078 67.4541C413.523 67.9233 414.115 68.306 414.856 68.6023C415.621 68.8739 416.535 69.0097 417.597 69.0097C418.733 69.0097 419.609 68.8492 420.226 68.5282C420.844 68.1825 421.152 67.701 421.152 67.0837C421.152 66.6146 420.98 66.2442 420.634 65.9726C420.288 65.701 419.782 65.4664 419.115 65.2688C418.449 65.0713 417.646 64.8861 416.708 64.7133C415.794 64.491 414.856 64.2565 413.893 64.0095C412.955 63.7626 412.078 63.4169 411.263 62.9725C410.473 62.528 409.819 61.9477 409.3 61.2317C408.806 60.4909 408.559 59.5526 408.559 58.4167C408.559 57.2315 408.88 56.1944 409.522 55.3055C410.164 54.4166 411.103 53.7252 412.337 53.2313C413.572 52.7128 415.078 52.4535 416.856 52.4535C418.461 52.4535 419.868 52.6758 421.078 53.1202C422.288 53.54 423.276 54.1573 424.041 54.9721C424.832 55.7623 425.362 56.713 425.634 57.8241L421.301 59.2686C421.202 58.676 420.955 58.1575 420.56 57.713C420.189 57.2685 419.683 56.9352 419.041 56.713C418.424 56.4907 417.696 56.3796 416.856 56.3796C415.794 56.3796 414.967 56.5525 414.374 56.8981C413.806 57.2438 413.523 57.7006 413.523 58.2686C413.523 58.7377 413.708 59.1205 414.078 59.4168C414.473 59.7131 415.016 59.96 415.708 60.1575C416.399 60.3304 417.214 60.5156 418.152 60.7131C419.14 60.9107 420.103 61.1452 421.041 61.4168C421.98 61.6638 422.819 61.9971 423.56 62.4169C424.325 62.8367 424.93 63.3922 425.375 64.0836C425.819 64.775 426.042 65.6639 426.042 66.7504C426.042 68.0344 425.696 69.1455 425.004 70.0839C424.313 70.9975 423.313 71.7012 422.004 72.195C420.696 72.6889 419.115 72.9358 417.263 72.9358ZM438.85 72.9358C437.245 72.9358 435.813 72.7136 434.554 72.2691C433.319 71.8247 432.27 71.1827 431.406 70.3431C430.542 69.5036 429.875 68.4665 429.406 67.2319C428.961 65.9973 428.739 64.6022 428.739 63.0465C428.739 61.5156 428.949 60.1081 429.369 58.8241C429.813 57.5155 430.455 56.392 431.295 55.4536C432.134 54.4906 433.159 53.7499 434.369 53.2313C435.579 52.7128 436.949 52.4535 438.48 52.4535C439.962 52.4535 441.283 52.7004 442.443 53.1943C443.604 53.6635 444.567 54.3795 445.332 55.3425C446.122 56.3055 446.69 57.4908 447.036 58.8982C447.406 60.281 447.542 61.8737 447.443 63.6762L432.184 63.8243V60.8983L444.369 60.7872L442.48 62.2687C442.653 60.96 442.567 59.8859 442.221 59.0464C441.875 58.2068 441.369 57.5895 440.702 57.1945C440.06 56.7994 439.344 56.6018 438.554 56.6018C437.616 56.6018 436.789 56.8488 436.073 57.3426C435.357 57.8365 434.801 58.5649 434.406 59.5279C434.011 60.4662 433.813 61.602 433.813 62.9354C433.813 65.0343 434.27 66.5775 435.184 67.5652C436.122 68.5529 437.344 69.0468 438.85 69.0468C439.542 69.0468 440.122 68.9604 440.591 68.7875C441.085 68.59 441.48 68.343 441.777 68.0467C442.098 67.7504 442.344 67.4171 442.517 67.0467C442.715 66.6763 442.875 66.3059 442.999 65.9355L447.629 66.9356C447.406 67.8492 447.073 68.6764 446.629 69.4172C446.209 70.1332 445.641 70.7629 444.925 71.3061C444.209 71.8247 443.344 72.2197 442.332 72.4914C441.344 72.7877 440.184 72.9358 438.85 72.9358ZM459.33 72.9358C458.021 72.9358 456.836 72.8124 455.774 72.5654C454.712 72.3185 453.799 71.9605 453.033 71.4913C452.268 71.0222 451.65 70.4666 451.181 69.8246C450.712 69.1579 450.403 68.4171 450.255 67.6023L454.329 65.9355C454.428 66.4788 454.7 66.985 455.144 67.4541C455.589 67.9233 456.181 68.306 456.922 68.6023C457.688 68.8739 458.601 69.0097 459.663 69.0097C460.799 69.0097 461.675 68.8492 462.293 68.5282C462.91 68.1825 463.219 67.701 463.219 67.0837C463.219 66.6146 463.046 66.2442 462.7 65.9726C462.354 65.701 461.848 65.4664 461.182 65.2688C460.515 65.0713 459.712 64.8861 458.774 64.7133C457.86 64.491 456.922 64.2565 455.959 64.0095C455.021 63.7626 454.144 63.4169 453.329 62.9725C452.539 62.528 451.885 61.9477 451.366 61.2317C450.872 60.4909 450.626 59.5526 450.626 58.4167C450.626 57.2315 450.947 56.1944 451.589 55.3055C452.231 54.4166 453.169 53.7252 454.403 53.2313C455.638 52.7128 457.144 52.4535 458.922 52.4535C460.527 52.4535 461.935 52.6758 463.145 53.1202C464.354 53.54 465.342 54.1573 466.108 54.9721C466.898 55.7623 467.429 56.713 467.7 57.8241L463.367 59.2686C463.268 58.676 463.021 58.1575 462.626 57.713C462.256 57.2685 461.749 56.9352 461.107 56.713C460.49 56.4907 459.762 56.3796 458.922 56.3796C457.86 56.3796 457.033 56.5525 456.441 56.8981C455.873 57.2438 455.589 57.7006 455.589 58.2686C455.589 58.7377 455.774 59.1205 456.144 59.4168C456.539 59.7131 457.083 59.96 457.774 60.1575C458.465 60.3304 459.28 60.5156 460.219 60.7131C461.206 60.9107 462.169 61.1452 463.108 61.4168C464.046 61.6638 464.885 61.9971 465.626 62.4169C466.392 62.8367 466.997 63.3922 467.441 64.0836C467.885 64.775 468.108 65.6639 468.108 66.7504C468.108 68.0344 467.762 69.1455 467.071 70.0839C466.379 70.9975 465.379 71.7012 464.071 72.195C462.762 72.6889 461.182 72.9358 459.33 72.9358Z" fill="url(#paint0_linear_352_1568)"/>
<defs>
<linearGradient id="paint0_linear_352_1568" x1="163.837" y1="82.4277" x2="549.356" y2="130.731" gradientUnits="userSpaceOnUse">
<stop stop-color="#00ACEE"/>
<stop offset="1" stop-color="#011B26"/>
</linearGradient>
</defs>
</svg>
