<svg width="541" height="90" viewBox="0 0 541 90" fill="none" xmlns="http://www.w3.org/2000/svg">
<path d="M56.4853 31.7168V-6.96992e-05H63.4053V31.7168H56.4853ZM47.1144 5.81468V-6.96992e-05H72.7762V5.81468H47.1144ZM74.9282 31.7168V19.5106V6.48747H80.6468L80.6949 15.0895H81.6079C81.8642 12.943 82.2967 11.1969 82.9055 9.85137C83.5462 8.50581 84.4272 7.51266 85.5485 6.87191C86.6698 6.23117 88.0634 5.9108 89.7294 5.9108C90.0177 5.9108 90.3221 5.92682 90.6424 5.95885C90.9948 5.95885 91.3953 6.00691 91.8438 6.10302L91.5555 13.4556C91.0749 13.2313 90.5463 13.0711 89.9697 12.975C89.393 12.8789 88.8804 12.8308 88.4319 12.8308C87.1824 12.8308 86.1092 13.1192 85.2121 13.6958C84.3151 14.2725 83.5782 15.1055 83.0016 16.1947C82.4569 17.252 82.0885 18.5495 81.8963 20.0873V31.7168H74.9282ZM106.147 32.3896C103.616 32.3896 101.39 31.893 99.4674 30.8998C97.5452 29.8746 96.0395 28.3849 94.9502 26.4306C93.8609 24.4443 93.3163 21.9775 93.3163 19.03C93.3163 16.0826 93.8609 13.6318 94.9502 11.6775C96.0715 9.72323 97.5933 8.26553 99.5155 7.30442C101.47 6.31126 103.68 5.81468 106.147 5.81468C108.678 5.81468 110.905 6.31126 112.827 7.30442C114.781 8.29757 116.303 9.7873 117.392 11.7736C118.514 13.7279 119.074 16.1787 119.074 19.1261C119.074 22.1056 118.498 24.5885 117.344 26.5748C116.223 28.5291 114.685 29.9868 112.731 30.9479C110.809 31.909 108.614 32.3896 106.147 32.3896ZM106.387 27.2476C107.637 27.2476 108.678 26.9592 109.511 26.3826C110.376 25.8059 111.017 24.9409 111.433 23.7876C111.882 22.6022 112.106 21.1765 112.106 19.5106C112.106 17.7485 111.866 16.2588 111.385 15.0414C110.937 13.792 110.264 12.8469 109.367 12.2061C108.47 11.5333 107.333 11.1969 105.955 11.1969C104.77 11.1969 103.744 11.4853 102.879 12.0619C102.014 12.6066 101.358 13.4716 100.909 14.657C100.461 15.8103 100.236 17.236 100.236 18.9339C100.236 21.6571 100.781 23.7235 101.87 25.1331C102.959 26.5428 104.465 27.2476 106.387 27.2476ZM131.587 32.3896C128.639 32.3896 126.413 31.3964 124.907 29.4101C123.433 27.3917 122.696 24.3322 122.696 20.2314V6.48747H129.616V19.3664C129.616 21.8333 129.985 23.6754 130.722 24.8928C131.459 26.0782 132.58 26.6709 134.086 26.6709C134.983 26.6709 135.768 26.4467 136.44 25.9981C137.113 25.5496 137.69 24.9249 138.17 24.124C138.651 23.323 139.003 22.3779 139.228 21.2887C139.484 20.1994 139.628 19.03 139.66 17.7806V6.48747H146.58V21.4328V31.7168H141.006L140.958 23.8356H140.093C139.612 25.8219 139.003 27.4558 138.267 28.7373C137.562 29.9868 136.649 30.9158 135.527 31.5246C134.438 32.1012 133.125 32.3896 131.587 32.3896ZM157.732 31.7168L149.323 6.53552H156.964L162.298 26.2384H163.067L168.401 6.53552H175.753L167.296 31.7168H157.732ZM189.668 32.3896C187.585 32.3896 185.727 32.1012 184.093 31.5246C182.492 30.9479 181.13 30.1149 180.009 29.0256C178.887 27.9364 178.022 26.5908 177.414 24.989C176.837 23.3871 176.549 21.577 176.549 19.5586C176.549 17.5723 176.821 15.7462 177.366 14.0803C177.942 12.3823 178.775 10.9246 179.864 9.70721C180.954 8.45776 182.283 7.49664 183.853 6.82386C185.423 6.15108 187.201 5.81468 189.187 5.81468C191.11 5.81468 192.824 6.13506 194.329 6.7758C195.835 7.38451 197.084 8.31359 198.078 9.56304C199.103 10.8125 199.84 12.3503 200.288 14.1764C200.769 15.9705 200.945 18.0369 200.817 20.3756L181.018 20.5678V16.7714L196.828 16.6272L194.377 18.5495C194.602 16.8515 194.489 15.4579 194.041 14.3686C193.592 13.2794 192.936 12.4784 192.071 11.9658C191.238 11.4532 190.309 11.1969 189.283 11.1969C188.066 11.1969 186.993 11.5173 186.064 12.1581C185.135 12.7988 184.414 13.7439 183.901 14.9933C183.389 16.2108 183.132 17.6845 183.132 19.4145C183.132 22.1376 183.725 24.14 184.91 25.4215C186.128 26.7029 187.714 27.3437 189.668 27.3437C190.565 27.3437 191.318 27.2316 191.926 27.0073C192.567 26.751 193.08 26.4306 193.464 26.0462C193.881 25.6617 194.201 25.2292 194.425 24.7487C194.682 24.2681 194.89 23.7876 195.05 23.307L201.057 24.6045C200.769 25.7899 200.336 26.8631 199.76 27.8243C199.215 28.7533 198.478 29.5703 197.549 30.2751C196.62 30.9479 195.499 31.4605 194.185 31.8129C192.904 32.1973 191.398 32.3896 189.668 32.3896ZM204.904 31.7168V19.5106V6.48747H210.623L210.671 15.0895H211.584C211.84 12.943 212.273 11.1969 212.881 9.85137C213.522 8.50581 214.403 7.51266 215.525 6.87191C216.646 6.23117 218.039 5.9108 219.705 5.9108C219.994 5.9108 220.298 5.92682 220.618 5.95885C220.971 5.95885 221.371 6.00691 221.82 6.10302L221.531 13.4556C221.051 13.2313 220.522 13.0711 219.946 12.975C219.369 12.8789 218.856 12.8308 218.408 12.8308C217.158 12.8308 216.085 13.1192 215.188 13.6958C214.291 14.2725 213.554 15.1055 212.978 16.1947C212.433 17.252 212.064 18.5495 211.872 20.0873V31.7168H204.904ZM243.448 32.3896C240.501 32.3896 238.274 31.3964 236.768 29.4101C235.294 27.3917 234.558 24.3322 234.558 20.2314V6.48747H241.478V19.3664C241.478 21.8333 241.846 23.6754 242.583 24.8928C243.32 26.0782 244.441 26.6709 245.947 26.6709C246.844 26.6709 247.629 26.4467 248.302 25.9981C248.974 25.5496 249.551 24.9249 250.032 24.124C250.512 23.323 250.865 22.3779 251.089 21.2887C251.345 20.1994 251.489 19.03 251.521 17.7806V6.48747H258.441V21.4328V31.7168H252.867L252.819 23.8356H251.954C251.473 25.8219 250.865 27.4558 250.128 28.7373C249.423 29.9868 248.51 30.9158 247.389 31.5246C246.299 32.1012 244.986 32.3896 243.448 32.3896ZM263.827 31.7168V16.435V6.48747H269.498L269.45 14.0322H270.411C270.827 12.2061 271.42 10.6843 272.189 9.46693C272.958 8.24951 273.919 7.33645 275.072 6.72774C276.257 6.11904 277.651 5.81468 279.253 5.81468C282.168 5.81468 284.379 6.83988 285.885 8.89026C287.422 10.9406 288.191 14.1604 288.191 18.5495V31.7168H281.223V19.3184C281.223 16.6272 280.823 14.673 280.022 13.4556C279.253 12.2061 278.116 11.5814 276.61 11.5814C275.328 11.5814 274.255 11.9818 273.39 12.7828C272.525 13.5837 271.868 14.6409 271.42 15.9545C271.003 17.236 270.779 18.6776 270.747 20.2795V31.7168H263.827ZM304.908 32.3896C302.826 32.3896 300.967 32.1012 299.333 31.5246C297.732 30.9479 296.37 30.1149 295.249 29.0256C294.127 27.9364 293.262 26.5908 292.654 24.989C292.077 23.3871 291.789 21.577 291.789 19.5586C291.789 17.5723 292.061 15.7462 292.606 14.0803C293.182 12.3823 294.015 10.9246 295.105 9.70721C296.194 8.45776 297.523 7.49664 299.093 6.82386C300.663 6.15108 302.441 5.81468 304.427 5.81468C306.35 5.81468 308.064 6.13506 309.569 6.7758C311.075 7.38451 312.325 8.31359 313.318 9.56304C314.343 10.8125 315.08 12.3503 315.528 14.1764C316.009 15.9705 316.185 18.0369 316.057 20.3756L296.258 20.5678V16.7714L312.068 16.6272L309.617 18.5495C309.842 16.8515 309.73 15.4579 309.281 14.3686C308.833 13.2794 308.176 12.4784 307.311 11.9658C306.478 11.4532 305.549 11.1969 304.523 11.1969C303.306 11.1969 302.233 11.5173 301.304 12.1581C300.375 12.7988 299.654 13.7439 299.141 14.9933C298.629 16.2108 298.372 17.6845 298.372 19.4145C298.372 22.1376 298.965 24.14 300.15 25.4215C301.368 26.7029 302.954 27.3437 304.908 27.3437C305.805 27.3437 306.558 27.2316 307.167 27.0073C307.807 26.751 308.32 26.4306 308.704 26.0462C309.121 25.6617 309.441 25.2292 309.665 24.7487C309.922 24.2681 310.13 23.7876 310.29 23.307L316.297 24.6045C316.009 25.7899 315.576 26.8631 315 27.8243C314.455 28.7533 313.718 29.5703 312.789 30.2751C311.86 30.9479 310.739 31.4605 309.425 31.8129C308.144 32.1973 306.638 32.3896 304.908 32.3896ZM336.169 32.3896C334.76 32.3896 333.51 32.1172 332.421 31.5726C331.332 30.9959 330.483 30.179 329.874 29.1218C329.265 28.0645 328.961 26.751 328.961 25.1812C328.961 23.8036 329.217 22.6502 329.73 21.7212C330.275 20.7921 331.059 20.0392 332.085 19.4625C333.11 18.8859 334.375 18.4053 335.881 18.0209C337.387 17.6364 339.101 17.3 341.023 17.0117C342.048 16.8515 342.881 16.7073 343.522 16.5792C344.195 16.419 344.691 16.1787 345.012 15.8584C345.332 15.5059 345.492 15.0094 345.492 14.3686C345.492 13.4716 345.172 12.7027 344.531 12.0619C343.89 11.4212 342.881 11.1008 341.504 11.1008C340.575 11.1008 339.71 11.261 338.909 11.5814C338.14 11.9018 337.467 12.3823 336.89 13.0231C336.346 13.6638 335.945 14.4808 335.689 15.4739L329.586 13.5997C329.97 12.2862 330.515 11.1489 331.22 10.1878C331.957 9.22665 332.838 8.42572 333.863 7.78497C334.888 7.11219 336.057 6.61561 337.371 6.29524C338.684 5.97487 340.11 5.81468 341.648 5.81468C344.115 5.81468 346.117 6.21515 347.655 7.01608C349.225 7.78497 350.394 9.00239 351.163 10.6683C351.932 12.3022 352.316 14.4167 352.316 17.0117V21.3367C352.316 22.458 352.332 23.5953 352.364 24.7487C352.428 25.902 352.492 27.0714 352.556 28.2568C352.653 29.4101 352.749 30.5634 352.845 31.7168H346.742C346.614 30.9158 346.485 30.0028 346.357 28.9776C346.261 27.9204 346.181 26.8631 346.117 25.8059H345.252C344.803 27.0233 344.163 28.1286 343.33 29.1218C342.497 30.1149 341.472 30.9158 340.254 31.5246C339.069 32.1012 337.707 32.3896 336.169 32.3896ZM339.101 27.3917C339.71 27.3917 340.318 27.2796 340.927 27.0554C341.568 26.8311 342.176 26.5267 342.753 26.1423C343.362 25.7258 343.906 25.2132 344.387 24.6045C344.9 23.9958 345.316 23.307 345.636 22.5381L345.54 18.5014L346.646 18.7417C346.069 19.1582 345.396 19.4946 344.627 19.7509C343.858 19.9751 343.057 20.1513 342.224 20.2795C341.424 20.4076 340.623 20.5518 339.822 20.712C339.021 20.8722 338.3 21.0804 337.659 21.3367C337.05 21.593 336.554 21.9454 336.169 22.3939C335.817 22.8104 335.641 23.4031 335.641 24.172C335.641 25.1652 335.961 25.9501 336.602 26.5267C337.243 27.1034 338.076 27.3917 339.101 27.3917ZM367.404 40.511C364.649 40.511 362.374 40.2867 360.58 39.8382C358.818 39.4217 357.52 38.797 356.687 37.964C355.854 37.1311 355.438 36.0899 355.438 34.8404C355.438 33.3667 356.015 32.1653 357.168 31.2362C358.353 30.3071 360.083 29.7465 362.358 29.5543V28.5931C360.628 28.5931 359.298 28.4169 358.369 28.0645C357.44 27.6801 356.976 27.0233 356.976 26.0942C356.976 25.1972 357.424 24.3963 358.321 23.6915C359.25 22.9866 360.772 22.426 362.887 22.0095V21.0484C360.9 20.9202 359.346 20.2795 358.225 19.1261C357.104 17.9728 356.543 16.4831 356.543 14.657C356.543 13.0551 356.992 11.6294 357.889 10.38C358.786 9.0985 360.115 8.08933 361.877 7.35247C363.671 6.58358 365.866 6.19913 368.461 6.19913H381.244V11.4853L373.315 10.38V11.4853C375.365 11.7736 376.839 12.2862 377.736 13.0231C378.665 13.7599 379.129 14.7851 379.129 16.0986C379.129 17.4122 378.697 18.5655 377.832 19.5586C376.967 20.5518 375.733 21.3367 374.132 21.9134C372.562 22.458 370.672 22.7303 368.461 22.7303C368.045 22.7303 367.596 22.7143 367.115 22.6823C366.635 22.6502 365.834 22.5701 364.713 22.442C364.104 22.8905 363.623 23.291 363.271 23.6434C362.951 23.9638 362.79 24.2681 362.79 24.5565C362.79 24.7807 362.903 24.9729 363.127 25.1331C363.383 25.2933 363.703 25.4054 364.088 25.4695C364.504 25.5336 364.921 25.5656 365.337 25.5656H372.546C373.187 25.5656 374.019 25.6137 375.045 25.7098C376.07 25.7739 377.095 26.0141 378.12 26.4306C379.145 26.8471 380.01 27.5199 380.715 28.449C381.42 29.346 381.772 30.6435 381.772 32.3415C381.772 34.1997 381.244 35.7374 380.187 36.9549C379.161 38.1723 377.576 39.0693 375.429 39.646C373.315 40.2227 370.64 40.511 367.404 40.511ZM368.173 34.9846C370.127 34.9846 371.649 34.8724 372.738 34.6482C373.827 34.456 374.596 34.1196 375.045 33.639C375.525 33.1905 375.765 32.6138 375.765 31.909C375.765 31.2683 375.621 30.7717 375.333 30.4193C375.077 30.0669 374.724 29.8266 374.276 29.6984C373.859 29.5382 373.427 29.4421 372.978 29.4101C372.562 29.346 372.193 29.314 371.873 29.314H365.818C364.472 29.4421 363.495 29.8106 362.887 30.4193C362.31 30.9959 362.022 31.6687 362.022 32.4376C362.022 33.1424 362.246 33.671 362.694 34.0235C363.143 34.3759 363.816 34.6161 364.713 34.7443C365.642 34.9045 366.795 34.9846 368.173 34.9846ZM368.077 19.1261C369.614 19.1261 370.768 18.7577 371.537 18.0209C372.305 17.252 372.69 16.2588 372.69 15.0414C372.69 13.7599 372.289 12.7027 371.489 11.8697C370.72 11.0368 369.582 10.6203 368.077 10.6203C366.603 10.6203 365.45 11.0368 364.617 11.8697C363.784 12.6706 363.367 13.7119 363.367 14.9933C363.367 15.7943 363.543 16.5151 363.896 17.1559C364.28 17.7646 364.825 18.2451 365.53 18.5975C366.234 18.9499 367.083 19.1261 368.077 19.1261ZM396.518 32.3896C394.436 32.3896 392.578 32.1012 390.944 31.5246C389.342 30.9479 387.98 30.1149 386.859 29.0256C385.738 27.9364 384.873 26.5908 384.264 24.989C383.687 23.3871 383.399 21.577 383.399 19.5586C383.399 17.5723 383.671 15.7462 384.216 14.0803C384.792 12.3823 385.625 10.9246 386.715 9.70721C387.804 8.45776 389.134 7.49664 390.703 6.82386C392.273 6.15108 394.051 5.81468 396.038 5.81468C397.96 5.81468 399.674 6.13506 401.18 6.7758C402.685 7.38451 403.935 8.31359 404.928 9.56304C405.953 10.8125 406.69 12.3503 407.138 14.1764C407.619 15.9705 407.795 18.0369 407.667 20.3756L387.868 20.5678V16.7714L403.678 16.6272L401.228 18.5495C401.452 16.8515 401.34 15.4579 400.891 14.3686C400.443 13.2794 399.786 12.4784 398.921 11.9658C398.088 11.4532 397.159 11.1969 396.134 11.1969C394.916 11.1969 393.843 11.5173 392.914 12.1581C391.985 12.7988 391.264 13.7439 390.751 14.9933C390.239 16.2108 389.983 17.6845 389.983 19.4145C389.983 22.1376 390.575 24.14 391.761 25.4215C392.978 26.7029 394.564 27.3437 396.518 27.3437C397.415 27.3437 398.168 27.2316 398.777 27.0073C399.417 26.751 399.93 26.4306 400.315 26.0462C400.731 25.6617 401.051 25.2292 401.276 24.7487C401.532 24.2681 401.74 23.7876 401.9 23.307L407.907 24.6045C407.619 25.7899 407.187 26.8631 406.61 27.8243C406.065 28.7533 405.328 29.5703 404.399 30.2751C403.47 30.9479 402.349 31.4605 401.035 31.8129C399.754 32.1973 398.248 32.3896 396.518 32.3896ZM411.754 31.7168V16.435V6.48747H417.425L417.377 14.0322H418.338C418.755 12.2061 419.347 10.6843 420.116 9.46693C420.885 8.24951 421.846 7.33645 423 6.72774C424.185 6.11904 425.579 5.81468 427.18 5.81468C430.096 5.81468 432.306 6.83988 433.812 8.89026C435.35 10.9406 436.119 14.1604 436.119 18.5495V31.7168H429.151V19.3184C429.151 16.6272 428.75 14.673 427.949 13.4556C427.18 12.2061 426.043 11.5814 424.537 11.5814C423.256 11.5814 422.183 11.9818 421.318 12.7828C420.453 13.5837 419.796 14.6409 419.347 15.9545C418.931 17.236 418.707 18.6776 418.674 20.2795V31.7168H411.754ZM452.787 32.3896C450.609 32.3896 448.703 32.0692 447.069 31.4284C445.435 30.7877 444.073 29.8907 442.984 28.7373C441.895 27.584 441.078 26.2224 440.533 24.6526C439.988 23.0507 439.716 21.3047 439.716 19.4145C439.716 17.4282 439.988 15.6181 440.533 13.9842C441.11 12.3182 441.943 10.8766 443.032 9.65915C444.121 8.44174 445.467 7.49664 447.069 6.82386C448.671 6.15108 450.497 5.81468 452.547 5.81468C454.597 5.81468 456.376 6.15108 457.881 6.82386C459.419 7.49664 460.653 8.44174 461.582 9.65915C462.543 10.8445 463.199 12.2542 463.552 13.8881L457.16 15.9545C457.064 14.9613 456.792 14.1123 456.343 13.4075C455.927 12.6706 455.35 12.126 454.613 11.7736C453.909 11.3892 453.108 11.1969 452.211 11.1969C451.282 11.1969 450.481 11.3892 449.808 11.7736C449.135 12.126 448.558 12.6546 448.078 13.3594C447.629 14.0322 447.277 14.8652 447.021 15.8584C446.796 16.8195 446.684 17.9087 446.684 19.1261C446.684 20.8562 446.909 22.3299 447.357 23.5473C447.838 24.7327 448.526 25.6457 449.423 26.2865C450.353 26.8952 451.49 27.1995 452.835 27.1995C454.117 27.1995 455.142 26.9592 455.911 26.4787C456.68 25.9661 457.241 25.3253 457.593 24.5565C457.977 23.7555 458.218 22.9386 458.314 22.1056L464.369 23.4512C464.209 24.7006 463.856 25.87 463.312 26.9592C462.799 28.0485 462.062 28.9936 461.101 29.7945C460.14 30.5955 458.971 31.2362 457.593 31.7168C456.247 32.1653 454.646 32.3896 452.787 32.3896ZM479.093 32.3896C477.011 32.3896 475.153 32.1012 473.519 31.5246C471.917 30.9479 470.555 30.1149 469.434 29.0256C468.313 27.9364 467.448 26.5908 466.839 24.989C466.262 23.3871 465.974 21.577 465.974 19.5586C465.974 17.5723 466.246 15.7462 466.791 14.0803C467.368 12.3823 468.201 10.9246 469.29 9.70721C470.379 8.45776 471.709 7.49664 473.279 6.82386C474.848 6.15108 476.627 5.81468 478.613 5.81468C480.535 5.81468 482.249 6.13506 483.755 6.7758C485.261 7.38451 486.51 8.31359 487.503 9.56304C488.528 10.8125 489.265 12.3503 489.714 14.1764C490.194 15.9705 490.37 18.0369 490.242 20.3756L470.443 20.5678V16.7714L486.254 16.6272L483.803 18.5495C484.027 16.8515 483.915 15.4579 483.466 14.3686C483.018 13.2794 482.361 12.4784 481.496 11.9658C480.663 11.4532 479.734 11.1969 478.709 11.1969C477.492 11.1969 476.418 11.5173 475.489 12.1581C474.56 12.7988 473.839 13.7439 473.327 14.9933C472.814 16.2108 472.558 17.6845 472.558 19.4145C472.558 22.1376 473.15 24.14 474.336 25.4215C475.553 26.7029 477.139 27.3437 479.093 27.3437C479.99 27.3437 480.743 27.2316 481.352 27.0073C481.993 26.751 482.505 26.4306 482.89 26.0462C483.306 25.6617 483.627 25.2292 483.851 24.7487C484.107 24.2681 484.315 23.7876 484.476 23.307L490.483 24.6045C490.194 25.7899 489.762 26.8631 489.185 27.8243C488.64 28.7533 487.904 29.5703 486.975 30.2751C486.045 30.9479 484.924 31.4605 483.611 31.8129C482.329 32.1973 480.823 32.3896 479.093 32.3896Z" fill="black"/>
<path d="M-2.80468e-05 88.7831V57.0662H12.8789C14.6089 57.0662 16.1788 57.2104 17.5884 57.4987C18.998 57.755 20.2475 58.1395 21.3368 58.6521C22.426 59.1647 23.3391 59.8054 24.0759 60.5743C24.8448 61.3111 25.4215 62.1762 25.8059 63.1693C26.1904 64.1304 26.3826 65.2037 26.3826 66.389C26.3826 67.5103 26.2064 68.5355 25.854 69.4646C25.5016 70.3617 24.973 71.1466 24.2682 71.8194C23.5633 72.4921 22.6823 73.0528 21.6251 73.5013C20.5679 73.9178 19.3344 74.2061 17.9248 74.3663V75.0872C19.5587 75.2473 20.8562 75.6318 21.8173 76.2405C22.8105 76.8172 23.5794 77.6021 24.124 78.5952C24.7007 79.5884 25.1972 80.8218 25.6137 82.2955L27.536 88.7831H19.8951L18.4054 82.7761C18.117 81.4946 17.7005 80.5014 17.1559 79.7966C16.6113 79.0598 15.9225 78.5472 15.0895 78.2588C14.2565 77.9385 13.2474 77.7783 12.062 77.7783H6.92001V88.7831H-2.80468e-05ZM6.92001 72.5882H12.3984C14.5769 72.5882 16.2589 72.1718 17.4442 71.3388C18.6296 70.5058 19.2223 69.2083 19.2223 67.4463C19.2223 65.7163 18.6616 64.4508 17.5403 63.6499C16.4511 62.8169 14.8012 62.4004 12.5906 62.4004H6.92001V72.5882ZM31.6549 88.7831V57.0662H38.623V88.7831H31.6549ZM36.4604 88.7831V83.1605H56.1153V88.7831H36.4604ZM36.4604 75.3274V70.1855H53.7125V75.3274H36.4604ZM36.4604 62.6407V57.0662H56.0192V62.6407H36.4604ZM60.5409 88.7831V57.0662H69.5754L83.9441 79.5083H84.4727L84.0402 57.0662H90.768V88.7831H82.5985L67.4129 65.2838H66.8843L67.3168 88.7831H60.5409ZM94.1988 88.7831L105.059 57.0662H115.151L126.012 88.7831H118.515L110.49 62.5446H109.769L101.695 88.7831H94.1988ZM100.302 82.5358V77.8263H120.918V82.5358H100.302ZM134.289 79.8447V74.4144H141.545C143.852 74.4144 145.582 73.9498 146.735 73.0208C147.889 72.0596 148.465 70.4898 148.465 68.3113C148.465 66.389 147.921 64.9314 146.832 63.9382C145.774 62.913 144.124 62.4004 141.882 62.4004H134.289V57.0662H142.074C144.124 57.0662 145.967 57.3065 147.6 57.7871C149.266 58.2676 150.676 58.9884 151.829 59.9496C153.015 60.8786 153.912 62.064 154.52 63.5057C155.129 64.9153 155.434 66.5813 155.434 68.5035C155.434 70.9704 154.873 73.0528 153.752 74.7508C152.63 76.4167 150.964 77.6822 148.754 78.5472C146.575 79.4122 143.852 79.8447 140.584 79.8447H134.289ZM129.435 88.7831V57.0662H136.355V88.7831H129.435ZM159.448 88.7831V57.0662H172.327C174.057 57.0662 175.626 57.2104 177.036 57.4987C178.446 57.755 179.695 58.1395 180.784 58.6521C181.874 59.1647 182.787 59.8054 183.524 60.5743C184.293 61.3111 184.869 62.1762 185.254 63.1693C185.638 64.1304 185.83 65.2037 185.83 66.389C185.83 67.5103 185.654 68.5355 185.302 69.4646C184.949 70.3617 184.421 71.1466 183.716 71.8194C183.011 72.4921 182.13 73.0528 181.073 73.5013C180.016 73.9178 178.782 74.2061 177.373 74.3663V75.0872C179.006 75.2473 180.304 75.6318 181.265 76.2405C182.258 76.8172 183.027 77.6021 183.572 78.5952C184.148 79.5884 184.645 80.8218 185.061 82.2955L186.984 88.7831H179.343L177.853 82.7761C177.565 81.4946 177.148 80.5014 176.604 79.7966C176.059 79.0598 175.37 78.5472 174.537 78.2588C173.704 77.9385 172.695 77.7783 171.51 77.7783H166.368V88.7831H159.448ZM166.368 72.5882H171.846C174.025 72.5882 175.707 72.1718 176.892 71.3388C178.077 70.5058 178.67 69.2083 178.67 67.4463C178.67 65.7163 178.109 64.4508 176.988 63.6499C175.899 62.8169 174.249 62.4004 172.038 62.4004H166.368V72.5882ZM204.847 89.4558C202.54 89.4558 200.473 89.1034 198.647 88.3986C196.821 87.6618 195.251 86.6045 193.938 85.2269C192.656 83.8173 191.663 82.1033 190.958 80.085C190.286 78.0346 189.949 75.6959 189.949 73.0688C189.949 69.3205 190.606 66.2289 191.92 63.794C193.233 61.3272 195.027 59.485 197.302 58.2676C199.608 57.0182 202.203 56.3934 205.087 56.3934C207.329 56.3934 209.364 56.7619 211.19 57.4987C213.016 58.2035 214.57 59.2608 215.851 60.6704C217.165 62.048 218.174 63.778 218.879 65.8604C219.584 67.9108 219.936 70.2656 219.936 72.9246C219.936 75.6478 219.584 78.0346 218.879 80.085C218.174 82.1353 217.149 83.8653 215.803 85.275C214.49 86.6526 212.904 87.6938 211.046 88.3986C209.188 89.1034 207.121 89.4558 204.847 89.4558ZM205.039 83.9294C206.737 83.9294 208.162 83.5129 209.316 82.68C210.469 81.847 211.35 80.6456 211.959 79.0758C212.568 77.506 212.872 75.5837 212.872 73.3091C212.872 70.9383 212.552 68.92 211.911 67.2541C211.302 65.5881 210.405 64.3226 209.22 63.4576C208.034 62.5606 206.593 62.1121 204.895 62.1121C203.229 62.1121 201.803 62.5446 200.618 63.4096C199.464 64.2426 198.567 65.46 197.927 67.0618C197.318 68.6637 197.013 70.65 197.013 73.0208C197.013 74.7508 197.19 76.3046 197.542 77.6822C197.927 79.0277 198.455 80.165 199.128 81.0941C199.801 82.0232 200.634 82.728 201.627 83.2086C202.62 83.6891 203.757 83.9294 205.039 83.9294ZM231.482 88.7831L221.006 57.0662H228.551L236.048 82.9203H236.672L244.217 57.0662H251.666L241.141 88.7831H231.482ZM265.137 88.7831V57.0662H272.057V88.7831H265.137ZM268.453 76.9133V71.2427H286.954V76.9133H268.453ZM268.453 62.9771V57.0662H288.732V62.9771H268.453ZM292.662 88.7831V57.0662H299.726V88.7831H292.662ZM305.78 88.7831V57.0662H314.814L329.183 79.5083H329.711L329.279 57.0662H336.007V88.7831H327.837L312.652 65.2838H312.123L312.555 88.7831H305.78ZM339.437 88.7831L350.298 57.0662H360.39L371.25 88.7831H363.754L355.728 62.5446H355.007L346.934 88.7831H339.437ZM345.54 82.5358V77.8263H366.156V82.5358H345.54ZM374.674 88.7831V57.0662H383.708L398.077 79.5083H398.606L398.173 57.0662H404.901V88.7831H396.732L381.546 65.2838H381.017L381.45 88.7831H374.674ZM425.536 89.4558C423.069 89.4558 420.858 89.1195 418.904 88.4467C416.982 87.7419 415.332 86.7167 413.954 85.3711C412.609 83.9935 411.584 82.2955 410.879 80.2772C410.174 78.2588 409.822 75.9201 409.822 73.261C409.822 70.5699 410.174 68.1831 410.879 66.1007C411.616 64.0183 412.657 62.2562 414.002 60.8146C415.38 59.3409 416.998 58.2356 418.856 57.4987C420.714 56.7619 422.781 56.3934 425.055 56.3934C426.817 56.3934 428.451 56.6337 429.957 57.1143C431.463 57.5628 432.76 58.2196 433.849 59.0846C434.939 59.9496 435.788 61.0068 436.396 62.2562C437.037 63.5057 437.374 64.9153 437.406 66.4852L431.014 68.1671C431.014 66.8215 430.71 65.7002 430.101 64.8032C429.524 63.9062 428.756 63.2334 427.794 62.7849C426.865 62.3043 425.872 62.064 424.815 62.064C423.886 62.064 422.957 62.2562 422.028 62.6407C421.131 62.9931 420.298 63.6018 419.529 64.4668C418.792 65.2998 418.183 66.4051 417.703 67.7827C417.254 69.1603 417.03 70.8422 417.03 72.8285C417.03 75.4235 417.398 77.522 418.135 79.1238C418.904 80.7257 419.945 81.9111 421.259 82.68C422.572 83.4168 424.046 83.7853 425.68 83.7853C427.442 83.7853 428.804 83.4328 429.765 82.728C430.758 81.9912 431.463 81.0621 431.879 79.9408C432.328 78.7874 432.568 77.57 432.6 76.2885L438.655 77.2977C438.623 78.9957 438.367 80.5976 437.886 82.1033C437.406 83.577 436.653 84.8745 435.627 85.9958C434.602 87.0851 433.257 87.9341 431.591 88.5428C429.925 89.1515 427.907 89.4558 425.536 89.4558ZM442.677 88.7831V57.0662H449.645V88.7831H442.677ZM447.482 88.7831V83.1605H467.137V88.7831H447.482ZM447.482 75.3274V70.1855H464.734V75.3274H447.482ZM447.482 62.6407V57.0662H467.041V62.6407H447.482ZM493.931 89.4558C491.849 89.4558 489.975 89.2476 488.309 88.8311C486.675 88.4467 485.265 87.854 484.08 87.0531C482.926 86.2201 482.013 85.1949 481.341 83.9775C480.7 82.728 480.331 81.3024 480.235 79.7005L486.29 77.7302C486.354 79.1719 486.707 80.3733 487.348 81.3344C488.02 82.2955 488.965 83.0003 490.183 83.4489C491.4 83.8974 492.762 84.1216 494.268 84.1216C495.709 84.1216 496.927 83.9454 497.92 83.593C498.913 83.2406 499.666 82.7761 500.178 82.1994C500.691 81.5907 500.947 80.9339 500.947 80.2291C500.947 79.3962 500.627 78.7234 499.986 78.2108C499.345 77.6982 498.464 77.2657 497.343 76.9133C496.254 76.5609 495.004 76.2245 493.595 75.9041C492.025 75.5517 490.471 75.1512 488.933 74.7027C487.428 74.2542 486.05 73.6775 484.801 72.9727C483.583 72.2679 482.606 71.3548 481.869 70.2335C481.164 69.1122 480.812 67.7026 480.812 66.0046C480.812 64.0503 481.293 62.3684 482.254 60.9587C483.247 59.5171 484.688 58.3958 486.579 57.5948C488.469 56.7939 490.744 56.3934 493.403 56.3934C496.094 56.3934 498.384 56.7939 500.275 57.5948C502.197 58.3637 503.687 59.469 504.744 60.9107C505.801 62.3203 506.378 64.0023 506.474 65.9565L500.227 67.6866C500.227 66.6934 500.066 65.8284 499.746 65.0915C499.426 64.3547 498.977 63.746 498.4 63.2654C497.824 62.7528 497.103 62.3684 496.238 62.1121C495.405 61.8558 494.444 61.7276 493.355 61.7276C492.105 61.7276 491.016 61.8878 490.087 62.2082C489.19 62.5286 488.501 62.9611 488.02 63.5057C487.572 64.0503 487.348 64.6911 487.348 65.4279C487.348 66.2929 487.7 67.0138 488.405 67.5904C489.142 68.1351 490.103 68.5836 491.288 68.936C492.506 69.2884 493.835 69.6248 495.277 69.9452C496.654 70.2335 498.048 70.6019 499.458 71.0505C500.899 71.4669 502.229 72.0276 503.446 72.7324C504.696 73.4052 505.689 74.3343 506.426 75.5197C507.195 76.673 507.579 78.1307 507.579 79.8927C507.579 81.815 507.066 83.4969 506.041 84.9386C505.016 86.3803 503.478 87.5016 501.428 88.3025C499.41 89.0714 496.911 89.4558 493.931 89.4558ZM509.187 88.7831L520.048 57.0662H530.139L541 88.7831H533.503L525.478 62.5446H524.757L516.684 88.7831H509.187ZM515.29 82.5358V77.8263H535.906V82.5358H515.29Z" fill="url(#paint0_linear_301_2030)"/>
<defs>
<linearGradient id="paint0_linear_301_2030" x1="157.638" y1="101.798" x2="534.1" y2="137.108" gradientUnits="userSpaceOnUse">
<stop stop-color="#00ACEE"/>
<stop offset="1" stop-color="#011B26"/>
</linearGradient>
</defs>
</svg>
