<svg width="84" height="84" viewBox="0 0 84 84" fill="none" xmlns="http://www.w3.org/2000/svg">
<path d="M41.9959 83.0075C64.646 83.0075 83.0075 64.646 83.0075 41.9959C83.0075 19.3459 64.646 0.984375 41.9959 0.984375C19.3459 0.984375 0.984375 19.3459 0.984375 41.9959C0.984375 64.646 19.3459 83.0075 41.9959 83.0075Z" fill="#00678F"/>
<path fill-rule="evenodd" clip-rule="evenodd" d="M38.298 29.7782V31.75C38.298 32.0703 38.0761 32.3498 37.7631 32.4229C29.87 34.2544 24.3559 41.2027 24.3559 49.3179C24.356 58.8821 32.1366 66.6639 41.7007 66.6639C51.2651 66.6639 59.0468 58.8821 59.0468 49.3179C59.0471 41.2026 53.533 34.2545 45.6396 32.4229C45.3269 32.3497 45.1046 32.0703 45.1046 31.75L45.1051 29.7782H38.298ZM41.701 68.0457C31.3753 68.0457 22.9741 59.6449 22.9741 49.3179C22.9742 45.0636 24.4398 40.8981 27.1014 37.5889C29.6081 34.4739 33.0769 32.2238 36.9162 31.2091V29.0874C36.9162 28.706 37.2257 28.3965 37.6071 28.3965H45.796C46.1771 28.3965 46.4864 28.706 46.4864 29.0874L46.4869 31.2091C50.3261 32.2226 53.7945 34.474 56.3 37.5889C58.9619 40.898 60.4273 45.0636 60.4273 49.3179C60.4273 59.645 52.0266 68.0457 41.701 68.0457Z" fill="white"/>
<path fill-rule="evenodd" clip-rule="evenodd" d="M41.7009 35.9732C34.3427 35.9732 28.3558 41.9595 28.3558 49.3179C28.3558 56.6776 34.3422 62.664 41.7006 62.664C49.0591 62.664 55.0453 56.6776 55.0453 49.3179C55.0454 41.9595 49.059 35.9732 41.7009 35.9732ZM41.7009 64.0457C33.5806 64.0457 26.9741 57.4393 26.9741 49.3179C26.9741 41.1979 33.5805 34.5915 41.7006 34.5915C49.8224 34.5915 56.427 41.198 56.427 49.3179C56.4271 57.4393 49.8219 64.0457 41.7009 64.0457Z" fill="white"/>
<path fill-rule="evenodd" clip-rule="evenodd" d="M41.7009 39.9313C41.3193 39.9313 41.0098 39.6219 41.0098 39.2404L41.0101 37.223C41.0101 36.8416 41.3192 36.5322 41.7007 36.5322C42.0826 36.5322 42.3915 36.8416 42.3915 37.223L42.3918 39.2404C42.3918 39.6219 42.0821 39.9313 41.7009 39.9313Z" fill="white"/>
<path fill-rule="evenodd" clip-rule="evenodd" d="M41.7008 48.2432C41.1082 48.2432 40.6259 48.7254 40.6259 49.3179C40.6262 49.9116 41.1081 50.3937 41.7006 50.3937C42.2946 50.3937 42.7764 49.9116 42.7764 49.3179C42.7766 48.7254 42.2943 48.2432 41.7008 48.2432ZM41.7008 51.7755C40.3466 51.7755 39.2441 50.6732 39.2441 49.3179C39.2445 47.9638 40.3464 46.8615 41.7006 46.8615C43.0562 46.8615 44.1582 47.9638 44.1582 49.3179C44.1583 50.6732 43.0559 51.7755 41.7008 51.7755Z" fill="white"/>
<path fill-rule="evenodd" clip-rule="evenodd" d="M41.7009 48.2432C41.3193 48.2432 41.0098 47.9338 41.0098 47.5524L41.0101 41.9043C41.0101 41.5229 41.3192 41.2134 41.7007 41.2134C42.0826 41.2134 42.3915 41.5229 42.3915 41.9043L42.3918 47.5524C42.3918 47.9338 42.0821 48.2432 41.7009 48.2432Z" fill="white"/>
<path fill-rule="evenodd" clip-rule="evenodd" d="M35.5921 53.5363C35.3535 53.5363 35.1206 53.4128 34.9935 53.1908C34.803 52.861 34.9155 52.4389 35.2466 52.247L39.8264 49.6034C40.1573 49.4127 40.5792 49.5267 40.7698 49.8565C40.961 50.1863 40.8466 50.6098 40.5168 50.8004L35.9376 53.444C35.8285 53.5064 35.7096 53.5363 35.5921 53.5363Z" fill="white"/>
<path fill-rule="evenodd" clip-rule="evenodd" d="M46.7394 41.2818C46.6222 41.2818 46.5031 41.2519 46.394 41.1895C46.0642 40.9976 45.9513 40.5754 46.1421 40.2456L47.1496 38.498C47.3407 38.1681 47.7637 38.0554 48.0935 38.2461C48.425 38.4368 48.5374 38.859 48.3465 39.1889L47.338 40.9364C47.2111 41.1571 46.9781 41.2818 46.7394 41.2818Z" fill="white"/>
<path fill-rule="evenodd" clip-rule="evenodd" d="M50.4305 44.9701C50.1919 44.9701 49.9589 44.8465 49.8306 44.6247C49.6402 44.2948 49.7537 43.8714 50.0836 43.6807L51.8305 42.6732C52.1614 42.4825 52.5833 42.5953 52.774 42.9251C52.965 43.2561 52.852 43.6783 52.5209 43.869L50.7748 44.8777C50.6658 44.9401 50.5467 44.9701 50.4305 44.9701Z" fill="white"/>
<path fill-rule="evenodd" clip-rule="evenodd" d="M53.7963 50.0088H51.7798C51.3988 50.0088 51.0889 49.7006 51.0889 49.3179C51.089 48.9365 51.3983 48.6271 51.7797 48.6271H53.7963C54.179 48.6271 54.4868 48.9365 54.4868 49.3179C54.4872 49.7006 54.1786 50.0088 53.7963 50.0088Z" fill="white"/>
<path fill-rule="evenodd" clip-rule="evenodd" d="M52.176 56.0575C52.0583 56.0575 51.9393 56.0275 51.8301 55.9639L50.084 54.9564C49.7542 54.7645 49.64 54.3423 49.8307 54.0125C50.0214 53.6814 50.4436 53.5687 50.7746 53.7594L52.5215 54.7681C52.8523 54.9588 52.9648 55.381 52.774 55.712C52.6472 55.9327 52.4142 56.0575 52.176 56.0575Z" fill="white"/>
<path fill-rule="evenodd" clip-rule="evenodd" d="M47.7497 60.4846C47.5106 60.4846 47.2779 60.3598 47.1495 60.1391L46.1424 58.3916C45.9512 58.0618 46.064 57.6384 46.3939 57.4476C46.7252 57.257 47.1471 57.3709 47.3379 57.7007L48.3466 59.4483C48.5377 59.7781 48.4245 60.2003 48.0934 60.391C47.9855 60.4546 47.8667 60.4846 47.7497 60.4846Z" fill="white"/>
<path fill-rule="evenodd" clip-rule="evenodd" d="M41.7009 62.105C41.3193 62.105 41.0098 61.7955 41.0098 61.4141L41.0101 59.3967C41.0101 59.0153 41.3192 58.7058 41.7007 58.7058C42.0826 58.7058 42.3915 59.0153 42.3915 59.3967L42.3918 61.4141C42.3918 61.7955 42.0821 62.105 41.7009 62.105Z" fill="white"/>
<path fill-rule="evenodd" clip-rule="evenodd" d="M35.6538 60.4846C35.5362 60.4846 35.4171 60.4546 35.3079 60.391C34.9781 60.2003 34.8642 59.7781 35.0548 59.4483L36.0641 57.7007C36.2546 57.3709 36.6764 57.257 37.0075 57.4476C37.339 57.6384 37.4513 58.0618 37.2606 58.3916L36.2519 60.1391C36.124 60.3598 35.892 60.4846 35.6538 60.4846Z" fill="white"/>
<path fill-rule="evenodd" clip-rule="evenodd" d="M31.2277 56.0575C30.9891 56.0575 30.7564 55.9327 30.628 55.712C30.4375 55.381 30.5513 54.9588 30.8811 54.7681L32.6278 53.7594C32.9586 53.5687 33.3806 53.6814 33.5714 54.0125C33.7623 54.3423 33.6493 54.7645 33.3183 54.9564L31.572 55.9639C31.4641 56.0275 31.3441 56.0575 31.2277 56.0575Z" fill="white"/>
<path fill-rule="evenodd" clip-rule="evenodd" d="M31.6236 50.0088H29.6061C29.2245 50.0088 28.915 49.7006 28.915 49.3179C28.9152 48.9365 29.2245 48.6271 29.6058 48.6271H31.6236C32.0047 48.6271 32.3141 48.9365 32.3141 49.3179C32.3145 49.7006 32.0047 50.0088 31.6236 50.0088Z" fill="white"/>
<path fill-rule="evenodd" clip-rule="evenodd" d="M32.9728 44.9701C32.8551 44.9701 32.7362 44.9401 32.627 44.8777L30.8807 43.869C30.551 43.6783 30.4369 43.2561 30.6276 42.9251C30.8187 42.5953 31.2417 42.4825 31.5715 42.6732L33.3182 43.6807C33.649 43.8714 33.7617 44.2948 33.571 44.6247C33.444 44.8465 33.2112 44.9701 32.9728 44.9701Z" fill="white"/>
<path fill-rule="evenodd" clip-rule="evenodd" d="M36.6636 41.2818C36.4244 41.2818 36.1917 41.1571 36.0634 40.9364L35.0552 39.1889C34.8641 38.859 34.9779 38.4368 35.3078 38.2461C35.6391 38.0554 36.061 38.1681 36.2517 38.498L37.2605 40.2455C37.4516 40.5754 37.3384 40.9976 37.0073 41.1895C36.8984 41.2519 36.7794 41.2818 36.6636 41.2818Z" fill="white"/>
<path fill-rule="evenodd" clip-rule="evenodd" d="M41.69 29.7782C41.5362 29.7782 41.3815 29.7266 41.2543 29.6222C39.1316 27.8939 40.2732 26.0936 41.1068 24.7778C42.0641 23.2689 42.3242 22.6165 41.2543 21.7445C40.9581 21.5046 40.9138 21.0692 41.1548 20.7729C41.3948 20.4767 41.8301 20.4323 42.1263 20.6734C44.2495 22.4018 43.1074 24.2033 42.2739 25.5178C41.317 27.0267 41.0564 27.6804 42.1263 28.5512C42.4229 28.7923 42.4669 29.2277 42.2259 29.5227C42.0894 29.6906 41.8901 29.7782 41.69 29.7782Z" fill="white"/>
<path fill-rule="evenodd" clip-rule="evenodd" d="M41.6901 19.8266C41.3085 19.8266 40.999 19.5172 40.999 19.1358L40.9993 15.7678C40.9993 15.3852 41.3084 15.0769 41.6899 15.0769C42.0718 15.0769 42.3807 15.3852 42.3807 15.7678L42.381 19.1358C42.381 19.5172 42.0712 19.8267 41.6901 19.8266Z" fill="white"/>
<path fill-rule="evenodd" clip-rule="evenodd" d="M38.6451 20.2284C38.3401 20.2284 38.0605 20.0245 37.9778 19.7163L37.1063 16.4622C37.0075 16.0928 37.2258 15.7138 37.594 15.6154C37.9634 15.5171 38.3424 15.7354 38.4408 16.1036L39.3127 19.3576C39.4115 19.727 39.1928 20.1061 38.8246 20.2044C38.7649 20.22 38.7046 20.2284 38.6451 20.2284Z" fill="white"/>
<path fill-rule="evenodd" clip-rule="evenodd" d="M44.7355 20.2284C44.6767 20.2284 44.6166 20.22 44.5566 20.2044C44.1887 20.1061 43.9688 19.7271 44.0684 19.3576L44.9406 16.1036C45.0388 15.7354 45.4178 15.5171 45.786 15.6154C46.1544 15.7138 46.3737 16.0928 46.2742 16.4622L45.4026 19.7162C45.3194 20.0244 45.0411 20.2284 44.7355 20.2284Z" fill="white"/>
</svg>
