<svg width="16" height="16" viewBox="0 0 16 16" fill="none" xmlns="http://www.w3.org/2000/svg">
<path d="M8.93343 7.6V4.26667C8.93343 4.08985 8.86319 3.92028 8.73817 3.79526C8.61314 3.67024 8.44357 3.6 8.26676 3.6C8.08995 3.6 7.92038 3.67024 7.79536 3.79526C7.67034 3.92028 7.6001 4.08985 7.6001 4.26667V7.6H4.26676C4.08995 7.6 3.92038 7.67024 3.79536 7.79526C3.67034 7.92028 3.6001 8.08985 3.6001 8.26666C3.6001 8.44348 3.67034 8.61305 3.79536 8.73807C3.92038 8.86309 4.08995 8.93333 4.26676 8.93333H7.6001V12.2667C7.6001 12.4435 7.67034 12.613 7.79536 12.7381C7.92038 12.8631 8.08995 12.9333 8.26676 12.9333C8.44357 12.9333 8.61314 12.8631 8.73817 12.7381C8.86319 12.613 8.93343 12.4435 8.93343 12.2667V8.93333H12.2668C12.4436 8.93333 12.6131 8.86309 12.7382 8.73807C12.8632 8.61305 12.9334 8.44348 12.9334 8.26666C12.9334 8.08985 12.8632 7.92028 12.7382 7.79526C12.6131 7.67024 12.4436 7.6 12.2668 7.6H8.93343Z" fill="#E2E8F0"/>
</svg>
