<svg width="81" height="80" viewBox="0 0 81 80" fill="none" xmlns="http://www.w3.org/2000/svg">
<g clip-path="url(#clip0_0_82)">
<path d="M40.4999 79.2862C62.8674 79.2862 80.9998 61.5373 80.9998 39.6431C80.9998 17.7488 62.8674 0 40.4999 0C18.1324 0 0 17.7488 0 39.6431C0 61.5373 18.1324 79.2862 40.4999 79.2862Z" fill="#00678F"/>
<path d="M18.6941 34.5016H25.3501V36.4948H18.6941V34.5016Z" fill="#FFFFFE"/>
<path d="M18.6941 40.5304H25.3501V42.5239H18.6941V40.5304Z" fill="#FFFFFE"/>
<path d="M21.7736 26.9654H25.3501V30.4659H21.7736V26.9654Z" fill="#FFFFFE"/>
<path d="M52.5703 34.5016H59.2262V36.4948H52.5703V34.5016Z" fill="#FFFFFE"/>
<path d="M52.5703 40.5304H59.2262V42.5239H52.5703V40.5304Z" fill="#FFFFFE"/>
<path d="M55.6493 26.9654H59.2258V30.4659H55.6493V26.9654Z" fill="#FFFFFE"/>
<path d="M31.7826 16.4147H49.2173V19.9152H31.7826V16.4147Z" fill="#FFFFFE"/>
<path d="M23.499 55.5488H21.7004C19.1937 55.5488 17.1544 57.5449 17.1544 59.9985V62.8714H28.0437V59.9985C28.0437 59.9701 28.044 59.942 28.0443 59.914C28.0443 59.9137 28.0443 59.9133 28.0443 59.9133C27.9981 57.4989 25.9767 55.5488 23.499 55.5488Z" fill="#FFFFFE"/>
<path d="M22.5999 54.5277C24.1926 54.5277 25.488 53.2594 25.488 51.7005C25.488 50.1418 24.1926 48.8735 22.5999 48.8735C21.0076 48.8735 19.7118 50.1418 19.7118 51.7005C19.7118 53.2594 21.0076 54.5277 22.5999 54.5277Z" fill="#FFFFFE"/>
<path d="M18.6941 33.4806H25.8716C26.1594 33.4806 26.3932 33.709 26.3932 33.9911V37.0053C26.3932 37.2874 26.1595 37.5159 25.8716 37.5159H18.6941V39.5094H25.8716C26.1594 39.5094 26.3932 39.7379 26.3932 40.02V43.0345C26.3932 43.3163 26.1595 43.5451 25.8716 43.5451H18.6941V51.2608C18.9175 49.3451 20.5838 47.8525 22.5996 47.8525C24.7673 47.8525 26.5308 49.5787 26.5308 51.7005C26.5308 52.9309 25.9378 54.0285 25.017 54.733C26.4913 55.1405 27.7199 56.1267 28.4295 57.4237V31.487H18.6941V33.4806Z" fill="#FFFFFE"/>
<path d="M35.4319 55.5488H33.6333C31.1559 55.5488 29.1349 57.4986 29.088 59.9127V59.9133C29.0883 59.9417 29.0886 59.9701 29.0886 59.9985V62.8714H39.9779V59.9985C39.9779 57.5449 37.9386 55.5488 35.4319 55.5488Z" fill="#FFFFFE"/>
<path d="M31.644 51.7005C31.644 53.2594 32.9397 54.5277 34.5323 54.5277C36.1247 54.5277 37.4204 53.2594 37.4204 51.7005C37.4204 50.1418 36.1247 48.8735 34.5323 48.8735C32.9397 48.8735 31.644 50.1418 31.644 51.7005Z" fill="#FFFFFE"/>
<path d="M47.3652 55.5488H45.5665C43.0598 55.5488 41.0206 57.5449 41.0206 59.9985V62.8714H51.9111V59.9985C51.9112 57.5449 49.8719 55.5488 47.3652 55.5488Z" fill="#FFFFFE"/>
<path d="M44.0487 54.7329C43.1278 54.0284 42.5349 52.9308 42.5349 51.7004C42.5349 49.9516 43.7328 48.4718 45.3675 48.0056V42.0377H35.6322V48.0059C37.2663 48.4723 38.4636 49.9522 38.4636 51.7004C38.4636 52.9307 37.8706 54.0283 36.9498 54.7328C38.5235 55.1681 39.8176 56.2628 40.4992 57.6916C41.1808 56.2629 42.4749 55.1681 44.0487 54.7329Z" fill="#FFFFFE"/>
<path d="M32.1151 54.7329C31.1939 54.0284 30.6009 52.9308 30.6009 51.7004C30.6009 49.5786 32.3647 47.8524 34.5324 47.8524C34.5513 47.8524 34.5702 47.8524 34.5891 47.853V41.5271C34.5891 41.2451 34.8225 41.0166 35.1107 41.0166H45.8891C46.1773 41.0166 46.4107 41.2451 46.4107 41.5271V47.853C46.429 47.8524 46.4475 47.8524 46.4661 47.8524C48.6338 47.8524 50.3973 49.5786 50.3973 51.7004C50.3973 52.9307 49.8043 54.0284 48.8835 54.7329C49.9165 55.0184 50.8292 55.5883 51.5271 56.3502V20.9363H29.4728V56.3487C30.1707 55.5874 31.0827 55.0182 32.1151 54.7329ZM45.3676 23.4403C45.3676 23.1583 45.6013 22.9298 45.8891 22.9298H48.9689C49.257 22.9298 49.4904 23.1583 49.4904 23.4403V26.4549C49.4904 26.7366 49.257 26.9654 48.9689 26.9654H45.8891C45.6013 26.9654 45.3676 26.7367 45.3676 26.4549V23.4403ZM45.3676 29.4692C45.3676 29.1874 45.6013 28.9586 45.8891 28.9586H48.9689C49.257 28.9586 49.4904 29.1874 49.4904 29.4692V32.4837C49.4904 32.7658 49.257 32.9943 48.9689 32.9943H45.8891C45.6013 32.9943 45.3676 32.7658 45.3676 32.4837V29.4692ZM45.3676 35.4984C45.3676 35.2163 45.6013 34.9878 45.8891 34.9878H48.9689C49.257 34.9878 49.4904 35.2163 49.4904 35.4984V38.5126C49.4904 38.7947 49.257 39.0232 48.9689 39.0232H45.8891C45.6013 39.0232 45.3676 38.7947 45.3676 38.5126V35.4984ZM38.4385 23.4403C38.4385 23.1583 38.6722 22.9298 38.96 22.9298H42.0398C42.3279 22.9298 42.5613 23.1583 42.5613 23.4403V26.4549C42.5613 26.7366 42.3279 26.9654 42.0398 26.9654H38.96C38.6722 26.9654 38.4385 26.7367 38.4385 26.4549V23.4403ZM38.4385 29.4692C38.4385 29.1874 38.6722 28.9586 38.96 28.9586H42.0398C42.3279 28.9586 42.5613 29.1874 42.5613 29.4692V32.4837C42.5613 32.7658 42.3279 32.9943 42.0398 32.9943H38.96C38.6722 32.9943 38.4385 32.7658 38.4385 32.4837V29.4692ZM38.4385 35.4984C38.4385 35.2163 38.6722 34.9878 38.96 34.9878H42.0398C42.3279 34.9878 42.5613 35.2163 42.5613 35.4984V38.5126C42.5613 38.7947 42.3279 39.0232 42.0398 39.0232H38.96C38.6722 39.0232 38.4385 38.7947 38.4385 38.5126V35.4984ZM31.5094 23.4403C31.5094 23.1583 31.7428 22.9298 32.031 22.9298H35.1107C35.3985 22.9298 35.6323 23.1583 35.6323 23.4403V26.4549C35.6323 26.7366 35.3985 26.9654 35.1107 26.9654H32.031C31.7428 26.9654 31.5094 26.7367 31.5094 26.4549V23.4403ZM31.5094 29.4692C31.5094 29.1874 31.7428 28.9586 32.031 28.9586H35.1107C35.3985 28.9586 35.6323 29.1874 35.6323 29.4692V32.4837C35.6323 32.7658 35.3985 32.9943 35.1107 32.9943H32.031C31.7428 32.9943 31.5094 32.7658 31.5094 32.4837V29.4692ZM31.5094 35.4984C31.5094 35.2163 31.7428 34.9878 32.031 34.9878H35.1107C35.3985 34.9878 35.6323 35.2163 35.6323 35.4984V38.5126C35.6323 38.7947 35.3985 39.0232 35.1107 39.0232H32.031C31.7428 39.0232 31.5094 38.7947 31.5094 38.5126V35.4984Z" fill="#FFFFFE"/>
<path d="M46.4109 36.0088H48.4475V38.0021H46.4109V36.0088Z" fill="#FFFFFE"/>
<path d="M46.4109 29.9797H48.4475V31.9732H46.4109V29.9797Z" fill="#FFFFFE"/>
<path d="M46.4109 23.9508H48.4475V25.9444H46.4109V23.9508Z" fill="#FFFFFE"/>
<path d="M39.4813 23.9508H41.5179V25.9444H39.4813V23.9508Z" fill="#FFFFFE"/>
<path d="M39.4813 29.9797H41.5179V31.9732H39.4813V29.9797Z" fill="#FFFFFE"/>
<path d="M39.4813 36.0088H41.5179V38.0021H39.4813V36.0088Z" fill="#FFFFFE"/>
<path d="M32.5523 36.0088H34.5889V38.0021H32.5523V36.0088Z" fill="#FFFFFE"/>
<path d="M32.5523 29.9797H34.5889V31.9732H32.5523V29.9797Z" fill="#FFFFFE"/>
<path d="M32.5523 23.9508H34.5889V25.9444H32.5523V23.9508Z" fill="#FFFFFE"/>
<path d="M46.4661 48.8735C44.8737 48.8735 43.578 50.1418 43.578 51.7005C43.578 53.2594 44.8737 54.5277 46.4661 54.5277C48.0587 54.5277 49.3541 53.2594 49.3541 51.7005C49.3541 50.1418 48.0587 48.8735 46.4661 48.8735Z" fill="#FFFFFE"/>
<path d="M59.2996 55.5488H57.5009C54.9942 55.5488 52.9546 57.5449 52.9546 59.9985V62.8714H63.8455V59.9985C63.8455 57.5449 61.8063 55.5488 59.2996 55.5488Z" fill="#FFFFFE"/>
<path d="M55.9828 54.7329C55.062 54.0284 54.469 52.9308 54.469 51.7004C54.469 49.5786 56.2325 47.8524 58.4002 47.8524C60.416 47.8524 62.0823 49.345 62.3056 51.2607V31.487H52.5703V33.4806H59.7478C60.0356 33.4806 60.2693 33.709 60.2693 33.9911V37.0053C60.2693 37.2874 60.0356 37.5159 59.7478 37.5159H52.5703V39.5094H59.7478C60.0356 39.5094 60.2693 39.7379 60.2693 40.02V43.0345C60.2693 43.3163 60.0356 43.5451 59.7478 43.5451H52.5703V57.4237C53.2799 56.1266 54.5085 55.1403 55.9828 54.7329Z" fill="#FFFFFE"/>
<path d="M58.4001 48.8735C56.8075 48.8735 55.5121 50.1418 55.5121 51.7005C55.5121 53.2594 56.8075 54.5277 58.4001 54.5277C59.9925 54.5277 61.2882 53.2594 61.2882 51.7005C61.2882 50.1418 59.9925 48.8735 58.4001 48.8735Z" fill="#FFFFFE"/>
</g>
<defs>
<clipPath id="clip0_0_82">
<rect width="80.99" height="79.2766" fill="white"/>
</clipPath>
</defs>
</svg>
