<svg width="72" height="72" viewBox="0 0 72 72" fill="none" xmlns="http://www.w3.org/2000/svg">
<g clip-path="url(#clip0_0_5)">
<path fill-rule="evenodd" clip-rule="evenodd" d="M36 0C55.8823 0 72 16.1177 72 36C72 55.8823 55.8823 72 36 72C16.1177 72 0 55.8823 0 36C0 16.1177 16.1177 0 36 0ZM48.4224 13.5413C46.6493 13.5414 44.9181 14.0797 43.4577 15.0852C41.9973 16.0907 40.8766 17.5158 40.2439 19.1722C39.6112 20.8285 39.4964 22.6379 39.9145 24.3609C40.3327 26.084 41.2641 27.6394 42.5856 28.8215C43.3376 29.4818 43.8867 30.3419 44.169 31.302L44.2534 31.5918H47.2177V25.6525L46.9786 25.5466C46.229 25.2154 45.616 24.6366 45.2424 23.9072C44.8688 23.1778 44.7572 22.3421 44.9265 21.5402C45.0958 20.7383 45.5355 20.019 46.172 19.5028C46.8086 18.9866 47.6032 18.7049 48.4227 18.7049C49.2423 18.7049 50.0369 18.9866 50.6734 19.5028C51.31 20.019 51.7497 20.7383 51.919 21.5402C52.0882 22.3421 51.9767 23.1778 51.6031 23.9072C51.2295 24.6366 50.6165 25.2154 49.8669 25.5466L49.6278 25.6527V31.5918H52.5923L52.6767 31.3019C52.9588 30.3417 53.5079 29.4815 54.2602 28.8215C55.5814 27.6392 56.5126 26.0837 56.9306 24.3607C57.3485 22.6376 57.2335 20.8283 56.6007 19.1721C55.9679 17.5158 54.8473 16.0907 53.3869 15.0853C51.9266 14.0798 50.1954 13.5415 48.4224 13.5413ZM48.4224 40.2756C48.8161 40.2754 49.2047 40.1871 49.5598 40.0172C49.9149 39.8473 50.2275 39.6001 50.4747 39.2937L51.005 38.6391H45.8415L46.3708 39.2934C46.6178 39.5999 46.9303 39.8471 47.2853 40.0171C47.6403 40.187 48.0288 40.2754 48.4224 40.2756ZM48.4224 23.4427C48.6524 23.4428 48.8773 23.3746 49.0686 23.2468C49.2599 23.119 49.409 22.9374 49.4971 22.7248C49.5851 22.5123 49.6082 22.2784 49.5633 22.0528C49.5184 21.8272 49.4077 21.6199 49.245 21.4572C49.0824 21.2946 48.8751 21.1838 48.6495 21.1389C48.4239 21.094 48.19 21.117 47.9775 21.2051C47.7649 21.2931 47.5833 21.4422 47.4555 21.6334C47.3276 21.8247 47.2594 22.0496 47.2594 22.2796C47.2597 22.588 47.3823 22.8836 47.6004 23.1017C47.8184 23.3198 48.114 23.4424 48.4224 23.4427ZM52.46 34.0031H44.3849V36.2281H52.46V34.0031ZM40.6657 57.8933L58.8516 49.7066L58.4175 49.2945C58.1581 49.055 57.8627 48.8576 57.5421 48.7097C56.7503 48.3352 55.8066 48.2158 54.9723 48.5221C54.9323 48.5362 54.8913 48.5488 54.8504 48.5602L46.7194 50.6527L46.635 50.7686C46.3127 51.2172 45.8887 51.5832 45.3978 51.8366C44.9069 52.09 44.363 52.2237 43.8106 52.2266H32.0027C31.6853 52.2232 31.3821 52.0947 31.1589 51.869C30.9357 51.6434 30.8105 51.3388 30.8105 51.0214C30.8105 50.7039 30.9357 50.3993 31.1589 50.1737C31.3821 49.948 31.6853 49.8195 32.0027 49.8161H43.81C44.4772 49.8161 44.9415 49.1887 44.9415 48.5556C44.9415 47.9225 44.4774 47.2949 43.81 47.2949H37.8773C37.7037 47.2949 37.5321 47.2574 37.3743 47.1848C37.2165 47.1123 37.0763 47.0064 36.9633 46.8745C35.5808 45.2638 33.7243 44.0124 31.6516 43.5007L31.6112 43.4907L31.569 43.4893C30.3188 43.4447 29.0668 43.419 27.8156 43.4246C26.8829 43.4292 25.9483 43.4513 25.0172 43.5075C24.3533 43.5478 23.6866 43.6047 23.0278 43.6978C22.5798 43.7573 22.1359 43.8441 21.6986 43.9578L21.3557 44.0505L22.5944 52.7761L22.9075 52.8078C23.7312 52.9088 24.536 53.1279 25.2972 53.4583L36.6456 58.1261C38.0121 58.6886 39.3411 58.4895 40.6652 57.8933H40.6657ZM14.8729 56.25L20.5377 55.4484L18.8132 43.2904L13.1484 44.0934L14.8729 56.25Z" fill="white"/>
</g>
<defs>
<clipPath id="clip0_0_5">
<rect width="72" height="72" fill="white"/>
</clipPath>
</defs>
</svg>
