<svg width="79" height="78" viewBox="0 0 79 78" fill="none" xmlns="http://www.w3.org/2000/svg">
<g clip-path="url(#clip0_0_55)">
<path d="M39.5 78C61.3153 78 79 60.5391 79 39C79 17.4609 61.3153 0 39.5 0C17.6848 0 0 17.4609 0 39C0 60.5391 17.6848 78 39.5 78Z" fill="#00678F"/>
<path fill-rule="evenodd" clip-rule="evenodd" d="M56.2408 29.1281H51.3805C51.1027 29.1281 50.8713 28.8996 50.8713 28.6254C50.8713 28.3512 51.1027 28.1227 51.3805 28.1227H56.2408C56.5186 28.1227 56.75 27.8941 56.75 27.6199C56.75 27.3457 56.5186 27.1172 56.2408 27.1172H50.3158C50.0381 27.1172 49.8066 26.8887 49.8066 26.6145C49.8066 26.3402 50.0381 26.1117 50.3158 26.1117H56.2408C57.074 26.1117 57.7684 26.782 57.7684 27.6199C57.7684 28.4731 57.074 29.1281 56.2408 29.1281Z" fill="white"/>
<path fill-rule="evenodd" clip-rule="evenodd" d="M55.6394 31.1391H51.3808C51.103 31.1391 50.8716 30.9106 50.8716 30.6363C50.8716 30.3621 51.103 30.1336 51.3808 30.1336H55.6394C55.9171 30.1336 56.1485 29.9051 56.1485 29.6309C56.1485 29.3566 55.9171 29.1281 55.6394 29.1281C55.3616 29.1281 55.1302 28.8996 55.1302 28.6254C55.1302 28.3512 55.3616 28.1227 55.6394 28.1227C56.4726 28.1227 57.1669 28.793 57.1669 29.6309C57.1669 30.484 56.4726 31.1391 55.6394 31.1391Z" fill="white"/>
<path fill-rule="evenodd" clip-rule="evenodd" d="M55.099 33.15C54.8213 33.15 54.5898 32.9215 54.5898 32.6473C54.5898 32.3731 54.8213 32.1445 55.099 32.1445C55.3768 32.1445 55.6082 31.916 55.6082 31.6418C55.6082 31.3676 55.3768 31.1391 55.099 31.1391C54.8213 31.1391 54.5898 30.9106 54.5898 30.6363C54.5898 30.3621 54.8213 30.1336 55.099 30.1336C55.9322 30.1336 56.6266 30.8039 56.6266 31.6418C56.6266 32.4797 55.9477 33.15 55.099 33.15Z" fill="white"/>
<path fill-rule="evenodd" clip-rule="evenodd" d="M46.9988 27.3305H46.1811C45.9033 27.3305 45.6719 27.102 45.6719 26.8277C45.6719 26.5535 45.9033 26.325 46.1811 26.325H46.9988C47.3846 26.325 47.7395 25.9441 47.8629 25.7766L49.8379 22.4098C50.3625 21.5109 51.2574 21.4805 51.8746 21.8309C52.5535 22.2117 52.9547 23.0953 52.4764 23.918L50.7637 26.8582C50.6248 27.102 50.3162 27.1781 50.0693 27.041C49.8225 26.9039 49.7453 26.5992 49.8842 26.3555L51.5969 23.4152C51.782 23.0953 51.566 22.8059 51.3654 22.684C51.1803 22.5773 50.9334 22.5316 50.7174 22.9125L48.7424 26.2945C48.7424 26.3098 48.727 26.3098 48.727 26.325C48.6344 26.4469 47.9863 27.3305 46.9988 27.3305ZM51.3809 35.1762C50.7945 35.2066 49.2361 35.0695 48.2332 34.2012C48.1561 34.1402 48.0943 34.1098 47.9863 34.1098H46.1811C45.9033 34.1098 45.6719 33.8812 45.6719 33.607C45.6719 33.3328 45.9033 33.1043 46.1811 33.1043H47.9863C48.3258 33.1043 48.6344 33.2262 48.8967 33.4395C49.7916 34.2164 51.2728 34.1707 51.35 34.1707H51.3809H55.1148C55.3926 34.1707 55.624 33.9422 55.624 33.668C55.624 33.3937 55.3926 33.1652 55.1148 33.1652H51.3809C51.1031 33.1652 50.8717 32.9367 50.8717 32.6625C50.8717 32.3883 51.1031 32.1598 51.3809 32.1598H55.1148C55.948 32.1598 56.6424 32.8301 56.6424 33.668C56.6424 34.4906 55.9635 35.1762 55.1148 35.1762H51.3809Z" fill="white"/>
<path fill-rule="evenodd" clip-rule="evenodd" d="M44.1134 26.7516C44.0517 26.7516 44.0054 26.7973 44.0054 26.8582V33.6223C44.0054 33.6832 44.0517 33.7289 44.1134 33.7289H45.5792C45.6409 33.7289 45.6872 33.6832 45.6872 33.6223V26.8582C45.6872 26.7973 45.6409 26.7516 45.5792 26.7516H44.1134ZM45.5792 34.7039H44.1134C43.4962 34.7039 43.0024 34.2164 43.0024 33.607V26.8582C43.0024 26.2488 43.4962 25.7613 44.1134 25.7613H45.5792C46.1964 25.7613 46.6901 26.2488 46.6901 26.8582V33.6223C46.6747 34.2164 46.1964 34.7039 45.5792 34.7039Z" fill="white"/>
<path fill-rule="evenodd" clip-rule="evenodd" d="M17.3428 58.1801H41.8605V51.4922C41.8605 47.8055 38.8209 44.8043 35.0869 44.8043H33.4205L30.026 49.8316C29.9334 49.9688 29.7791 50.0602 29.6094 50.0602C29.4396 50.0602 29.2854 49.984 29.1928 49.8316L25.7982 44.8043H24.1318C20.3979 44.8043 17.3582 47.8055 17.3582 51.4922L17.3428 58.1801ZM42.4006 59.1703H16.849C16.5713 59.1703 16.3398 58.9418 16.3398 58.6676V51.477C16.3398 47.2418 19.827 43.7836 24.1318 43.7836H26.076C26.2457 43.7836 26.4 43.8598 26.4926 44.0121L29.6094 48.6434L32.7262 44.0121C32.8188 43.875 32.9731 43.7836 33.1428 43.7836H35.0869C39.3764 43.7836 42.8789 47.2266 42.8789 51.477V58.6676C42.8943 58.9418 42.6629 59.1703 42.4006 59.1703Z" fill="white"/>
<path fill-rule="evenodd" clip-rule="evenodd" d="M26.0604 44.7891C25.7827 44.7891 25.5513 44.5605 25.5513 44.2863V42.123C25.5513 41.8488 25.7827 41.6203 26.0604 41.6203C26.3382 41.6203 26.5696 41.8488 26.5696 42.123V44.2863C26.5696 44.5605 26.3536 44.7891 26.0604 44.7891Z" fill="white"/>
<path fill-rule="evenodd" clip-rule="evenodd" d="M33.1581 44.7891C32.8804 44.7891 32.6489 44.5605 32.6489 44.2863V42.123C32.6489 41.8488 32.8804 41.6203 33.1581 41.6203C33.4358 41.6203 33.6673 41.8488 33.6673 42.123V44.2863C33.6673 44.5605 33.4513 44.7891 33.1581 44.7891Z" fill="white"/>
<path fill-rule="evenodd" clip-rule="evenodd" d="M29.6096 43.875C26.2613 43.875 23.5303 41.1785 23.5303 37.8727C23.5303 37.5984 23.7617 37.3699 24.0395 37.3699C24.3172 37.3699 24.5486 37.5984 24.5486 37.8727C24.5486 40.6301 26.8168 42.8848 29.625 42.8848C32.4178 42.8848 34.7014 40.6453 34.7014 37.8727C34.7014 37.5984 34.9328 37.3699 35.2105 37.3699C35.4883 37.3699 35.7197 37.5984 35.7197 37.8727C35.7043 41.209 32.9578 43.875 29.6096 43.875Z" fill="white"/>
<path fill-rule="evenodd" clip-rule="evenodd" d="M35.7039 37.3852H36.1359C36.6605 37.3852 37.0926 36.9586 37.0926 36.4406V35.5266C37.0926 35.0086 36.6605 34.582 36.1359 34.582H35.7039V37.3852ZM36.1359 38.3754H35.1947C34.917 38.3754 34.6855 38.1469 34.6855 37.8727V34.0793C34.6855 33.8051 34.917 33.5766 35.1947 33.5766H36.1359C37.216 33.5766 38.0955 34.4449 38.0955 35.5113V36.4254C38.0955 37.507 37.216 38.3754 36.1359 38.3754Z" fill="white"/>
<path fill-rule="evenodd" clip-rule="evenodd" d="M23.0825 34.5973C22.5579 34.5973 22.1259 35.0238 22.1259 35.5418V36.4559C22.1259 36.9738 22.5579 37.4004 23.0825 37.4004H23.5145V34.6125L23.0825 34.5973ZM24.0546 38.3754H23.1134C22.0333 38.3754 21.1538 37.507 21.1538 36.4406V35.5266C21.1538 34.4602 22.0333 33.5918 23.1134 33.5918H24.0546C24.3323 33.5918 24.5638 33.8203 24.5638 34.0945V37.8879C24.5483 38.1469 24.3169 38.3754 24.0546 38.3754Z" fill="white"/>
<path fill-rule="evenodd" clip-rule="evenodd" d="M36.5988 34.6735C36.3211 34.6735 36.0896 34.4449 36.0896 34.1707V32.8453C36.0896 29.8746 33.6518 27.4676 30.643 27.4676H28.5754C25.5666 27.4676 23.1287 29.8746 23.1287 32.8453V34.1707C23.1287 34.4449 22.8973 34.6735 22.6195 34.6735C22.3418 34.6735 22.1104 34.4449 22.1104 34.1707V32.8453C22.1104 29.3262 25.0111 26.4774 28.56 26.4774H30.6275C34.1918 26.4774 37.0771 29.3414 37.0771 32.8453V34.1707C37.1234 34.4449 36.892 34.6735 36.5988 34.6735Z" fill="white"/>
<path fill-rule="evenodd" clip-rule="evenodd" d="M33.7598 34.7191C30.1184 34.7191 26.8782 32.6625 26.8473 32.632C26.8164 32.6168 26.8164 32.6168 26.7856 32.6168C25.5358 32.8605 24.4711 34.3688 24.4711 34.384C24.3168 34.6125 23.9928 34.6734 23.7614 34.5211C23.5299 34.3688 23.4682 34.0488 23.6225 33.8203C23.6688 33.7441 24.9186 31.9617 26.585 31.6418C26.8782 31.5809 27.1559 31.6418 27.4028 31.7941C28.4674 32.4797 31.9391 34.1555 35.1176 33.607C35.3953 33.5613 35.6577 33.7441 35.7039 34.0031C35.7502 34.2773 35.5651 34.5363 35.3028 34.582C34.7782 34.6734 34.269 34.7191 33.7598 34.7191Z" fill="white"/>
<path fill-rule="evenodd" clip-rule="evenodd" d="M50.3778 19.8352C49.8377 19.8352 49.2977 19.9723 48.7885 20.2617L40.7497 24.7559C39.3301 25.548 38.7284 27.2848 39.361 28.7777L40.9811 32.6016C40.9965 32.6473 41.012 32.7082 41.012 32.7691L41.3668 38.7563L44.8077 37.05C44.8848 37.0195 44.962 37.0043 45.0391 37.0043H55.7936C57.1206 37.0043 58.2778 36.2578 58.787 35.0391L61.4254 28.793C62.0581 27.3 61.4563 25.5785 60.0368 24.7711L51.9979 20.277C51.4579 19.9723 50.9178 19.8352 50.3778 19.8352ZM40.8885 40.0359C40.7959 40.0359 40.7188 40.0207 40.6416 39.975C40.4874 39.8988 40.3948 39.7465 40.3948 39.5789L39.9936 32.9215L38.4198 29.1891C37.5866 27.2238 38.3735 24.9691 40.2559 23.918L48.2948 19.4238C49.6217 18.6773 51.1493 18.6773 52.4917 19.4238L60.5305 23.918C62.3975 24.9691 63.1844 27.2238 62.3666 29.1891L59.7282 35.4352C59.0493 37.0348 57.5526 38.025 55.809 38.025H45.178L41.1663 40.0207C41.0428 40.0055 40.9657 40.0359 40.8885 40.0359Z" fill="white"/>
<path fill-rule="evenodd" clip-rule="evenodd" d="M22.1259 59.1703C21.8481 59.1703 21.6167 58.9418 21.6167 58.6676V52.7871C21.6167 52.5129 21.8481 52.2844 22.1259 52.2844C22.4036 52.2844 22.6351 52.5129 22.6351 52.7871V58.6523C22.6505 58.9418 22.4036 59.1703 22.1259 59.1703Z" fill="white"/>
<path fill-rule="evenodd" clip-rule="evenodd" d="M37.0927 59.1703C36.8149 59.1703 36.5835 58.9418 36.5835 58.6676V52.7871C36.5835 52.5129 36.8149 52.2844 37.0927 52.2844C37.3704 52.2844 37.6019 52.5129 37.6019 52.7871V58.6523C37.6173 58.9418 37.3704 59.1703 37.0927 59.1703Z" fill="white"/>
</g>
<defs>
<clipPath id="clip0_0_55">
<rect width="79" height="78" fill="white"/>
</clipPath>
</defs>
</svg>
